<?xml version="1.0" encoding="UTF-8" standalone="no"?>
<!-- Created with Inkscape (http://www.inkscape.org/) -->

<svg
   width="210mm"
   height="180mm"
   viewBox="0 0 210 180"
   version="1.1"
   id="svg1"
   xml:space="preserve"
   inkscape:version="1.3.2 (091e20e, 2023-11-25)"
   sodipodi:docname="linguistic_map.svg"
   inkscape:export-filename="linguistic map.png"
   inkscape:export-xdpi="300"
   inkscape:export-ydpi="300"
   xmlns:inkscape="http://www.inkscape.org/namespaces/inkscape"
   xmlns:sodipodi="http://sodipodi.sourceforge.net/DTD/sodipodi-0.dtd"
   xmlns:xlink="http://www.w3.org/1999/xlink"
   xmlns="http://www.w3.org/2000/svg"
   xmlns:svg="http://www.w3.org/2000/svg"><sodipodi:namedview
     id="namedview1"
     pagecolor="#ffffff"
     bordercolor="#666666"
     borderopacity="1.0"
     inkscape:showpageshadow="2"
     inkscape:pageopacity="0.0"
     inkscape:pagecheckerboard="0"
     inkscape:deskcolor="#d1d1d1"
     inkscape:document-units="mm"
     inkscape:zoom="1.891908"
     inkscape:cx="384.00387"
     inkscape:cy="242.08365"
     inkscape:window-width="2560"
     inkscape:window-height="1387"
     inkscape:window-x="0"
     inkscape:window-y="25"
     inkscape:window-maximized="0"
     inkscape:current-layer="layer1"
     showgrid="false"
     showguides="true" /><defs
     id="defs1"><linearGradient
       id="swatch27"><stop
         style="stop-color:#7c3b2e;stop-opacity:1;"
         offset="0"
         id="stop27" /></linearGradient><filter
       style="color-interpolation-filters:sRGB"
       inkscape:label="Color Blindness"
       id="filter3"
       x="0"
       y="0"
       width="1"
       height="1"><feColorMatrix
         values="-4.33735 -4.6988 -4.21687 -4.93976 0 -4.33735 -4.6988 -4.21687 -4.93976 0 -4.33735 -4.6988 -4.21687 -4.93976 0 0 0 0 1 0 "
         id="feColorMatrix3"
         result="fbSourceGraphic" /><feColorMatrix
         result="fbSourceGraphicAlpha"
         in="fbSourceGraphic"
         values="0 0 0 -1 0 0 0 0 -1 0 0 0 0 -1 0 0 0 0 1 0"
         id="feColorMatrix8" /><feColorMatrix
         id="feColorMatrix9"
         values="-6.08434 -7.10843 -7.6506 -7.53012 0 -6.08434 -7.10843 -7.6506 -7.53012 0 -6.08434 -7.10843 -7.6506 -7.53012 0 0 0 0 1 0 "
         in="fbSourceGraphic"
         result="fbSourceGraphic" /><feColorMatrix
         result="fbSourceGraphicAlpha"
         in="fbSourceGraphic"
         values="0 0 0 -1 0 0 0 0 -1 0 0 0 0 -1 0 0 0 0 1 0"
         id="feColorMatrix10" /><feColorMatrix
         id="feColorMatrix11"
         values="0.618 0.32 0.062 0 0 0.163 0.775 0.062 0 0 0.163 0.32 0.516 0 0 0 0 0 1 0 "
         type="matrix"
         result="colormatrix1"
         in="fbSourceGraphic" /></filter><rect
       id="SVGID_1_"
       y="0.5"
       width="271"
       height="640" /></defs><g
     inkscape:label="Layer 1"
     inkscape:groupmode="layer"
     id="layer1"><image
       width="290.74533"
       height="203.2"
       preserveAspectRatio="none"
       xlink:href="Satellite_relief_map_of_Middle_East_saturated.png"
       id="image1"
       x="-50.240326"
       y="-14.289444"
       style="display:inline" /></g><g
     inkscape:groupmode="layer"
     id="layer3"
     inkscape:label="Semitic"><path
       id="path3"
       style="fill:#d1b029;fill-opacity:0.46;stroke:none;stroke-width:0.264583px;stroke-linecap:butt;stroke-linejoin:miter;stroke-opacity:1"
       d="M 87.171423 46.26436 L 86.504281 47.154228 L 82.166044 47.599162 L 79.16261 50.7137 L 75.269307 48.600651 L 73.712297 49.601624 L 69.262956 50.602596 L 67.705428 53.161096 L 68.818022 54.940833 L 67.816532 58.722514 L 64.034851 67.621712 C 64.034851 67.621712 63.634922 68.377573 63.51912 68.612349 C 63.914101 68.483932 64.289106 68.345918 64.335608 68.060445 C 64.348778 67.98006 64.357038 67.898789 64.372298 67.818599 C 64.383188 67.759938 64.394521 67.701143 64.403821 67.642383 C 64.405461 67.628893 64.409206 67.615579 64.415706 67.604659 C 64.448286 67.547915 64.452642 67.483528 64.462732 67.421208 C 64.480452 67.308639 64.495847 67.196157 64.525777 67.085828 C 64.534897 67.050928 64.547955 67.018049 64.569185 66.988159 C 64.61363 66.924959 64.677106 66.919447 64.730416 66.975757 C 64.79569 67.046097 64.848018 67.047868 64.918518 66.981958 C 64.995432 66.910935 65.045688 66.826449 65.060628 66.720475 C 65.065708 66.682086 65.071331 66.644517 65.076131 66.606787 C 65.078371 66.590147 65.075029 66.576475 65.066829 66.562345 C 65.021109 66.488454 65.020718 66.415626 65.059078 66.337036 C 65.104031 66.246751 65.130837 66.149616 65.161397 66.054366 C 65.195497 65.946842 65.227886 65.839245 65.244596 65.727254 C 65.248896 65.699204 65.250747 65.672449 65.246147 65.645089 C 65.24318 65.624909 65.23545 65.600297 65.24718 65.584627 C 65.25561 65.574047 65.269003 65.584211 65.278703 65.587211 C 65.351593 65.606881 65.424748 65.6236 65.498328 65.63682 C 65.57391 65.65011 65.648307 65.640286 65.723637 65.632686 C 65.724437 65.632551 65.726266 65.631893 65.727254 65.63217 C 65.823082 65.63296 65.915301 65.605641 66.008891 65.587211 C 66.0616 65.576701 66.107357 65.588779 66.148417 65.627519 C 66.192758 65.668022 66.237059 65.709206 66.279159 65.752576 C 66.291179 65.765876 66.30384 65.773631 66.3205 65.778931 C 66.34773 65.787491 66.374478 65.794684 66.402148 65.799084 C 66.46244 65.809654 66.519387 65.799703 66.573197 65.772213 C 66.663515 65.72483 66.753678 65.677512 66.842948 65.630103 C 66.90514 65.597751 66.950344 65.551765 66.979374 65.485925 C 67.008624 65.419223 67.041353 65.353787 67.059473 65.282837 C 67.067993 65.249807 67.071408 65.217141 67.069808 65.183101 C 67.067528 65.122814 67.079119 65.063121 67.090479 65.004301 C 67.106708 64.91702 67.123407 64.829909 67.151457 64.745919 C 67.161337 64.715939 67.172824 64.687813 67.191764 64.662203 C 67.222065 64.621603 67.25866 64.619349 67.29305 64.656519 C 67.30174 64.666149 67.309238 64.676534 67.317338 64.687524 C 67.337888 64.713904 67.335781 64.739152 67.367981 64.743852 C 67.423767 64.754572 67.529418 64.687144 67.583988 64.669954 C 67.612427 64.660734 67.673117 64.650731 67.699227 64.635331 C 67.716087 64.626581 67.740841 64.592274 67.757621 64.582104 C 67.778871 64.569185 67.830125 64.557366 67.848055 64.538696 C 67.869615 64.517613 67.877782 64.444762 67.901282 64.427592 C 67.933028 64.404802 68.015147 64.413026 68.053727 64.413123 C 68.085943 64.413753 68.152152 64.415066 68.182402 64.428625 C 68.220408 64.446138 68.304593 64.497814 68.311593 64.542314 C 68.316103 64.577141 68.256939 64.630613 68.240279 64.660653 C 68.227209 64.684991 68.18552 64.734399 68.19222 64.761938 C 68.20106 64.795638 68.283827 64.80877 68.301257 64.83842 C 68.333047 64.893895 68.297926 65.040002 68.328646 65.095251 C 68.342246 65.119861 68.403195 65.136344 68.414945 65.161914 C 68.435215 65.20841 68.418313 65.31904 68.404093 65.36862 C 68.388838 65.419106 68.292857 65.498648 68.301257 65.551038 C 68.306697 65.582618 68.376215 65.604123 68.394275 65.630103 C 68.423695 65.672817 68.458355 65.775383 68.467655 65.828023 C 68.482075 65.908289 68.450665 66.074875 68.467655 66.155135 C 68.482268 66.224967 68.568354 66.342551 68.582894 66.413 L 68.583927 66.411967 C 68.595607 66.470592 68.617473 66.607619 68.579793 66.651229 C 68.563933 66.668899 68.504703 66.640744 68.488843 66.658464 C 68.479612 66.669774 68.492726 66.704825 68.488326 66.718925 C 68.479876 66.744685 68.434598 66.779595 68.425798 66.805225 C 68.406148 66.865957 68.439953 67.00052 68.421663 67.06154 C 68.395237 67.148861 68.279423 67.29036 68.226843 67.36178 C 68.203069 67.394093 68.155217 67.458293 68.125557 67.484253 C 68.084983 67.519954 67.989156 67.570281 67.943656 67.597941 C 67.914103 67.615961 67.856274 67.657008 67.824284 67.670288 C 67.784805 67.687488 67.719693 67.702013 67.659953 67.714213 C 67.675463 67.735753 67.671994 67.760589 67.648584 67.780359 C 67.633154 67.793559 67.615191 67.802398 67.596391 67.809298 C 67.553329 67.825488 67.509552 67.839587 67.463582 67.842887 C 67.422732 67.846757 67.392722 67.863145 67.372632 67.900765 C 67.348922 67.94411 67.317455 67.980243 67.281165 68.012903 C 67.269965 68.021693 67.261543 68.034432 67.252743 68.044942 C 67.247703 68.031481 67.215503 68.166316 67.217603 68.152946 C 67.228303 68.255191 67.226487 68.454339 67.170577 68.577209 C 67.097307 68.738262 67.19265 69.083222 67.13337 69.270707 C 67.12827 69.286717 67.134435 69.293921 67.126135 69.308431 C 67.124435 69.312151 67.122568 69.315766 67.120968 69.318766 C 67.121568 69.314286 67.121936 69.310364 67.122518 69.306364 C 67.044653 69.288854 66.968361 69.264897 66.893591 69.237118 C 66.816579 69.207998 66.739854 69.207281 66.663114 69.238151 C 66.612818 69.257651 66.582572 69.24397 66.559762 69.19526 C 66.544922 69.16511 66.540123 69.131485 66.533923 69.098625 C 66.525123 69.049205 66.532104 69.000107 66.53134 68.951347 C 66.52988 68.879471 66.517482 68.810488 66.492582 68.743608 C 66.471596 68.688728 66.43092 68.657073 66.37321 68.650073 C 66.35111 68.648173 66.328847 68.646806 66.306547 68.648006 C 66.247888 68.651956 66.189717 68.663628 66.132397 68.673328 C 66.024771 68.691614 65.928464 68.671005 65.850244 68.589095 C 65.827304 68.564345 65.802181 68.542342 65.778931 68.519332 C 65.762611 68.503612 65.746785 68.487916 65.730355 68.472306 C 65.709135 68.452126 65.700292 68.451483 65.679712 68.471273 C 65.656902 68.492223 65.635776 68.514448 65.613566 68.535868 C 65.595056 68.553258 65.578709 68.572338 65.558789 68.587028 C 65.431944 68.677925 65.312233 68.779979 65.175867 68.856779 C 65.149277 68.871409 65.124299 68.890292 65.098869 68.907422 C 65.067889 68.928332 65.043844 68.95632 65.019804 68.98442 C 65.012114 68.99317 65.009471 69.001539 65.009985 69.013359 C 65.010385 69.047099 65.000894 69.07771 64.986214 69.10741 C 64.977014 69.12484 64.97066 69.144264 64.96606 69.164254 C 64.94777 69.239686 64.934257 69.31725 64.912317 69.39163 C 64.903997 69.4204 64.894008 69.448954 64.865808 69.464494 C 64.859198 69.469134 64.854772 69.476781 64.849272 69.482581 C 64.814532 69.531755 64.786683 69.584647 64.766073 69.641227 C 64.759273 69.660217 64.759055 69.678441 64.762455 69.698071 C 64.772065 69.7461 64.77854 69.795095 64.78881 69.842765 C 64.80662 69.930538 64.789113 70.012009 64.753153 70.091329 C 64.735114 70.129629 64.710386 70.162464 64.676156 70.187964 C 64.647136 70.210364 64.619784 70.235585 64.595024 70.262895 C 64.580784 70.279285 64.569 70.296678 64.5604 70.316638 C 64.550878 70.339928 64.548717 70.363691 64.560917 70.386401 C 64.594047 70.442786 64.610476 70.505492 64.624996 70.568302 C 64.644906 70.655092 64.663819 70.741959 64.664787 70.830819 C 64.665067 70.903032 64.673106 70.974049 64.680806 71.046309 C 64.687546 71.105701 64.69431 71.16586 64.69941 71.22511 C 64.70101 71.2455 64.704449 71.265918 64.693209 71.284538 C 64.658589 71.341576 64.645037 71.406723 64.629647 71.470573 C 64.620267 71.512373 64.624135 71.548064 64.657035 71.582194 C 64.703575 71.630323 64.740036 71.686429 64.765556 71.749109 C 64.781347 71.786306 64.789876 71.824604 64.781576 71.864864 C 64.773436 71.905014 64.754369 71.934512 64.710779 71.943412 C 64.657888 71.954132 64.606049 71.970411 64.55575 71.991471 C 64.53952 71.998801 64.523671 72.005783 64.509241 72.016793 C 64.499621 72.023653 64.494589 72.030941 64.498389 72.044181 C 64.505889 72.071051 64.50277 72.099384 64.502523 72.126864 C 64.502323 72.146994 64.50299 72.167712 64.50769 72.187842 C 64.51182 72.207092 64.522197 72.220431 64.543347 72.221431 C 64.586377 72.225031 64.629942 72.228666 64.673572 72.229183 C 64.75788 72.229992 64.822755 72.194185 64.866325 72.118595 C 64.870125 72.111075 64.874561 72.104242 64.879761 72.098442 C 64.911005 72.056442 64.953787 72.047397 64.998617 72.072087 C 65.009367 72.079077 65.020839 72.085824 65.030139 72.094824 C 65.042659 72.107444 65.05613 72.114779 65.07148 72.121179 C 65.164629 72.160409 65.259891 72.195178 65.358801 72.220398 C 65.403638 72.231428 65.438151 72.229082 65.481791 72.205412 C 65.510371 72.189382 65.533326 72.177274 65.562406 72.166654 L 65.556205 72.108777 C 65.556205 72.108777 65.558221 72.054587 65.553621 72.036947 C 65.549661 72.021417 65.523714 71.996339 65.523649 71.979069 C 65.522609 71.963069 65.541384 71.931824 65.551554 71.919124 C 65.563094 71.905184 65.592786 71.877936 65.610465 71.877266 C 65.620995 71.877186 65.639639 71.892138 65.646639 71.901038 C 65.657159 71.915558 65.662259 71.954708 65.665759 71.972868 C 65.668759 71.988088 65.672328 72.017146 65.674028 72.032296 C 65.676228 72.048616 65.683846 72.100509 65.683846 72.100509 C 65.683846 72.100509 65.706235 72.10376 65.714335 72.10516 C 65.724125 72.10596 65.743439 72.107077 65.753609 72.108777 C 65.762349 72.111447 65.780516 72.11728 65.787716 72.12428 C 65.792436 72.12817 65.797635 72.138717 65.800635 72.143917 C 65.804415 72.151877 65.816138 72.175956 65.816138 72.175956 L 65.799084 72.249337 C 65.799084 72.249337 65.778564 72.257171 65.779964 72.271041 C 65.781734 72.280571 65.798702 72.27381 65.802702 72.28241 C 65.810372 72.29921 65.81862 72.35349 65.81252 72.37181 C 65.80834 72.38407 65.784364 72.408236 65.779964 72.420386 C 65.776064 72.430946 65.787032 72.450707 65.785132 72.461727 C 65.782372 72.469967 65.763761 72.491351 65.761361 72.499451 C 65.758061 72.513971 65.759111 72.523011 65.762911 72.537691 C 65.766391 72.554011 65.799917 72.599209 65.797017 72.616239 C 65.794407 72.632869 65.755858 72.651722 65.748958 72.666882 C 65.74314 72.680352 65.756192 72.709356 65.749992 72.722176 C 65.741672 72.739486 65.698981 72.748251 65.691081 72.766101 C 65.684281 72.781371 65.692665 72.805798 65.693665 72.822428 C 65.693665 72.822428 65.68277 72.855649 65.64974 72.827079 C 65.64414 72.822491 65.647438 72.822216 65.640438 72.822428 C 65.630488 72.821508 65.622766 72.837082 65.613566 72.839482 C 65.605626 72.842116 65.580542 72.842282 65.572742 72.839482 C 65.557882 72.834622 65.542946 72.805225 65.527266 72.806925 C 65.515616 72.807925 65.515566 72.832631 65.505046 72.837931 C 65.495476 72.842421 65.436344 72.835347 65.410994 72.832247 C 65.411903 72.820747 65.411678 72.809714 65.410478 72.797624 C 65.409018 72.777784 65.404863 72.759398 65.384123 72.750598 C 65.363223 72.742878 65.346831 72.729713 65.338131 72.708223 C 65.335241 72.700041 65.329928 72.696938 65.322628 72.699438 C 65.272123 72.719038 65.218726 72.73105 65.172766 72.76145 C 65.056241 72.838252 64.939084 72.914374 64.821883 72.990894 C 64.754668 73.035089 64.686839 73.078753 64.622929 73.126803 C 64.608019 73.137563 64.593705 73.147966 64.585205 73.164526 C 64.519998 73.280808 64.457241 73.399539 64.406921 73.523161 C 64.400711 73.538271 64.396317 73.552726 64.396069 73.568636 C 64.392959 73.649522 64.383438 73.729492 64.369198 73.808931 C 64.359448 73.863695 64.348618 73.919422 64.319588 73.968612 C 64.257478 74.073821 64.201252 74.181296 64.143372 74.288489 C 64.135312 74.303739 64.128301 74.318921 64.122701 74.334481 C 64.108131 74.3783 64.111835 74.41886 64.141305 74.45592 C 64.189442 74.517237 64.235414 74.580022 64.281864 74.640922 C 64.288844 74.650072 64.296485 74.657176 64.304085 74.664176 C 64.316905 74.675576 64.330046 74.677367 64.345426 74.667277 C 64.372286 74.650047 64.401422 74.635571 64.427592 74.617151 C 64.456522 74.598891 64.487043 74.589511 64.520093 74.585111 C 64.627095 74.572812 64.733559 74.574794 64.840487 74.581494 C 64.894312 74.584394 64.948037 74.589296 65.001717 74.593896 C 65.091667 74.601736 65.179674 74.583341 65.267334 74.567542 C 65.335768 74.554902 65.403029 74.538235 65.472489 74.533435 C 65.614341 74.524022 65.732765 74.463944 65.821305 74.348433 C 65.828915 74.338933 65.837444 74.331062 65.847144 74.324662 C 65.966169 74.247032 66.081189 74.162149 66.196993 74.08075 C 66.226033 74.06031 66.255183 74.040458 66.284843 74.020288 C 66.292453 73.922429 66.313295 73.826477 66.349955 73.734517 C 66.373165 73.675035 66.384249 73.612479 66.384062 73.548999 C 66.383792 73.483411 66.376324 73.417772 66.359774 73.353662 C 66.354874 73.334452 66.356541 73.319786 66.364941 73.301986 C 66.410414 73.208817 66.45504 73.115106 66.4993 73.020866 C 66.544247 72.92663 66.588175 72.831989 66.632625 72.737679 C 66.538999 73.418738 66.500185 74.194701 66.474495 74.77063 C 66.467352 74.930826 66.328502 75.134622 66.332902 75.264657 C 66.33453 75.311817 66.427786 75.276797 66.440906 75.339587 C 66.485255 75.551421 66.573475 75.826076 66.560795 75.985543 C 66.552402 76.088702 66.495352 76.180168 66.457442 76.275448 C 66.414412 76.384126 66.391878 76.494831 66.384578 76.610828 C 66.382298 76.658857 66.37189 76.706224 66.35564 76.751904 C 66.33549 76.808707 66.303224 76.855227 66.255904 76.891947 C 66.219735 76.919767 66.185627 76.94853 66.149967 76.97618 C 66.071905 77.037215 66.036794 77.120283 66.027494 77.218542 C 66.019854 77.295557 66.016145 77.374036 65.995455 77.449536 C 65.980325 77.502318 65.957193 77.550415 65.915873 77.586995 C 65.908283 77.593275 65.90312 77.599216 65.89882 77.609216 C 65.839316 77.76186 65.775652 77.913233 65.733972 78.072237 C 65.724212 78.10973 65.710965 78.145154 65.695215 78.179724 C 65.616474 78.351706 65.534718 78.521867 65.464738 78.697522 C 65.370099 78.934056 65.293239 79.176589 65.240979 79.427193 C 65.236459 79.449453 65.233444 79.472269 65.230644 79.494889 C 65.225294 79.540401 65.228703 79.585168 65.246663 79.629248 C 65.263223 79.671334 65.278212 79.713839 65.290072 79.758439 C 65.312042 79.841233 65.305504 79.921078 65.265784 79.998218 C 65.228484 80.07059 65.195066 80.14527 65.171216 80.22301 C 65.128016 80.366942 65.123057 80.510484 65.161397 80.656059 C 65.183767 80.74154 65.207348 80.827488 65.220308 80.914958 C 65.227308 80.960368 65.232699 81.005234 65.221859 81.051383 C 65.215529 81.077623 65.206039 81.101633 65.188269 81.121663 C 65.154479 81.15702 65.12895 81.19876 65.10507 81.242069 C 65.014322 81.404608 64.934714 81.572512 64.863224 81.744881 C 64.833884 81.815233 64.821757 81.890046 64.808447 81.964506 C 64.780677 82.123027 64.76244 82.282434 64.7361 82.440446 C 64.72043 82.535807 64.693872 82.627211 64.656002 82.715881 C 64.590091 82.871252 64.530398 83.028825 64.493738 83.194405 C 64.488738 83.215515 64.484847 83.236734 64.483919 83.258484 C 64.478399 83.39784 64.436967 83.527488 64.383667 83.652775 C 64.339019 83.75913 64.294969 83.865106 64.255509 83.972652 C 64.250939 83.983112 64.248799 83.99414 64.233289 83.99694 C 64.203059 84.0022 64.180485 84.021536 64.160425 84.043966 C 64.138365 84.069126 64.122318 84.098919 64.108748 84.129749 C 64.086928 84.181019 64.068467 84.26799 64.013147 84.26359 C 63.901109 84.254455 63.872109 84.079036 63.827629 83.971102 C 63.807649 83.922035 63.800408 83.87241 63.805408 83.81969 C 63.811768 83.747623 63.817709 83.676212 63.816777 83.603682 C 63.816477 83.527853 63.8074 83.453704 63.78267 83.381474 C 63.74455 83.265055 63.722967 83.144178 63.711357 83.022323 C 63.709557 83.006963 63.707272 82.991287 63.702572 82.976847 C 63.476943 82.250298 63.263013 81.52008 63.045764 80.790417 C 62.955568 80.487835 62.863287 80.186485 62.75896 79.888147 C 62.74543 79.849002 62.728578 79.810058 62.712968 79.771358 C 62.706438 79.752638 62.694098 79.738763 62.679378 79.725883 C 62.616697 79.674126 62.556362 79.618771 62.503162 79.555351 C 62.474432 79.52024 62.447287 79.484153 62.427197 79.443213 C 62.404242 79.395429 62.398757 79.348052 62.427197 79.299552 C 62.433347 79.289632 62.436483 79.277506 62.442183 79.266996 C 62.477843 79.184741 62.475492 79.103524 62.432882 79.024634 C 62.377042 78.920126 62.354316 78.807203 62.350716 78.689771 C 62.348516 78.626556 62.338187 78.565989 62.320227 78.506319 C 62.207139 78.13788 62.095312 77.769159 61.96676 77.406128 C 61.9407 77.331318 61.909437 77.256796 61.879427 77.182886 C 61.856887 77.126987 61.84312 77.069257 61.8262 77.011837 C 61.662248 76.45273 61.498157 75.893368 61.333724 75.33442 C 61.27166 75.123324 61.515976 75.150692 61.453097 74.940129 C 61.445737 74.917599 61.277907 75.040821 61.296517 75.024361 C 61.58855 74.763818 62.447612 73.943369 62.720719 73.661654 C 62.798886 73.581608 62.76491 72.094927 62.158997 72.421419 L 62.345549 70.865442 C 61.292935 72.782181 60.035729 74.841479 59.140576 75.4078 C 59.140576 75.4078 56.553256 75.926972 55.159424 75.961772 C 54.532473 75.977424 54.663192 75.568701 54.483496 75.536991 C 53.802092 75.571061 52.913947 75.99654 52.300684 76.132821 C 51.789631 75.826189 50.312864 74.824564 49.018197 74.517932 C 48.216518 73.851628 47.483067 74.078549 46.681388 73.964994 C 45.925785 73.857965 45.101734 73.399016 44.34613 73.18313 L 38.561987 75.073971 L 34.446476 76.965328 L 31.554146 76.297668 L 27.661361 75.185592 L 25.658899 75.185592 L 17.205151 73.294234 L 13.756783 73.961894 L 13.534574 72.404366 L 11.087179 71.403394 L 6.4151123 70.958459 L 3.3005737 69.512553 L 3.4121948 68.288855 L -0.036173503 67.398987 L -4.5971354 71.181185 L -4.7082397 150.04614 C -4.7082397 150.04614 -5.1717807 167.04127 -4.7268433 167.26369 C -4.2819056 167.48616 21.064441 169.11872 21.431767 170.402 C 22.13393 172.85505 25.788104 176.32402 31.89211 176.24402 C 37.391827 176.17189 45.36033 170.94194 48.462158 170.06817 C 58.416332 167.26413 65.814587 160.61345 65.814587 160.61345 L 80.052478 142.48226 L 91.84349 148.71134 L 101.076 161.94825 L 108.86209 172.40446 L 131.33152 169.84596 C 131.33152 169.84596 156.5875 155.62344 174.76091 143.19384 C 185.38446 135.92794 193.00224 127.84693 193.28949 127.3545 C 194.06813 126.01969 194.068 120.569 193.84553 119.5679 C 193.62306 118.56679 183.94536 112.11512 183.94536 112.11512 L 173.9346 99.879692 L 172.6706 100.84552 L 169.96172 104.18537 L 166.90144 107.23893 L 165.07778 108.32052 L 163.56314 110.62736 L 161.88573 110.73588 L 158.02756 110.86248 L 155.13575 111.44798 L 153.16533 111.87017 L 150.75514 112.31149 L 150.33088 110.93793 L 149.6689 111.03663 L 148.78678 109.14011 L 149.32629 108.02545 L 149.379 105.65402 L 148.85241 104.68767 L 149.595 102.78442 L 147.9057 101.3256 L 147.0365 101.25997 L 145.81952 102.26456 L 145.43815 103.86653 L 144.72657 103.85103 L 144.41547 103.2769 L 144.55862 101.2703 L 143.74006 100.74682 L 142.80627 101.61034 L 142.00994 98.989823 L 132.66632 88.42251 L 131.20801 85.096098 L 129.6386 84.931767 L 130.66438 84.195378 L 132.14025 84.101326 L 132.90713 83.221277 L 136.11314 83.249699 L 137.4774 81.007458 L 138.25719 81.19091 L 138.52591 81.852885 L 140.34182 80.80282 L 140.00799 79.523828 C 140.00799 79.523828 139.22949 77.298772 139.00702 76.742603 C 138.78455 76.186433 138.45059 75.96397 137.89443 75.4078 C 137.33826 74.851632 135.22482 72.515987 135.22482 72.515987 L 133.77891 69.401449 L 130.77548 68.288855 L 126.32614 67.843921 L 124.99134 67.843921 L 123.65653 66.954053 L 122.09901 64.395553 L 119.09609 63.172371 L 118.0946 62.393608 L 116.98252 59.501278 L 114.98006 58.500305 L 113.64526 57.165503 L 112.42156 53.93986 L 110.53072 51.937398 L 105.74755 49.712728 L 103.18957 49.823832 L 101.63204 50.7137 L 99.741199 51.826294 L 96.62666 50.825321 L 95.241215 50.897152 L 93.128166 49.762854 L 91.943225 49.095711 L 90.285962 48.266821 L 89.062781 47.265332 L 88.506226 46.375464 L 87.171423 46.26436 z M 62.345549 70.865442 C 62.977992 69.713804 63.255714 69.146381 63.51912 68.612349 C 63.084841 68.753544 62.626303 68.88305 62.547603 69.181307 L 62.345549 70.865442 z " /><path
       fill="#fef2db"
       stroke="#231f20"
       d="m 68.582993,66.413255 c -0.01454,-0.07045 -0.100553,-0.188448 -0.115166,-0.25828 -0.01699,-0.08026 0.01431,-0.246636 -1.1e-4,-0.326902 -0.0093,-0.05264 -0.04419,-0.155156 -0.07361,-0.197871 -0.01806,-0.02598 -0.08752,-0.04764 -0.09296,-0.07922 -0.0084,-0.05239 0.08783,-0.131652 0.103085,-0.182138 0.01422,-0.04958 0.03097,-0.160385 0.0107,-0.206881 -0.01175,-0.02557 -0.07283,-0.04198 -0.08643,-0.06659 -0.03072,-0.05525 0.0043,-0.201706 -0.02749,-0.257181 -0.01743,-0.02965 -0.100139,-0.04281 -0.108979,-0.07651 -0.0067,-0.02754 0.03499,-0.07691 0.04806,-0.101248 0.01666,-0.03004 0.07617,-0.08332 0.07166,-0.118147 -0.007,-0.0445 -0.09141,-0.09614 -0.129417,-0.113653 -0.03025,-0.01356 -0.09647,-0.01511 -0.128686,-0.01574 -0.03858,-9.7e-5 -0.120816,-0.0079 -0.152562,0.01489 -0.0235,0.01717 -0.0313,0.08972 -0.05286,0.110803 -0.01793,0.01867 -0.06918,0.03055 -0.09043,0.04347 -0.01678,0.01017 -0.04163,0.04441 -0.05849,0.05316 -0.02611,0.0154 -0.08707,0.02547 -0.115509,0.03469 -0.05457,0.01719 -0.160223,0.08465 -0.216009,0.07393 -0.0322,-0.0047 -0.0299,-0.02998 -0.05045,-0.05636 -0.0081,-0.01099 -0.01568,-0.02123 -0.02437,-0.03086 -0.03439,-0.03717 -0.07073,-0.0351 -0.101031,0.0055 -0.01894,0.02561 -0.03049,0.05392 -0.04037,0.0839 -0.02805,0.08399 -0.04491,0.171164 -0.06114,0.258445 -0.01136,0.05882 -0.02269,0.118163 -0.02041,0.17845 0.0016,0.03404 -0.0021,0.06679 -0.01062,0.09982 -0.01812,0.07095 -0.05057,0.136356 -0.07982,0.203058 -0.02903,0.06584 -0.07469,0.111901 -0.136882,0.144253 -0.08927,0.04741 -0.179009,0.09477 -0.269327,0.142153 -0.05381,0.02749 -0.110852,0.03756 -0.171144,0.02699 -0.02767,-0.0044 -0.05451,-0.01164 -0.08174,-0.0202 -0.01666,-0.0053 -0.02937,-0.01329 -0.04139,-0.02659 -0.0421,-0.04337 -0.08623,-0.08456 -0.130571,-0.125063 -0.04106,-0.03874 -0.08707,-0.05039 -0.139779,-0.03988 -0.09359,0.01843 -0.185701,0.04564 -0.281529,0.04485 -9.88e-4,-2.77e-4 -0.0027,1.83e-4 -0.0035,3.18e-4 -0.07533,0.0076 -0.14972,0.01759 -0.225302,0.0043 -0.07358,-0.01322 -0.147043,-0.03015 -0.219933,-0.04982 -0.0097,-0.003 -0.02312,-0.01328 -0.03155,-0.0027 -0.01173,0.01567 -0.0036,0.04033 -6.33e-4,0.06051 0.0046,0.02736 0.0026,0.05408 -0.0017,0.08213 -0.01671,0.111991 -0.0492,0.219814 -0.0833,0.327338 -0.03056,0.09525 -0.05727,0.192272 -0.102223,0.282557 -0.03836,0.07859 -0.03782,0.151603 0.0079,0.225494 0.0082,0.01413 0.01164,0.02752 0.0094,0.04416 -0.0048,0.03773 -0.0107,0.07531 -0.01578,0.113699 -0.01494,0.105974 -0.06506,0.190831 -0.141974,0.261854 -0.0705,0.06591 -0.123028,0.06404 -0.188302,-0.0063 -0.05331,-0.05631 -0.116741,-0.0511 -0.161186,0.0121 -0.02123,0.02989 -0.03447,0.0629 -0.04359,0.0978 -0.02993,0.110329 -0.04521,0.222778 -0.06293,0.335347 -0.01009,0.06232 -0.01422,0.126884 -0.0468,0.183628 -0.0065,0.01092 -0.01041,0.02406 -0.01205,0.03755 -0.0093,0.05876 -0.0207,0.11749 -0.03159,0.176152 -0.01526,0.08019 -0.02329,0.161826 -0.03646,0.242211 -0.09763,0.599349 -1.637872,0.551303 -1.788149,1.120828 l -0.388448,3.239807 c 0.605914,-0.326493 0.63996,1.160258 0.561793,1.240304 -0.273108,0.281716 -1.132122,1.102015 -1.424155,1.362558 -0.01861,0.01646 0.149091,-0.10663 0.156451,-0.0841 0.06288,0.210564 -0.181595,0.183549 -0.119531,0.394645 0.164433,0.558949 0.328563,1.117936 0.492516,1.677043 0.01692,0.05742 0.03063,0.115511 0.05317,0.17141 0.03001,0.07391 0.06136,0.14814 0.08742,0.22295 0.128552,0.363031 0.240105,0.731882 0.353193,1.100322 0.01796,0.05967 0.02847,0.119923 0.03067,0.183138 0.0036,0.117433 0.0262,0.230602 0.08204,0.33511 0.04261,0.07889 0.04496,0.159902 0.0093,0.242157 -0.0057,0.01051 -0.0088,0.02285 -0.01495,0.03277 -0.02844,0.0485 -0.02268,0.09601 2.75e-4,0.143794 0.02009,0.04094 0.04735,0.07699 0.07608,0.112101 0.0532,0.06342 0.113509,0.118826 0.17619,0.170583 0.01472,0.01288 0.02685,0.02672 0.03338,0.04544 0.01561,0.0387 0.03228,0.07761 0.04581,0.116755 0.104327,0.298338 0.196678,0.599841 0.286874,0.902424 0.217249,0.729663 0.431206,1.45965 0.656835,2.1862 0.0047,0.01444 0.0071,0.03004 0.0089,0.0454 0.01161,0.121856 0.03338,0.242723 0.0715,0.359142 0.02473,0.07223 0.03385,0.146344 0.03415,0.222174 9.32e-4,0.07253 -0.0052,0.143812 -0.01156,0.215879 -0.005,0.05272 0.002,0.102711 0.02198,0.151778 0.04448,0.107934 0.07371,0.283444 0.185748,0.29258 0.05532,0.0044 0.07399,-0.08266 0.09581,-0.133931 0.01357,-0.03083 0.02958,-0.06061 0.05164,-0.08577 0.02006,-0.02243 0.0423,-0.04209 0.07253,-0.04735 0.01551,-0.0028 0.01796,-0.01372 0.02253,-0.02418 0.03946,-0.107546 0.08355,-0.213604 0.128198,-0.319959 0.0533,-0.125287 0.09443,-0.255003 0.09995,-0.394359 9.28e-4,-0.02175 0.0047,-0.04281 0.0097,-0.06392 0.03666,-0.16558 0.09669,-0.323006 0.162601,-0.478377 0.03787,-0.08867 0.06406,-0.180029 0.07973,-0.27539 0.02634,-0.158012 0.04501,-0.317656 0.07278,-0.476177 0.01331,-0.07446 0.02506,-0.149133 0.0544,-0.219485 0.07149,-0.172369 0.151103,-0.340454 0.241851,-0.502993 0.02388,-0.04331 0.04933,-0.0849 0.08312,-0.120257 0.01777,-0.02003 0.02769,-0.04412 0.03402,-0.07036 0.01084,-0.04615 0.005,-0.09075 -0.002,-0.13616 -0.01296,-0.08747 -0.0361,-0.173424 -0.05847,-0.258905 -0.03834,-0.145575 -0.0334,-0.289343 0.0098,-0.433275 0.02385,-0.07774 0.05684,-0.152222 0.09414,-0.224594 0.03972,-0.07714 0.0466,-0.1571 0.02463,-0.239894 -0.01186,-0.0446 -0.02672,-0.08738 -0.04328,-0.129466 -0.01796,-0.04408 -0.02183,-0.08883 -0.01648,-0.134342 0.0028,-0.02262 0.006,-0.04499 0.01052,-0.06725 0.05226,-0.250604 0.129314,-0.493448 0.223953,-0.729982 0.06998,-0.175655 0.151687,-0.345937 0.230428,-0.517919 0.01575,-0.03457 0.02907,-0.06955 0.03883,-0.107043 0.04168,-0.159004 0.105358,-0.310392 0.164862,-0.463036 0.0043,-0.01 0.0094,-0.01639 0.01699,-0.02267 0.04132,-0.03658 0.0643,-0.08462 0.07943,-0.137402 0.02069,-0.0755 0.02422,-0.153895 0.03186,-0.23091 0.0093,-0.09826 0.0447,-0.181064 0.122763,-0.242099 0.03566,-0.02765 0.06971,-0.05668 0.105879,-0.0845 0.04732,-0.03672 0.07953,-0.08335 0.09968,-0.140153 0.01625,-0.04568 0.02657,-0.0928 0.02885,-0.140829 0.0073,-0.115997 0.02986,-0.226641 0.07289,-0.33532 0.03791,-0.09528 0.09518,-0.186781 0.103573,-0.28994 0.01268,-0.159467 -0.0757,-0.434109 -0.120049,-0.645943 -0.01312,-0.06279 -0.106496,-0.02763 -0.108124,-0.07479 -0.0044,-0.130035 0.134752,-0.334012 0.141895,-0.494208 0.02569,-0.575929 0.06459,-1.351773 0.158216,-2.032833 -0.04445,0.09431 -0.08875,0.188748 -0.133697,0.282984 -0.04426,0.09424 -0.08889,0.187764 -0.134363,0.280933 -0.0084,0.0178 -0.0097,0.0327 -0.0048,0.05191 0.01655,0.06411 0.02389,0.129527 0.02416,0.195115 1.87e-4,0.06348 -0.01094,0.126411 -0.03415,0.185893 -0.03666,0.09196 -0.05751,0.187568 -0.06512,0.285427 -0.02966,0.02017 -0.05902,0.0403 -0.08806,0.06074 -0.115804,0.0814 -0.230815,0.166083 -0.349841,0.243713 -0.0097,0.0064 -0.01818,0.01442 -0.02579,0.02392 -0.08854,0.115511 -0.206811,0.175727 -0.348663,0.18514 -0.06946,0.0048 -0.13674,0.02125 -0.205174,0.03389 -0.08766,0.0158 -0.175846,0.03436 -0.265796,0.02652 -0.05368,-0.0046 -0.107118,-0.0097 -0.160943,-0.0126 -0.106928,-0.0067 -0.213702,-0.0084 -0.320704,0.0039 -0.03305,0.0044 -0.06361,0.01346 -0.09254,0.03172 -0.02617,0.01842 -0.05505,0.03275 -0.08191,0.04998 -0.01538,0.01009 -0.02861,0.0086 -0.04143,-0.0028 -0.0076,-0.007 -0.0151,-0.01418 -0.02208,-0.02333 -0.04645,-0.0609 -0.09225,-0.123455 -0.140388,-0.184772 -0.02947,-0.03706 -0.03352,-0.07761 -0.01895,-0.121429 0.0056,-0.01556 0.01247,-0.03092 0.02053,-0.04617 0.05788,-0.107193 0.114548,-0.214517 0.176658,-0.319726 0.02903,-0.04919 0.03947,-0.105252 0.04922,-0.160016 0.01424,-0.07944 0.02418,-0.159147 0.02729,-0.240033 2.48e-4,-0.01591 0.0043,-0.03044 0.01051,-0.04555 0.05032,-0.123622 0.113329,-0.242309 0.178536,-0.358591 0.0085,-0.01656 0.02293,-0.02694 0.03784,-0.0377 0.06391,-0.04805 0.131738,-0.09166 0.198953,-0.135855 0.117201,-0.07652 0.233921,-0.152874 0.350446,-0.229676 0.04596,-0.0304 0.0994,-0.04212 0.149905,-0.06172 0.0073,-0.0025 0.01277,2.18e-4 0.01566,0.0084 0.0087,0.02149 0.02492,0.03484 0.04582,0.04256 0.02074,0.0088 0.02525,0.0269 0.02671,0.04674 0.0012,0.01209 0.0011,0.02356 1.91e-4,0.03506 0.02535,0.0031 0.08439,0.01009 0.09396,0.0056 0.01052,-0.0053 0.01088,-0.0299 0.02253,-0.0309 0.01568,-0.0017 0.03072,0.02745 0.04558,0.03231 0.0078,0.0028 0.03267,0.0029 0.04061,2.66e-4 0.0092,-0.0024 0.01711,-0.01833 0.02706,-0.01741 0.007,-2.12e-4 0.0037,1.12e-4 0.0093,0.0047 0.03303,0.02857 0.04387,-0.0046 0.04387,-0.0046 -0.001,-0.01663 -0.0093,-0.04117 -0.0025,-0.05644 0.0079,-0.01785 0.05031,-0.02663 0.05863,-0.04394 0.0062,-0.01282 -0.0067,-0.04159 -8.82e-4,-0.05506 0.0069,-0.01516 0.04522,-0.03389 0.04783,-0.05052 0.0029,-0.01703 -0.03041,-0.06235 -0.03389,-0.07867 -0.0038,-0.01468 -0.0049,-0.02376 -0.0016,-0.03828 0.0024,-0.0081 0.02124,-0.02957 0.024,-0.03781 0.0019,-0.01102 -0.0094,-0.03084 -0.0055,-0.0414 0.0044,-0.01215 0.02872,-0.03629 0.0329,-0.04855 0.0061,-0.01832 -0.0025,-0.07264 -0.01017,-0.08944 -0.004,-0.0086 -0.02074,-0.0016 -0.02251,-0.01113 -0.0014,-0.01387 0.01922,-0.02188 0.01922,-0.02188 l 0.01675,-0.07356 c 0,0 -0.01157,-0.02369 -0.01535,-0.03165 -0.003,-0.0052 -0.0083,-0.01589 -0.01302,-0.01978 -0.0072,-0.007 -0.02535,-0.01265 -0.03409,-0.01532 -0.01017,-0.0017 -0.02933,-0.0031 -0.03912,-0.0039 -0.0081,-0.0014 -0.03061,-0.0046 -0.03061,-0.0046 0,0 -0.0075,-0.05176 -0.0097,-0.06808 -0.0017,-0.01515 -0.0052,-0.04437 -0.0082,-0.05959 -0.0035,-0.01816 -0.0086,-0.05704 -0.01912,-0.07156 -0.007,-0.0089 -0.02606,-0.02387 -0.03659,-0.02379 -0.01768,6.7e-4 -0.04739,0.02781 -0.05893,0.04175 -0.01017,0.0127 -0.0287,0.04383 -0.02766,0.05983 6.5e-5,0.01727 0.02588,0.04224 0.02984,0.05777 0.0046,0.01764 0.0027,0.07217 0.0027,0.07217 l 0.0063,0.05769 c -0.02908,0.01062 -0.05231,0.02287 -0.08089,0.0389 -0.04364,0.02367 -0.07814,0.02609 -0.122977,0.01506 -0.09891,-0.02522 -0.193781,-0.06005 -0.28693,-0.09928 -0.01535,-0.0064 -0.02917,-0.01399 -0.04169,-0.02661 -0.0093,-0.009 -0.02041,-0.01564 -0.03116,-0.02263 -0.04483,-0.02469 -0.08804,-0.01559 -0.119284,0.02641 -0.0052,0.0058 -0.0092,0.01269 -0.013,0.02021 -0.04357,0.07559 -0.108889,0.111341 -0.193197,0.110532 -0.04363,-5.17e-4 -0.08709,-0.0041 -0.13012,-0.0077 -0.02115,-0.001 -0.03165,-0.01471 -0.03578,-0.03396 -0.0047,-0.02013 -0.0053,-0.04057 -0.0051,-0.0607 2.47e-4,-0.02748 0.0037,-0.05562 -0.0038,-0.08249 -0.0038,-0.01324 0.001,-0.02059 0.01062,-0.02745 0.01443,-0.01101 0.03021,-0.01828 0.04644,-0.02561 0.0503,-0.02106 0.102078,-0.03734 0.154969,-0.04806 0.04359,-0.0089 0.06281,-0.03813 0.07095,-0.07828 0.0083,-0.04026 -2.99e-4,-0.0789 -0.01609,-0.116097 -0.02552,-0.06268 -0.06177,-0.118652 -0.10831,-0.166781 -0.0329,-0.03413 -0.037,-0.06972 -0.02762,-0.11152 0.01539,-0.06385 0.02887,-0.128867 0.06349,-0.185905 0.01124,-0.01862 0.0082,-0.03943 0.0066,-0.05982 -0.0051,-0.05925 -0.01199,-0.119201 -0.01873,-0.178593 -0.0077,-0.07226 -0.01559,-0.143192 -0.01587,-0.215405 -9.68e-4,-0.08886 -0.01994,-0.175714 -0.03985,-0.262504 -0.01452,-0.06281 -0.03093,-0.125808 -0.06406,-0.182193 -0.0122,-0.02271 -0.0104,-0.04603 -8.78e-4,-0.06932 0.0086,-0.01996 0.02074,-0.03777 0.03498,-0.05416 0.02476,-0.02731 0.05184,-0.05216 0.08086,-0.07456 0.03423,-0.0255 0.05881,-0.05861 0.07685,-0.09691 0.03596,-0.07932 0.0537,-0.160751 0.03589,-0.248524 -0.01027,-0.04767 -0.01651,-0.09667 -0.02612,-0.144699 -0.0034,-0.01963 -0.0033,-0.03789 0.0035,-0.05688 0.02061,-0.05658 0.04834,-0.109149 0.08308,-0.158323 0.0055,-0.0058 0.01017,-0.01362 0.01678,-0.01826 0.0282,-0.01554 0.03787,-0.04421 0.04619,-0.07298 0.02194,-0.07438 0.03562,-0.151857 0.05391,-0.227289 0.0046,-0.01999 0.01105,-0.03961 0.02025,-0.05704 0.01468,-0.0297 0.02378,-0.06015 0.02338,-0.09389 -5.14e-4,-0.01182 0.0024,-0.02039 0.01009,-0.02914 0.02404,-0.0281 0.04782,-0.0561 0.0788,-0.07701 0.02543,-0.01713 0.05053,-0.03564 0.07712,-0.05027 0.136366,-0.0768 0.256377,-0.178823 0.383222,-0.26972 0.01992,-0.01469 0.036,-0.03403 0.05451,-0.05142 0.02221,-0.02142 0.04342,-0.04364 0.06623,-0.06459 0.02058,-0.01979 0.02957,-0.01918 0.05079,0.001 0.01643,0.01561 0.03198,0.0316 0.0483,0.04732 0.02325,0.02301 0.04855,0.04463 0.07149,0.06938 0.07822,0.08191 0.174284,0.102576 0.281911,0.08429 0.05732,-0.0097 0.115745,-0.02144 0.174404,-0.02539 0.0223,-0.0012 0.04466,6e-4 0.06676,0.0025 0.05771,0.007 0.09794,0.03827 0.118926,0.09315 0.0249,0.06688 0.03772,0.136141 0.03918,0.208017 7.64e-4,0.04876 -0.0063,0.09768 0.0025,0.1471 0.0062,0.03286 0.01099,0.06676 0.02583,0.09691 0.02281,0.04871 0.05281,0.06235 0.103106,0.04285 0.07674,-0.03087 0.153561,-0.03022 0.230573,-0.0011 0.07477,0.02778 0.151066,0.05154 0.228931,0.06905 -5.82e-4,0.004 -0.0011,0.0082 -0.0017,0.01268 0.0016,-0.003 0.0035,-0.0069 0.0052,-0.01062 0.0083,-0.01451 0.0021,-0.02163 0.0072,-0.03764 0.05928,-0.187485 -0.03569,-0.532195 0.03758,-0.693248 0.05591,-0.122871 0.05768,-0.322396 0.04698,-0.424641 -0.0021,0.01337 0.03012,-0.121529 0.03516,-0.108068 0.0088,-0.01051 0.01716,-0.02287 0.02836,-0.03166 0.03629,-0.03266 0.06793,-0.06911 0.09164,-0.112455 0.02009,-0.03762 0.04987,-0.05376 0.09072,-0.05763 0.04597,-0.0033 0.08961,-0.01751 0.132672,-0.0337 0.0188,-0.0069 0.037,-0.01565 0.05243,-0.02885 0.02341,-0.01977 0.02694,-0.04449 0.01143,-0.06603 0.05974,-0.0122 0.124901,-0.02669 0.16438,-0.04389 0.03199,-0.01328 0.08984,-0.0548 0.119393,-0.07282 0.0455,-0.02766 0.141033,-0.07765 0.181607,-0.113351 0.02966,-0.02596 0.07762,-0.09023 0.101394,-0.122543 0.05258,-0.07142 0.168374,-0.213021 0.1948,-0.300342 0.01829,-0.06102 -0.01535,-0.195722 0.0043,-0.256454 0.0088,-0.02563 0.05392,-0.06025 0.06237,-0.08601 0.0044,-0.0141 -0.0086,-0.0492 6.31e-4,-0.06051 0.01586,-0.01772 0.07472,0.01017 0.09058,-0.0075 0.03768,-0.04361 0.01618,-0.180358 0.0045,-0.238983 z"
       id="path5"
       style="display:inline;fill:#e5dd49;fill-opacity:0.8607595;stroke:none;stroke-width:0.0331829"
       inkscape:label="hebrew"
       sodipodi:nodetypes="ccccccccccccccccccccccccccccccccccccccccccccccccccccccccccccccccccccccccccccccccccccccccccccccccccccccccccccccccccccccccsccccccccccccccccccscccsccccccccccccccccccccccccccccccccccccccccccccccccccccccccccccccccccccccccccccccccccccccccccscccccccccccccccsccccccccccccccccccc" /></g><g
     inkscape:groupmode="layer"
     id="layer2"
     inkscape:label="Turkic"><path
       id="path1"
       style="display:inline;opacity:1;fill:#8787de;fill-opacity:0.469027;stroke:none;stroke-width:0.264583px;stroke-linecap:butt;stroke-linejoin:miter;stroke-opacity:0.867089"
       d="m 27.374459,13.771864 c -1.070501,-0.01573 -2.284877,0.215006 -3.328996,0.505396 -0.959201,0.820546 -2.368578,1.126786 -3.140893,2.094446 -1.137342,1.179898 -0.792492,2.860159 -0.304374,4.264855 0.240357,1.372461 0.410918,3.077756 -0.52865,4.232817 -0.442687,0.902963 -2.380775,1.437108 -1.606621,2.532662 0.914253,0.652892 2.300673,-0.08927 3.405477,0.0047 0.612914,0.06646 -1.796543,0.684974 -2.259837,1.247549 l 2.37766,-0.470229 2.057755,-0.690504 1.362708,-1.195792 0.333829,-0.556039 0.444934,-0.250114 1.028878,-0.08372 0.583944,0.222726 0.583944,-0.13901 0.556038,-0.444934 1.473812,0.13901 0.973584,0.500228 1.418001,-0.111105 1.306897,0.111105 1.307414,1.001489 -0.47284,0.361218 -1.362707,0.166915 -0.750859,0.222725 -0.500744,0.250114 0.02791,0.194821 0.611849,0.305924 1.000972,0.111104 -1.084171,0.33383 -0.584461,-0.111621 -0.305407,0.111621 -0.889868,-0.222725 -1.946652,0.111104 -0.778763,-0.528133 -1.306897,-0.222726 -0.47284,0.222726 0.500228,0.305924 c 0,0 0.473098,0.305694 0.250631,0.389124 -0.222469,0.08342 -0.47284,0.13901 -0.47284,0.13901 h -1.112593 l -0.389124,-0.13901 -0.611849,-0.639238 -0.333829,0.0832 -1.084172,0.333829 -0.79042,-0.08143 -3.239668,0.502611 -0.678152,2.62308 c -0.22564,1.151171 -0.464923,2.473402 1.168921,2.006596 1.092673,0.428257 2.138728,1.57128 1.920296,2.797762 0.402109,1.87526 -1.000634,0.918128 -2.062923,0.495577 -0.321859,0.543208 0.04971,2.173578 -0.329179,3.116605 1.314205,0.22764 2.698058,0.23312 3.841626,1.00563 2.041432,0.33327 -0.706713,1.3758 0.763778,2.23139 0.150267,1.27906 2.041214,1.41546 0.478524,2.4262 -0.248768,0.74137 1.969661,0.47965 2.740401,0.66405 1.687335,-0.58663 1.104231,1.28453 1.598869,1.71204 1.071187,-0.1262 2.205503,-0.98775 3.233911,-0.61754 1.308718,0.36767 2.10182,1.37369 2.83807,2.44947 1.479529,0.21253 2.97041,0.62174 4.397664,-0.0455 1.121883,-0.33061 2.230639,0.587 2.165759,-1.21181 0.231717,-1.19297 0.391394,-2.49183 1.904794,-1.79783 2.068696,0.0961 4.036426,1.01478 5.859073,1.84692 0.592409,1.41509 2.098036,1.71414 3.357935,2.31355 1.276148,0.0414 2.57991,-0.71533 3.913456,-0.42891 1.192985,0.55761 1.82992,-2.11804 2.626713,-0.47956 1.039952,-0.79419 1.638842,-2.4434 3.070614,-2.4784 1.837746,-0.62818 3.654704,1.26956 5.406905,0.21963 0.916203,-0.58731 1.583401,-1.99435 2.685624,-0.81701 0.245823,0.98802 -1.256694,1.76642 -1.975073,2.44688 0.110918,0.79308 0.73767,1.527812 2.537903,0.929435 0.955475,-0.45978 2.327551,-0.258135 3.074674,-0.942875 0.880905,-1.65992 1.162488,-3.771 2.907316,-4.78058 1.160111,-1.2975 2.785948,-1.78962 4.378028,-2.33939 2.213194,-1.64496 4.3371,-3.475642 6.192903,-5.539204 1.240963,-1.16083 2.351327,-2.414106 2.942973,-4.033862 0.963961,-0.386187 2.130717,-0.694122 2.910417,-1.599903 0.81309,-1.168541 2.195078,-0.380508 3.326929,-0.593762 1.622916,-0.02227 1.109931,-1.143639 1.779219,-2.079459 1.346948,-1.544649 2.089173,-3.418842 2.782253,-5.320089 0.14678,-0.826407 1.459,-2.717703 0.80977,-2.816882 -0.97835,0.115668 -2.171175,0.430415 -2.912995,0.991154 -0.562783,0.425404 -0.699086,1.050645 -1.248502,1.5012 -2.054424,1.129349 -4.351838,1.855962 -6.499345,2.830835 -1.748594,0.230093 -3.370939,-0.381261 -5.030184,-0.713135 -2.173212,0.513814 -4.479618,0.642455 -6.681246,0.641821 -0.36778,-0.466702 -1.002956,-0.817054 -1.46606,-0.799434 -0.598979,0.02279 -1.01622,0.476032 -1.295012,0.162781 -1.137807,-0.09292 -2.127447,-0.483975 -2.9099,-1.337386 -1.155282,-0.285959 -1.907388,0.945833 -2.91455,0.0093 -0.610019,-0.638865 -0.638851,-2.508873 -2.016932,-1.872754 -1.133962,0.540746 -2.228502,0.618108 -3.246313,-0.205155 -0.232179,-0.314117 -0.186688,-0.948601 -0.453719,-1.282609 -0.433483,-0.542209 -1.240863,-0.61421 -2.043286,0.364319 -2.385664,-0.161211 -4.777823,-0.190851 -7.166488,-0.292489 -1.800301,0.274835 -3.686332,0.586992 -5.354712,1.368909 -1.602461,0.814587 -3.499058,1.395434 -4.917529,2.356445 -0.21329,1.014565 -1.959186,1.122348 -2.87321,0.893486 -1.069339,-0.0037 -2.376622,-1.020922 -3.242179,-0.15503 -2.222496,-0.333367 -4.536307,-0.227493 -6.692098,-0.882116 -1.32371,-0.595101 -3.561286,-0.545147 -3.840076,-2.299085 0.03767,-1.421992 -1.09291,-2.548768 -2.18643,-3.203939 -1.63706,-0.645241 -0.798636,-0.788435 0.09457,-1.481046 1.461046,0.01255 0.885287,-1.739987 1.222665,-2.701127 z"
       sodipodi:nodetypes="ccccccccccccccccccccccccccccccccccccccsccccccccccccccccccccccccccccccccccccccccccsccccscccccscccccccccccc" /><path
       style="fill:#6a70c8;fill-opacity:0.525316;stroke:none;stroke-width:0.264583px;stroke-linecap:butt;stroke-linejoin:miter;stroke-opacity:1"
       d="m 134.72615,21.719566 3.38215,3.932732 1.80906,1.33713 4.56197,1.258475 -0.0787,1.573094 -2.91022,0.235963 -1.41578,-0.07865 -0.7079,0.314618 -1.10116,2.595605 0.31462,1.494438 -1.10117,0.314619 -2.04502,2.438294 -1.7304,1.809057 0.39327,0.943846 -1.57309,1.96637 -0.31462,1.41579 0.15731,1.41578 4.40466,2.5956 2.51695,1.88771 0.15731,1.49445 -0.70789,0.62923 -4.01139,0.62924 -1.41578,0.55058 -1.36414,-0.05082 -2.01801,-1.443617 -2.51695,-0.94385 -2.91023,-0.55059 -1.41578,-1.49442 -1.17344,-1.264856 -2.49852,-2.565133 0.0907,-1.585145 -1.67018,-0.581048 -0.57467,-0.562625 0.60515,-0.683809 -0.44145,-1.040215 -0.90135,-1.149358 -0.47831,-0.460598 0.2721,-2.709677 -4.9337,-4.318707 3.07541,0.591575 1.1643,0.408431 0.35935,0.063 0.40768,0.247984 0.33478,0.359687 0.10714,0.82084 1.51992,1.480555 3.48156,2.185443 1.33219,-0.719938 3.06753,-2.280984 1.33713,-2.123678 -1.96637,-1.573091 -0.94386,-2.988879 h -2.5956 l -3.27542,0.985913 -3.25292,-1.457839 -0.39327,-3.224842 -0.55058,-1.573094 -2.04502,-2.280983 -3.22485,-0.07866 0.62924,-2.831568 4.09004,0.865201 1.25848,0.943856 1.7304,0.707893 3.61812,0.471926 1.7304,1.33713 1.96637,1.573094 -0.0787,-0.550582 1.49444,-1.573094 c 0,0 3.06753,1.258475 3.22484,1.573094 0.15731,0.314619 4.01139,0.629237 4.01139,0.629237 z"
       id="path11"
       sodipodi:nodetypes="ccccccccccccccccccccccccccccccccccccccccccccccccccccccccccccccccccccscc" /><path
       style="fill:#9f9ec6;stroke:none;stroke-width:0.264583px;stroke-linecap:butt;stroke-linejoin:miter;stroke-opacity:1;fill-opacity:0.42088607;opacity:1"
       d="m 57.544609,53.626535 5.212744,-1.465022 -0.30663,1.465022 -2.112354,1.49909 -1.839794,0.476982 h -0.579191 -0.408845 l -0.306631,0.06814 h -0.408842 l -0.408845,-0.102211 -0.23849,-0.306631 -0.306633,-0.204422 -0.442913,0.136281 -0.545124,0.06814 -0.374771,0.20442 -0.545124,0.136281 -0.408842,-0.03407 -0.374772,-0.170352 -0.647335,-1.328737 c 0,0 -0.204422,-0.817687 0.340702,-0.988037 0.545123,-0.170352 4.70169,0.545124 4.70169,0.545124 z"
       id="path4" /></g><g
     inkscape:groupmode="layer"
     id="layer4"
     inkscape:label="IndoEuropean"><path
       id="path12"
       style="fill:#d25646;fill-opacity:0.389241;stroke:none;stroke-width:0.262629;stroke-linecap:butt;stroke-linejoin:miter;stroke-dasharray:none;stroke-opacity:1"
       d="m 101.69447,22.724873 c -0.0182,0.09821 -0.26409,-0.386764 -0.40263,-0.115188 -0.0608,0.119144 -0.16746,0.528727 -0.24588,0.671835 -0.33004,0.602298 -0.72253,1.822678 -1.16867,2.601597 -0.806567,1.408182 -1.639848,2.715308 -1.639848,2.715308 l -0.762211,1.805744 c 0,0 -1.859786,-0.03132 -2.929794,0.03028 -0.501428,0.02887 -0.615909,0.252638 -0.871388,0.247203 l -0.946512,0.9176 -1.875103,0.962118 -0.540188,0.172729 -0.09917,0.561114 -3.778271,4.916725 -5.134195,3.935601 -3.182695,1.346948 c -0.357737,0.0511 -2.471279,2.099495 -2.471279,2.099495 l -1.807225,3.83168 0.943151,-0.376299 0.500528,-0.4412 c 0,0 2.72896,1.51145 3.874997,2.060593 l 3.198023,-3.086678 4.299427,-0.44095 0.661175,-0.881909 1.322862,0.110106 0.551576,0.881909 1.064742,0.871157 5.006183,2.656471 h 1.42529 l 3.08668,0.992531 1.873925,-1.102637 1.54359,-0.88191 2.53561,-0.110106 4.73987,2.204769 1.87444,1.984031 1.21224,3.197299 1.32286,1.32286 1.98455,0.992025 1.10213,2.866456 0.99253,0.771278 2.97656,1.212753 1.54308,2.535612 1.32286,0.88191 0.43133,0.104887 2.43482,0.210267 2.84878,0.265645 1.57784,0.528666 0.87167,-4.908459 -1.99108,-2.705206 -0.61969,-1.357821 -0.15814,-0.916064 -0.23037,-0.284427 0.9355,-1.320948 0.3524,-0.617683 0.7945,-3.202519 -0.63324,-1.119612 -0.88141,-1.019676 -0.83991,-0.371299 -2.49464,-0.935168 -2.88437,-0.545942 -0.72645,-0.948369 -0.67631,-0.532237 -1.09138,-1.325426 -2.41679,-2.494632 0.0784,-1.558968 -1.71517,-0.623274 -0.54542,-0.545942 0.62327,-0.701637 -0.38974,-0.935168 -0.85732,-1.091371 -0.54543,-0.623788 0.23353,-2.494129 0.0642,-0.191499 -0.76592,-0.655356 -4.0629,-3.514671 -1.49273,-0.939138 c 0,0 -3.39379,-4.324395 -4.1888,-5.071225 -0.57819,-0.409552 -2.76965,-1.804115 -4.14285,-2.478671 z"
       sodipodi:nodetypes="csssccscccccccccccccccccccccccccccccccccccccccccccccccccccccccccccccccccccccc" /><path
       style="fill:#d84341;fill-opacity:0.469027;stroke:none;stroke-width:0.264583px;stroke-linecap:butt;stroke-linejoin:miter;stroke-opacity:1"
       d="m 132.09463,53.522115 c 0.0412,-0.111765 -0.0726,-0.240223 -0.11199,-0.359447 -0.099,-0.29996 -0.27135,-0.586866 -0.32114,-0.736146 -0.0215,-0.06438 -0.19502,-0.158759 -0.16236,-0.240211 0.049,-0.122158 0.23759,0.153877 0.47307,0.198932 0.4771,0.09128 1.14662,0.107137 1.23713,0.0524 0.25521,-0.154339 1.22169,-0.447491 1.60755,-0.551111 1.67105,-0.448747 4.06449,-0.297147 4.28067,-0.950537 0.0525,-0.158599 0.26747,-0.130243 0.33821,-0.288301 0.0315,-0.07038 -0.1532,-1.38601 -0.17522,-1.473064 -0.0214,-0.0845 -0.26651,-0.291248 -0.60883,-0.550816 -1.17519,-0.891084 -3.86325,-2.58837 -5.76838,-3.695249 -0.18459,-0.107245 -0.30151,-0.103849 -0.43573,-0.246836 -0.13423,-0.142999 -0.0863,-0.51132 -0.1418,-0.683615 -0.1986,-0.616865 0.0927,-1.699093 0.14295,-1.957327 0.11893,-0.610947 1.05054,-1.285415 1.58305,-2.140076 0.20955,-0.336321 -0.31489,-0.552712 -0.25331,-0.91549 0.0446,-0.262588 0.68747,-0.693417 0.74151,-0.863049 4.50211,2.07856 7.723,4.212958 12.33987,5.953985 l 11.45665,0.916533 c 2.22266,1.307302 3.87629,4.69976 6.77617,3.525399 l 8.7427,-1.359975 c 0.94137,-1.872291 -4.28498,-1.036188 -1.00161,-1.741377 3.73531,-0.676471 7.67841,-2.514963 10.93884,0.406949 3.85654,1.694113 7.2716,4.117136 10.44385,6.860297 4.11391,1.932823 0.15039,6.609467 0.81233,10.060657 -0.72125,3.394521 1.95684,6.004092 2.52478,9.142812 0.13834,3.161544 0.1055,6.551912 -0.54939,9.525644 l -8.73264,4.602339 c -1.70169,1.919928 -1.84298,7.369531 -4.75855,6.593656 -3.44123,-0.417107 -5.69176,3.87357 -8.71925,5.26336 -3.01321,1.862626 -5.97603,4.949739 -9.07119,5.975769 -8.68424,-4.460546 -17.36849,-8.921089 -26.05274,-13.381636 l 0.78195,-9.65418 -0.68869,-2.030054 c 0,0 -1.04004,-2.679625 -2.12275,-3.581885 l -2.2721,-2.588976 -1.67306,-3.298044 -1.60514,-0.496822 0.91195,-5.034939 -0.26894,-0.413811 c -0.59234,-0.560189 -1.31886,-1.413618 -1.63151,-2.067036 -0.39914,-0.823568 -0.48787,-0.429069 -0.91772,-2.225968 0.0283,-0.0472 0.0282,-0.223517 -0.0703,-0.327611 -0.15863,-0.167612 -0.14121,-0.119844 0.18079,-0.609259 0.3349,-0.509028 0.54807,-0.759465 0.69256,-0.956927 0.0873,-0.119248 0.14949,-0.219176 0.19835,-0.345069 0.29443,-0.75856 0.40644,-1.498478 0.55873,-2.019704 0.1662,-0.568842 0.22293,-0.766097 0.22293,-0.766097 z"
       id="path2"
       sodipodi:nodetypes="cssssssssssssssssccccccccccccccccccccccccccssssscc" /></g><image
     width="289.15781"
     height="202.09052"
     preserveAspectRatio="none"
     xlink:href="Satellite_relief_map_of_Middle_East_mask.png"
     id="seas"
     x="-49.57336"
     y="-13.334426"
     style="stroke:none"
     inkscape:svg-dpi="1" /><g
     inkscape:groupmode="layer"
     id="layer5"
     inkscape:label="LanguageText"
     style="display:inline"><text
       xml:space="preserve"
       style="font-weight:500;font-stretch:condensed;font-size:14.8477px;line-height:0.75;font-family:'Univers 57 Condensed';-inkscape-font-specification:'Univers 57 Condensed,  Medium Condensed';opacity:0.566092;fill:#ffffff;fill-opacity:0.996835;stroke:none;stroke-width:1.11533;stroke-linecap:square;stroke-linejoin:bevel;stroke-miterlimit:3.6;stroke-dasharray:none;stroke-opacity:1;paint-order:stroke markers fill"
       x="27.399137"
       y="39.59766"
       id="text28"><tspan
         sodipodi:role="line"
         id="tspan28"
         style="font-style:normal;font-variant:normal;font-weight:normal;font-stretch:normal;font-family:Signika;-inkscape-font-specification:Signika;fill:#ffffff;fill-opacity:0.996835;stroke:none;stroke-width:1.11533"
         x="27.399137"
         y="39.59766">turkiska</tspan></text><text
       xml:space="preserve"
       style="font-weight:500;font-stretch:condensed;font-size:17.4527px;line-height:0.75;font-family:'Univers 57 Condensed';-inkscape-font-specification:'Univers 57 Condensed,  Medium Condensed';opacity:0.566092;fill:#ffffff;fill-opacity:0.996835;stroke:none;stroke-width:4.16421;stroke-linecap:square;stroke-linejoin:bevel;stroke-miterlimit:3.6;stroke-dasharray:none;stroke-opacity:1;paint-order:stroke markers fill"
       x="48.458576"
       y="103.64036"
       id="text29"><tspan
         sodipodi:role="line"
         id="tspan29"
         style="font-style:normal;font-variant:normal;font-weight:normal;font-stretch:normal;font-size:17.4527px;font-family:Signika;-inkscape-font-specification:Signika;fill:#ffffff;fill-opacity:0.996835;stroke:none;stroke-width:4.16421"
         x="48.458576"
         y="103.64036">arabiska</tspan></text><text
       xml:space="preserve"
       style="font-weight:500;font-stretch:condensed;font-size:7.39697px;line-height:0.75;font-family:'Univers 57 Condensed';-inkscape-font-specification:'Univers 57 Condensed,  Medium Condensed';opacity:0.566092;fill:#ffffff;fill-opacity:0.996835;stroke:none;stroke-width:0.555646;stroke-linecap:square;stroke-linejoin:bevel;stroke-miterlimit:3.6;stroke-dasharray:none;stroke-opacity:1;paint-order:stroke markers fill"
       x="83.514046"
       y="47.638073"
       id="text30"
       inkscape:label="kurdiska"><tspan
         sodipodi:role="line"
         id="tspan30"
         style="font-style:normal;font-variant:normal;font-weight:normal;font-stretch:normal;font-family:Signika;-inkscape-font-specification:Signika;fill:#ffffff;fill-opacity:0.996835;stroke:none;stroke-width:0.555646"
         x="83.514046"
         y="47.638073">kurdiska</tspan></text><text
       xml:space="preserve"
       style="font-weight:500;font-stretch:condensed;font-size:17.4527px;line-height:0.75;font-family:'Univers 57 Condensed';-inkscape-font-specification:'Univers 57 Condensed,  Medium Condensed';opacity:0.566092;fill:#ffffff;fill-opacity:0.996835;stroke:none;stroke-width:4.16421;stroke-linecap:square;stroke-linejoin:bevel;stroke-miterlimit:3.6;stroke-dasharray:none;stroke-opacity:1;paint-order:stroke markers fill"
       x="146.72914"
       y="81.257217"
       id="text2"><tspan
         sodipodi:role="line"
         style="font-style:normal;font-variant:normal;font-weight:normal;font-stretch:normal;font-size:17.4527px;font-family:Signika;-inkscape-font-specification:Signika;fill:#ffffff;fill-opacity:0.996835;stroke:none;stroke-width:4.16421"
         x="146.72914"
         y="81.257217"
         id="tspan4">farsi</tspan></text><text
       xml:space="preserve"
       style="font-weight:500;font-stretch:condensed;font-size:5.68454px;line-height:0.75;font-family:'Univers 57 Condensed';-inkscape-font-specification:'Univers 57 Condensed,  Medium Condensed';opacity:0.566092;fill:#ffffff;fill-opacity:0.996835;stroke:none;stroke-width:0.427012;stroke-linecap:square;stroke-linejoin:bevel;stroke-miterlimit:3.6;stroke-dasharray:none;stroke-opacity:1;paint-order:stroke markers fill"
       x="107.45888"
       y="-45.307976"
       id="text3"
       inkscape:label="kurdiska"
       transform="rotate(33.508845)"><tspan
         sodipodi:role="line"
         id="tspan3"
         style="font-style:normal;font-variant:normal;font-weight:normal;font-stretch:normal;font-family:Signika;-inkscape-font-specification:Signika;fill:#ffffff;fill-opacity:0.996835;stroke:none;stroke-width:0.427012"
         x="107.45888"
         y="-45.307976">azerbajdzjanska</tspan></text><text
       xml:space="preserve"
       style="font-weight:500;font-stretch:condensed;font-size:5.29167px;line-height:0.75;font-family:'Univers 57 Condensed';-inkscape-font-specification:'Univers 57 Condensed,  Medium Condensed';opacity:0.566092;fill:#ffffff;fill-opacity:0.996835;stroke:none;stroke-width:4.16421;stroke-linecap:square;stroke-linejoin:bevel;stroke-miterlimit:3.6;stroke-dasharray:none;stroke-opacity:1;paint-order:stroke markers fill"
       x="63.692291"
       y="70.457687"
       id="text6"><tspan
         sodipodi:role="line"
         id="tspan6"
         style="font-style:normal;font-variant:normal;font-weight:normal;font-stretch:normal;font-size:5.29167px;font-family:Signika;-inkscape-font-specification:Signika;text-align:end;text-anchor:end;fill:#ffffff;fill-opacity:0.996835;stroke:none;stroke-width:4.16421"
         x="63.692291"
         y="70.457687">hebreiska</tspan></text><path
       style="fill:#ed4f71;fill-opacity:0.512658;stroke:none;stroke-width:0.264583px;stroke-linecap:butt;stroke-linejoin:miter;stroke-opacity:1"
       d="m 118.97323,28.618989 2.79375,1.49909 2.1805,2.589337 0.27256,1.294669 0.35774,1.49909 -2.06125,1.362808 -0.6814,0.340704 -2.38492,-1.430952 -1.27885,-0.945699 -1.34285,-1.23066 c 0,0 0.0323,-0.685539 -0.17206,-0.958099 -0.11732,-0.156424 -0.2062,-0.187233 -0.34296,-0.28009 -0.10154,-0.06894 -0.24569,-0.215333 -0.36183,-0.244368 -0.10189,-0.02547 -0.36556,0.03338 -0.51396,-0.05674 -0.53307,-0.32374 -1.05163,-0.425868 -1.64315,-0.577187 l -2.49118,-0.408608 -1.0611,-0.669947 -0.94499,-0.965659 -2.8854,-3.593561 -0.59047,-0.667637 -4.49656,-2.689127 1.0046,-2.702527 1.5941,-0.195138 1.51808,0.224922 0.78019,1.63364 2.93918,-1.482093 2.1805,-0.06814 1.25194,0.112774 0.48393,0.568631 0.99887,1.052442 0.46909,0.544349 0.54389,1.196967 0.47698,3.679585 z"
       id="path6"
       sodipodi:nodetypes="cccccccccccssscccccccccccccccccccc" /><text
       xml:space="preserve"
       style="font-weight:500;font-stretch:condensed;font-size:4.41004px;line-height:0.75;font-family:'Univers 57 Condensed';-inkscape-font-specification:'Univers 57 Condensed,  Medium Condensed';opacity:0.68390805;fill:#ffffff;fill-opacity:0.996835;stroke:none;stroke-width:0.331274;stroke-linecap:square;stroke-linejoin:bevel;stroke-miterlimit:3.6;stroke-dasharray:none;stroke-opacity:1;paint-order:stroke markers fill"
       x="98.883018"
       y="-43.281136"
       id="text7"
       inkscape:label="kurdiska"
       transform="rotate(36.354393)"><tspan
         sodipodi:role="line"
         id="tspan7"
         style="font-style:normal;font-variant:normal;font-weight:normal;font-stretch:normal;font-family:Signika;-inkscape-font-specification:Signika;fill:#ffffff;fill-opacity:0.996835;stroke:none;stroke-width:0.331274"
         x="98.883018"
         y="-43.281136">armeniska</tspan></text></g><g
     inkscape:groupmode="layer"
     id="layer6"
     inkscape:label="cities"
     style="display:inline"><text
       xml:space="preserve"
       style="font-style:normal;font-variant:normal;font-weight:300;font-stretch:normal;font-size:5.64444px;line-height:0.75;font-family:Signika;-inkscape-font-specification:'Signika Light';letter-spacing:0.198437px;opacity:0.724138;fill:#ffffff;fill-opacity:0.996835;stroke:#000000;stroke-width:1;stroke-linecap:round;stroke-linejoin:round;stroke-miterlimit:3.6;stroke-dasharray:none;stroke-opacity:1;paint-order:stroke markers fill"
       x="88.731079"
       y="120.67103"
       id="text32"
       inkscape:label="Mecca"><tspan
         sodipodi:role="line"
         id="tspan32"
         style="font-style:normal;font-variant:normal;font-weight:bold;font-stretch:normal;font-size:5.64444px;font-family:Frutiger;-inkscape-font-specification:'Frutiger Bold';letter-spacing:0.198437px;fill:#ffffff;stroke:#000000;stroke-width:1;stroke-linecap:round;stroke-linejoin:round;stroke-opacity:1"
         x="88.731079"
         y="120.67103">Mecka</tspan></text><text
       xml:space="preserve"
       style="font-style:normal;font-variant:normal;font-weight:300;font-stretch:normal;font-size:5.64444px;line-height:0.75;font-family:Signika;-inkscape-font-specification:'Signika Light';letter-spacing:0.198437px;opacity:0.724138;fill:#ffffff;fill-opacity:0.996835;stroke:#000000;stroke-width:1;stroke-linecap:round;stroke-linejoin:round;stroke-miterlimit:3.6;stroke-dasharray:none;stroke-opacity:1;paint-order:stroke markers fill"
       x="92.223274"
       y="62.152439"
       id="text34"
       inkscape:label="Baghdad"><tspan
         sodipodi:role="line"
         id="tspan34"
         style="font-style:normal;font-variant:normal;font-weight:bold;font-stretch:normal;font-size:5.64444px;font-family:Frutiger;-inkscape-font-specification:'Frutiger Bold';letter-spacing:0.198437px;fill:#ffffff;stroke:#000000;stroke-width:1;stroke-linecap:round;stroke-linejoin:round;stroke-opacity:1"
         x="92.223274"
         y="62.152439">Bagdad</tspan></text><text
       xml:space="preserve"
       style="font-style:normal;font-variant:normal;font-weight:300;font-stretch:normal;font-size:5.64444px;line-height:0.75;font-family:Signika;-inkscape-font-specification:'Signika Light';letter-spacing:0.198437px;opacity:0.724138;fill:#ffffff;fill-opacity:0.996835;stroke:#000000;stroke-width:1;stroke-linecap:round;stroke-linejoin:round;stroke-miterlimit:3.6;stroke-dasharray:none;stroke-opacity:1;paint-order:stroke markers fill"
       x="150.57524"
       y="60.836205"
       id="text33"
       inkscape:label="Tehran"><tspan
         sodipodi:role="line"
         id="tspan33"
         style="font-style:normal;font-variant:normal;font-weight:bold;font-stretch:normal;font-size:5.64444px;font-family:Frutiger;-inkscape-font-specification:'Frutiger Bold';letter-spacing:0.198437px;fill:#ffffff;stroke:#000000;stroke-width:1;stroke-linecap:round;stroke-linejoin:round;stroke-opacity:1"
         x="150.57524"
         y="60.836205">Tehran</tspan></text><text
       xml:space="preserve"
       style="font-style:normal;font-variant:normal;font-weight:300;font-stretch:normal;font-size:5.64444px;line-height:0.75;font-family:Signika;-inkscape-font-specification:'Signika Light';letter-spacing:0.198437px;opacity:0.724138;fill:#ffffff;fill-opacity:0.996835;stroke:#000000;stroke-width:1;stroke-linecap:round;stroke-linejoin:round;stroke-miterlimit:3.6;stroke-dasharray:none;stroke-opacity:1;paint-order:stroke markers fill"
       x="32.958302"
       y="21.791845"
       id="text35"
       inkscape:label="Istanbul"><tspan
         sodipodi:role="line"
         id="tspan35"
         style="font-style:normal;font-variant:normal;font-weight:bold;font-stretch:normal;font-size:5.64444px;font-family:Frutiger;-inkscape-font-specification:'Frutiger Bold';letter-spacing:0.198437px;fill:#ffffff;stroke:#000000;stroke-width:1;stroke-linecap:round;stroke-linejoin:round;stroke-opacity:1"
         x="32.958302"
         y="21.791845">Istanbul</tspan></text><text
       xml:space="preserve"
       style="font-style:normal;font-variant:normal;font-weight:300;font-stretch:normal;font-size:5.64444px;line-height:0.75;font-family:Signika;-inkscape-font-specification:'Signika Light';letter-spacing:0.198437px;opacity:0.724138;fill:#ffffff;fill-opacity:0.996835;stroke:#000000;stroke-width:1;stroke-linecap:round;stroke-linejoin:round;stroke-miterlimit:3.6;stroke-dasharray:none;stroke-opacity:1;paint-order:stroke markers fill"
       x="28.337727"
       y="94.173691"
       id="text36"
       inkscape:label="Kairo"><tspan
         sodipodi:role="line"
         id="tspan36"
         style="font-style:normal;font-variant:normal;font-weight:bold;font-stretch:normal;font-size:5.64444px;font-family:Frutiger;-inkscape-font-specification:'Frutiger Bold';letter-spacing:0.198437px;fill:#ffffff;stroke:#000000;stroke-width:1;stroke-linecap:round;stroke-linejoin:round;stroke-opacity:1"
         x="28.337727"
         y="94.173691">Kairo</tspan></text><text
       xml:space="preserve"
       style="font-style:normal;font-variant:normal;font-weight:300;font-stretch:normal;font-size:5.64444px;line-height:0.75;font-family:Signika;-inkscape-font-specification:'Signika Light';letter-spacing:0.198437px;opacity:0.724138;fill:#ffffff;fill-opacity:0.996835;stroke:#000000;stroke-width:1;stroke-linecap:round;stroke-linejoin:round;stroke-miterlimit:3.6;stroke-dasharray:none;stroke-opacity:1;paint-order:stroke markers fill"
       x="66.972969"
       y="75.537254"
       id="text37"
       inkscape:label="Jerusalem"><tspan
         sodipodi:role="line"
         id="tspan37"
         style="font-style:normal;font-variant:normal;font-weight:bold;font-stretch:normal;font-size:5.64444px;font-family:Frutiger;-inkscape-font-specification:'Frutiger Bold';letter-spacing:0.198437px;fill:#ffffff;stroke:#000000;stroke-width:1;stroke-linecap:round;stroke-linejoin:round;stroke-opacity:1"
         x="66.972969"
         y="75.537254">Jerusalem</tspan></text><rect
       style="opacity:0.99115044;fill:#800000;fill-opacity:0.996835;stroke:#1a1a1a;stroke-width:1;stroke-linecap:round;stroke-linejoin:round;stroke-miterlimit:3.6;stroke-dasharray:none;stroke-opacity:1;paint-order:stroke fill markers"
       id="rect34"
       width="2.0458984"
       height="2.0458984"
       x="149.11952"
       y="52.945007"
       ry="0"
       inkscape:label="Tehran_path" /><rect
       style="display:inline;opacity:0.99115044;fill:#800000;fill-opacity:0.996835;stroke:#1a1a1a;stroke-width:1;stroke-linecap:round;stroke-linejoin:round;stroke-miterlimit:3.6;stroke-dasharray:none;stroke-opacity:1;paint-order:stroke fill markers"
       id="rect35"
       width="2.0458984"
       height="2.0458984"
       x="112.52337"
       y="63.401054"
       ry="0"
       inkscape:label="Baghdad_path" /><rect
       style="opacity:0.99115044;fill:#800000;fill-opacity:0.996835;stroke:#1a1a1a;stroke-width:1;stroke-linecap:round;stroke-linejoin:round;stroke-miterlimit:3.6;stroke-dasharray:none;stroke-opacity:1;paint-order:stroke fill markers"
       id="rect36"
       width="2.0458984"
       height="2.0458984"
       x="41.615055"
       y="87.742699"
       ry="0"
       inkscape:label="Kairo_path" /><g
       id="g38"
       inkscape:label="Jerusalem_group"
       transform="translate(-0.37899458,-57.361121)"><circle
         style="opacity:0.724138;fill:#a02c2c;fill-opacity:0.996835;stroke:#1a1a1a;stroke-width:1.26836;stroke-linecap:square;stroke-linejoin:bevel;stroke-miterlimit:3.6;stroke-dasharray:none;stroke-opacity:1;paint-order:stroke markers fill"
         id="circle37"
         cx="65.767639"
         cy="130.19698"
         r="0.94300121"
         inkscape:label="Jerusalem_path1" /><circle
         style="opacity:0.724138;fill:#000000;fill-opacity:0.996835;stroke:none;stroke-width:0.657065;stroke-linecap:square;stroke-linejoin:bevel;stroke-miterlimit:3.6;stroke-dasharray:none;stroke-opacity:1;paint-order:stroke markers fill"
         id="circle38"
         cx="65.763565"
         cy="130.17325"
         r="0.48851547"
         inkscape:label="Jerusalem_path2" /></g><g
       id="g40"
       inkscape:label="Mecca_group"
       transform="translate(21.69941,-7.6186206)"><circle
         style="opacity:0.724138;fill:#800000;fill-opacity:0.996835;stroke:#1a1a1a;stroke-width:1.26836;stroke-linecap:square;stroke-linejoin:bevel;stroke-miterlimit:3.6;stroke-dasharray:none;stroke-opacity:1;paint-order:stroke markers fill"
         id="circle39"
         cx="65.767639"
         cy="130.19698"
         r="0.94300121"
         inkscape:label="Mecca_path1" /><circle
         style="opacity:0.724138;fill:#000000;fill-opacity:0.996835;stroke:none;stroke-width:0.657065;stroke-linecap:square;stroke-linejoin:bevel;stroke-miterlimit:3.6;stroke-dasharray:none;stroke-opacity:1;paint-order:stroke markers fill"
         id="circle40"
         cx="65.763565"
         cy="130.17325"
         r="0.48851547"
         inkscape:label="Mecca_path2" /></g><g
       id="g42"
       inkscape:label="Istanbul_group"
       transform="translate(-41.06701,-105.62233)"><circle
         style="opacity:0.724138;fill:#800000;fill-opacity:0.996835;stroke:#1a1a1a;stroke-width:1.26836;stroke-linecap:square;stroke-linejoin:bevel;stroke-miterlimit:3.6;stroke-dasharray:none;stroke-opacity:1;paint-order:stroke markers fill"
         id="circle41"
         cx="75.055717"
         cy="130.41945"
         r="0.94300121"
         inkscape:label="Istanbul_path1" /><circle
         style="opacity:0.724138;fill:#000000;fill-opacity:0.996835;stroke:none;stroke-width:0.657065;stroke-linecap:square;stroke-linejoin:bevel;stroke-miterlimit:3.6;stroke-dasharray:none;stroke-opacity:1;paint-order:stroke markers fill"
         id="circle42"
         cx="75.051643"
         cy="130.39572"
         r="0.48851547"
         inkscape:label="Istanbul_path2" /></g></g></svg>
