<?xml version="1.0" encoding="UTF-8" standalone="no"?>
<!-- Created with Inkscape (http://www.inkscape.org/) -->

<svg
   width="350mm"
   height="210mm"
   viewBox="0 0 350 210"
   version="1.1"
   id="svg1"
   xml:space="preserve"
   inkscape:version="1.3.2 (091e20e, 2023-11-25)"
   sodipodi:docname="mena_langs.svg"
   inkscape:export-filename="../images/MENAlangs_arrows2.png"
   inkscape:export-xdpi="300"
   inkscape:export-ydpi="300"
   xmlns:inkscape="http://www.inkscape.org/namespaces/inkscape"
   xmlns:sodipodi="http://sodipodi.sourceforge.net/DTD/sodipodi-0.dtd"
   xmlns:xlink="http://www.w3.org/1999/xlink"
   xmlns="http://www.w3.org/2000/svg"
   xmlns:svg="http://www.w3.org/2000/svg"><sodipodi:namedview
     id="namedview1"
     pagecolor="#000000"
     bordercolor="#666666"
     borderopacity="1.0"
     inkscape:showpageshadow="2"
     inkscape:pageopacity="0.0"
     inkscape:pagecheckerboard="0"
     inkscape:deskcolor="#d1d1d1"
     inkscape:document-units="mm"
     inkscape:zoom="1.2076689"
     inkscape:cx="578.38701"
     inkscape:cy="348.19146"
     inkscape:window-width="2560"
     inkscape:window-height="1258"
     inkscape:window-x="0"
     inkscape:window-y="25"
     inkscape:window-maximized="0"
     inkscape:current-layer="g28"
     inkscape:export-bgcolor="#00000000"
     showgrid="false"
     showguides="true" /><defs
     id="defs1"><marker
       style="overflow:visible"
       id="ConcaveTriangle"
       refX="0"
       refY="0"
       orient="auto-start-reverse"
       inkscape:stockid="Concave triangle arrow"
       markerWidth="1"
       markerHeight="1"
       viewBox="0 0 1 1"
       inkscape:isstock="true"
       inkscape:collect="always"
       preserveAspectRatio="xMidYMid"><path
         transform="scale(0.7)"
         d="M -2,-4 9,0 -2,4 c 2,-2.33 2,-5.66 0,-8 z"
         style="fill:context-stroke;fill-rule:evenodd;stroke:none"
         id="path7" /></marker><rect
       x="27.747311"
       y="258.97491"
       width="78.196968"
       height="23.122759"
       id="rect6" /><rect
       x="27.747311"
       y="258.97491"
       width="78.196968"
       height="23.122759"
       id="rect8" /><rect
       x="27.747311"
       y="258.97491"
       width="78.196968"
       height="23.122759"
       id="rect10" /><rect
       x="27.747311"
       y="258.97491"
       width="78.196968"
       height="23.122759"
       id="rect12" /><rect
       x="27.747311"
       y="258.97491"
       width="78.196968"
       height="23.122759"
       id="rect14" /><rect
       x="27.747311"
       y="258.97491"
       width="78.196968"
       height="23.122759"
       id="rect17" /><rect
       x="27.747311"
       y="258.97491"
       width="78.196968"
       height="23.122759"
       id="rect17-0" /><rect
       x="27.747311"
       y="258.97491"
       width="78.196968"
       height="23.122759"
       id="rect7" /><rect
       x="27.747311"
       y="258.97491"
       width="78.196968"
       height="23.122759"
       id="rect9" /><rect
       x="27.747311"
       y="258.97491"
       width="78.196968"
       height="23.122759"
       id="rect11" /><rect
       x="27.747311"
       y="258.97491"
       width="78.196968"
       height="23.122759"
       id="rect13" /><rect
       x="27.747311"
       y="258.97491"
       width="78.196968"
       height="23.122759"
       id="rect18" /><rect
       x="27.747311"
       y="258.97491"
       width="78.196968"
       height="23.122759"
       id="rect9-5" /><rect
       x="27.747311"
       y="258.97491"
       width="78.196968"
       height="23.122759"
       id="rect17-4" /><rect
       x="27.747311"
       y="258.97491"
       width="78.196968"
       height="23.122759"
       id="rect7-2" /><rect
       x="27.747311"
       y="258.97491"
       width="78.196968"
       height="23.122759"
       id="rect9-8" /><rect
       x="27.747311"
       y="258.97491"
       width="78.196968"
       height="23.122759"
       id="rect11-4" /><rect
       x="27.747311"
       y="258.97491"
       width="78.196968"
       height="23.122759"
       id="rect13-4" /><rect
       x="27.747311"
       y="258.97491"
       width="78.196968"
       height="23.122759"
       id="rect18-9" /><clipPath
       clipPathUnits="userSpaceOnUse"
       id="clipPath5"><path
         id="path5"
         style="opacity:1;fill:#008080;fill-opacity:0.667917;stroke:#1a1a1a;stroke-width:1.88011;stroke-linecap:square;stroke-linejoin:bevel;stroke-miterlimit:3.6;paint-order:stroke markers fill"
         d="m 370.67728,2.3363215 c 0,49.7447695 14.84532,91.0339915 -31.46404,102.2180185 -7.97708,1.92652 -46.51446,4.68412 -55.08032,4.45628 C 192.08796,106.56237 181.35843,50.677522 178.54675,3.4244288 c -4.22486,-71.0028908 2.47374,-33.6833508 3.09972,-38.3339558 6.94402,-51.5893 29.953,-68.340323 83.44455,-68.340333 58.31366,-1e-5 105.58621,47.272538 105.58621,105.5861815 z"
         sodipodi:nodetypes="ssssssss" /></clipPath></defs><g
     inkscape:label="Layer 1"
     inkscape:groupmode="layer"
     id="layer1"
     style="display:inline"><g
       id="g30"
       transform="matrix(3.2578672,1.6077195,-2.9536503,1.7733096,-1169.8378,-575.61409)"
       style="fill:#000000;fill-opacity:1"><g
         id="g29"
         transform="matrix(1.0622925,0,0,1.0622925,156.63842,-49.776647)"
         style="fill:#000000;fill-opacity:1"><rect
           style="opacity:1;fill:#000000;fill-opacity:1;stroke:none;stroke-width:8.51548;stroke-linecap:round;stroke-linejoin:round;stroke-miterlimit:3.6;stroke-dasharray:none;stroke-opacity:1;paint-order:stroke markers fill"
           id="rect29"
           width="104.13876"
           height="96.902534"
           x="84.270706"
           y="149.14067"
           ry="0.26773295"
           transform="rotate(-41.749315)" /></g></g><image
       preserveAspectRatio="none"
       inkscape:svg-dpi="300"
       width="135.61247"
       height="116.23923"
       xlink:href="linguistic_map.svg"
       id="image1-1"
       x="177.87646"
       y="-7.8809395"
       clip-path="url(#clipPath5)"
       style="fill:none;fill-opacity:1;stroke:none;stroke-width:10;stroke-dasharray:none;stroke-opacity:1"
       transform="matrix(1.0374437,0,0,1.0374437,25.743323,-0.68474123)" /><path
       style="fill:#000000;fill-opacity:1;stroke:#000000;stroke-width:0.298039px;stroke-linecap:butt;stroke-linejoin:miter;stroke-opacity:1"
       d="m 285.51761,112.95221 -30.61538,11.07679 -2.83476,6.20301 h 35.151 z"
       id="path1" /><text
       xml:space="preserve"
       style="font-weight:600;font-size:14.9163px;line-height:0;font-family:Signika;-inkscape-font-specification:'Signika Semi-Bold';letter-spacing:0.372908px;opacity:1;fill:#f5efb8;fill-opacity:1;stroke:none;stroke-width:28.1883;stroke-linecap:round;stroke-linejoin:round;stroke-miterlimit:3.6;stroke-dasharray:none;stroke-opacity:1;paint-order:stroke markers fill"
       x="11.747797"
       y="20.348864"
       id="text1"><tspan
         sodipodi:role="line"
         style="font-style:normal;font-variant:normal;font-weight:normal;font-stretch:normal;line-height:1;font-family:Signika;-inkscape-font-specification:Signika;fill:#f5efb8;fill-opacity:1;stroke-width:28.1883"
         x="11.747797"
         y="20.348864"
         id="tspan3">Språken i </tspan><tspan
         sodipodi:role="line"
         style="font-style:normal;font-variant:normal;font-weight:normal;font-stretch:normal;line-height:1;font-family:Signika;-inkscape-font-specification:Signika;fill:#f5efb8;fill-opacity:1;stroke-width:28.1883"
         x="11.747797"
         y="35.265163"
         id="tspan6">Mellanöstern</tspan><tspan
         sodipodi:role="line"
         style="font-style:normal;font-variant:normal;font-weight:normal;font-stretch:normal;font-size:7.40833px;line-height:1;font-family:Signika;-inkscape-font-specification:Signika;fill:#f5efb8;fill-opacity:1;stroke-width:28.1883"
         x="11.747797"
         y="44.45298"
         id="tspan19">(med omnejd)</tspan></text><text
       xml:space="preserve"
       style="font-weight:600;font-size:3.11495px;line-height:1;font-family:Signika;-inkscape-font-specification:'Signika Semi-Bold';letter-spacing:0.205793px;opacity:1;fill:#999999;fill-opacity:1;stroke:none;stroke-width:15.556;stroke-linecap:round;stroke-linejoin:round;stroke-miterlimit:3.6;stroke-dasharray:none;stroke-opacity:1;paint-order:stroke markers fill"
       x="22.290604"
       y="72.469246"
       id="text5"
       transform="rotate(0.45681096)"><tspan
         sodipodi:role="line"
         style="font-style:normal;font-variant:normal;font-weight:300;font-stretch:normal;font-size:3.11495px;line-height:1;font-family:Signika;-inkscape-font-specification:'Signika Light';text-align:center;text-anchor:middle;fill:#999999;stroke-width:15.556"
         x="22.290604"
         y="72.469246"
         id="tspan5">svenska ingår </tspan><tspan
         sodipodi:role="line"
         style="font-style:normal;font-variant:normal;font-weight:300;font-stretch:normal;font-size:3.11495px;line-height:1;font-family:Signika;-inkscape-font-specification:'Signika Light';text-align:center;text-anchor:middle;fill:#999999;stroke-width:15.556"
         x="22.393499"
         y="75.584198"
         id="tspan8"> endast som referens</tspan></text><image
       preserveAspectRatio="none"
       inkscape:svg-dpi="300"
       width="240"
       height="169.69696"
       xlink:href="tree_Indoeuropean.svg"
       id="image1"
       x="-64.5914"
       y="43.981796" /><image
       preserveAspectRatio="none"
       inkscape:svg-dpi="300"
       width="240"
       height="169.69695"
       xlink:href="tree_Semitic.svg"
       id="image1-6"
       x="69.350502"
       y="40.698544" /><image
       preserveAspectRatio="none"
       inkscape:svg-dpi="300"
       width="240"
       height="169.69695"
       xlink:href="tree_Turkic.svg"
       id="image1-64"
       x="173.44368"
       y="41.592659" /><rect
       style="fill:#000000;fill-opacity:1;stroke:none;stroke-width:0.737046;stroke-linecap:round;stroke-linejoin:round;stroke-miterlimit:3.6;stroke-dasharray:none;stroke-opacity:1;paint-order:stroke markers fill"
       id="rect15"
       width="47.63652"
       height="8.502841"
       x="294.13538"
       y="104.18627"
       ry="0.24947791" /><path
       style="opacity:1;fill:none;fill-opacity:0.667917;stroke:#ffffff;stroke-width:1;stroke-linecap:square;stroke-linejoin:bevel;stroke-miterlimit:3.6;stroke-dasharray:none;paint-order:stroke markers fill"
       d="M 210.20642,0.00582362 C 213.0181,47.258872 224.02572,108.96432 316.07059,111.41256 c 8.56584,0.22784 47.52007,1.84662 55.49713,-0.0799"
       id="path6"
       sodipodi:nodetypes="csc" /><text
       xml:space="preserve"
       style="font-weight:600;font-size:2.82222px;line-height:1;font-family:Signika;-inkscape-font-specification:'Signika Semi-Bold';letter-spacing:0.264583px;opacity:1;fill:#f9f9f9;fill-opacity:1;stroke:none;stroke-width:15.556;stroke-linecap:round;stroke-linejoin:round;stroke-miterlimit:3.6;stroke-dasharray:none;stroke-opacity:1;paint-order:stroke markers fill"
       id="text4"
       transform="translate(-2.9922949,1.3601341)"><textPath
         xlink:href="#path6"
         id="textPath6"
         style="font-style:normal;font-variant:normal;font-weight:300;font-stretch:normal;font-size:2.82222px;line-height:1;font-family:Signika;-inkscape-font-specification:'Signika Light';letter-spacing:0.264583px;fill:#f9f9f9;stroke-width:15.556">   OBS! gränserna är ungefärliga och grovt förenklade</textPath></text><text
       xml:space="preserve"
       style="font-weight:600;font-size:4.23333px;line-height:1;font-family:Signika;-inkscape-font-specification:'Signika Semi-Bold';letter-spacing:0.205793px;opacity:1;fill:#4d4d4d;fill-opacity:1;stroke:none;stroke-width:15.556;stroke-linecap:round;stroke-linejoin:round;stroke-miterlimit:3.6;stroke-dasharray:none;stroke-opacity:1;paint-order:stroke markers fill"
       x="310.23285"
       y="91.678749"
       id="text9"><tspan
         sodipodi:role="line"
         style="font-style:normal;font-variant:normal;font-weight:300;font-stretch:normal;font-size:4.23333px;line-height:1;font-family:Signika;-inkscape-font-specification:'Signika Light';fill:#f9f9f9;stroke-width:15.556"
         x="310.23285"
         y="91.678749"
         id="tspan9">Majoritetsspråken</tspan><tspan
         sodipodi:role="line"
         style="font-style:normal;font-variant:normal;font-weight:300;font-stretch:normal;font-size:4.23333px;line-height:1;font-family:Signika;-inkscape-font-specification:'Signika Light';fill:#f9f9f9;stroke-width:15.556"
         x="310.23285"
         y="95.912079"
         id="tspan15">i Mellanöstern</tspan></text><path
       style="fill:none;stroke:#000000;stroke-width:0.264583px;stroke-linecap:butt;stroke-linejoin:miter;stroke-opacity:1"
       d="M -7.3447239,220.59219 H 319.90354"
       id="path15" /><circle
       id="path16"
       style="fill:#000000;stroke:none;stroke-width:0.264583"
       cx="320.4476"
       cy="190.49718"
       r="0.39687499" /><text
       xml:space="preserve"
       style="font-weight:600;font-size:3.52778px;line-height:1;font-family:Signika;-inkscape-font-specification:'Signika Semi-Bold';letter-spacing:0.205793px;opacity:1;fill:#999999;fill-opacity:1;stroke:none;stroke-width:15.556;stroke-linecap:round;stroke-linejoin:round;stroke-miterlimit:3.6;stroke-dasharray:none;stroke-opacity:1;paint-order:stroke markers fill"
       x="114.79134"
       y="55.650074"
       id="text17"><tspan
         sodipodi:role="line"
         style="font-style:normal;font-variant:normal;font-weight:300;font-stretch:normal;font-size:3.52778px;line-height:1;font-family:Signika;-inkscape-font-specification:'Signika Light';text-align:end;text-anchor:end;fill:#999999;fill-opacity:1;stroke-width:15.556"
         x="114.79134"
         y="55.650074"
         id="tspan17">översättningen av</tspan><tspan
         sodipodi:role="line"
         style="font-style:normal;font-variant:normal;font-weight:300;font-stretch:normal;font-size:3.52778px;line-height:1;font-family:Signika;-inkscape-font-specification:'Signika Light';text-align:end;text-anchor:end;fill:#999999;fill-opacity:1;stroke-width:15.556"
         x="114.99714"
         y="59.177853"
         id="tspan1">ordet '<tspan
   style="font-style:normal;font-variant:normal;font-weight:600;font-stretch:normal;font-size:3.52778px;font-family:Signika;-inkscape-font-specification:'Signika Semi-Bold';text-align:end;text-anchor:end;fill:#999999;fill-opacity:1"
   id="tspan18">broder'</tspan></tspan></text><path
       style="opacity:0.649533;fill:none;stroke:#a0a0a0;stroke-width:0.265;stroke-linecap:butt;stroke-linejoin:miter;stroke-dasharray:none;stroke-dashoffset:0;stroke-opacity:1;marker-end:url(#ConcaveTriangle)"
       d="M 115.33937,55.765495 C 139.0057,63.382246 98.916497,78.262918 98.916497,78.262918"
       id="path20"
       sodipodi:nodetypes="cc" /><path
       style="opacity:0.649533;fill:none;stroke:#a0a0a0;stroke-width:0.265;stroke-linecap:butt;stroke-linejoin:miter;stroke-dasharray:none;stroke-dashoffset:0;stroke-opacity:1;marker-end:url(#ConcaveTriangle)"
       d="m 21.442477,76.568711 c -1.255468,2.626438 -4.755983,6.82801 -4.755983,6.82801"
       id="path21"
       sodipodi:nodetypes="cc" /></g><g
     inkscape:groupmode="layer"
     id="Malta"
     inkscape:label="Malta"
     style="display:none" /><g
     inkscape:groupmode="layer"
     id="layer2"
     inkscape:label="arrows"
     style="display:none"><rect
       style="font-variation-settings:normal;display:inline;opacity:0.694175;fill:#000000;fill-opacity:1;fill-rule:evenodd;stroke:none;stroke-width:0.188;stroke-linecap:square;stroke-linejoin:round;stroke-miterlimit:3.6;stroke-dasharray:none;stroke-dashoffset:0;stroke-opacity:1;paint-order:stroke fill markers;stop-color:#000000"
       id="rect48"
       width="353.42679"
       height="217.00182"
       x="-1.4641213"
       y="0.010943556"
       ry="0.30372509" /><text
       xml:space="preserve"
       style="font-weight:600;font-size:31.8735px;line-height:0;font-family:Signika;-inkscape-font-specification:'Signika Semi-Bold';letter-spacing:0.796838px;display:inline;fill:#fefefe;fill-opacity:1;stroke:none;stroke-width:60.2333;stroke-linecap:round;stroke-linejoin:round;stroke-miterlimit:3.6;stroke-dasharray:none;stroke-opacity:1;paint-order:stroke markers fill"
       x="133.39697"
       y="53.505718"
       id="text46"><tspan
         sodipodi:role="line"
         style="font-style:normal;font-variant:normal;font-weight:normal;font-stretch:normal;font-size:15.8303px;line-height:1;font-family:Signika;-inkscape-font-specification:Signika;fill:#fefefe;fill-opacity:1;stroke-width:60.2333"
         x="133.39697"
         y="53.505718"
         id="tspan46">Sprachbund</tspan></text><g
       id="path3"
       style="opacity:0.992718;fill:#f9f9f9;stroke-width:0.5;stroke-dasharray:none"><path
         style="color:#000000;fill:#f9f9f9;stroke-width:0.5;stroke-dasharray:none"
         d="m 127.74609,92.597656 c -3.10878,0.06184 -6.41642,0.687493 -11.19921,2.527344 -3.87543,1.490806 -6.43822,1.830032 -9.19141,1.552734 -2.7532,-0.277297 -5.8222,-1.274785 -10.220704,-2.710937 l -1.552735,4.753906 c 4.383641,1.431297 7.737209,2.575677 11.271489,2.931637 3.53427,0.35597 7.1227,-0.18197 11.48828,-1.861324 4.43746,-1.707008 6.95413,-2.144591 9.5039,-2.195313 2.54977,-0.05072 5.31842,0.359856 9.72852,0.496094 l 0.1543,-4.998047 c -4.14934,-0.128182 -6.87364,-0.557936 -9.98243,-0.496094 z"
         id="path36" /><g
         id="g35"
         style="fill:#f9f9f9;stroke-width:0.5;stroke-dasharray:none"><path
           style="color:#000000;fill:#f9f9f9;stroke-width:0.5;stroke-linecap:round;stroke-dasharray:none"
           d="m 105.60938,90.160156 a 1.25,1.25 0 0 0 -0.95313,0.07227 l -10.572266,5.36914 5.367188,10.570314 a 1.25,1.25 0 0 0 1.679688,0.54882 1.25,1.25 0 0 0 0.54883,-1.67968 l -4.234378,-8.34375 8.341798,-4.234375 a 1.25,1.25 0 0 0 0.54883,-1.681641 1.25,1.25 0 0 0 -0.72656,-0.621094 z"
           id="path35" /></g></g><g
       id="path4"
       style="opacity:0.992718;stroke-width:0.5;stroke-dasharray:none"><path
         style="color:#000000;fill:#f9f9f9;stroke-width:0.5;stroke-dasharray:none"
         d="m 175.08594,55.642578 c -12.69405,0.06882 -21.69232,6.945878 -27.04297,14.402344 -2.67533,3.728233 -4.49128,7.607607 -5.53906,11.013672 -1.04779,3.406065 -1.54813,6.154655 -0.68946,8.671875 l 4.73242,-1.613282 c -0.0868,-0.254574 -0.14504,-2.72279 0.73633,-5.58789 0.88137,-2.865101 2.4843,-6.310264 4.82227,-9.56836 4.67593,-6.516191 12.08194,-12.259121 23.00781,-12.318359 4.63906,-0.02515 12.22682,2.954418 20.62109,7.78125 8.39428,4.826833 17.70688,11.379916 26.57227,18.0625 8.86539,6.682584 17.28958,13.493103 23.99023,18.869142 3.35033,2.68802 6.2687,5.01608 8.61719,6.80469 2.34849,1.7886 3.95448,2.9932 5.4375,3.67968 l 2.10156,-4.53906 c -0.41973,-0.19429 -2.23764,-1.38674 -4.50976,-3.11719 -2.27213,-1.73044 -5.17355,-4.0436 -8.51758,-6.72656 -6.68805,-5.365921 -15.15572,-12.213778 -24.10937,-18.962889 -8.95365,-6.749111 -18.38563,-13.400368 -27.08789,-18.404297 -8.70227,-5.003929 -16.56045,-8.482953 -23.14258,-8.447266 z"
         id="path34" /><g
         id="g33"
         style="stroke-width:0.5;stroke-dasharray:none"><path
           style="color:#000000;fill:#f9f9f9;stroke-width:0.5;stroke-linecap:round;stroke-dasharray:none"
           d="m 257.88281,102.70313 a 1.25,1.25 0 0 0 -0.74219,1.60351 l 3.22461,8.78516 -8.7832,3.22265 a 1.25,1.25 0 0 0 -0.74219,1.60547 1.25,1.25 0 0 0 1.60352,0.74219 l 11.13086,-4.08594 -4.08789,-11.13086 a 1.25,1.25 0 0 0 -1.60352,-0.74218 z"
           id="path33" /></g></g><g
       id="path11"
       style="opacity:0.992718;fill:#f9f9f9;stroke-width:0.5;stroke-dasharray:none"><path
         style="color:#000000;fill:#f9f9f9;stroke-width:0.5;stroke-dasharray:none"
         d="m 134.5957,103.28516 c -7.49474,2.39699 -19.81068,2.55712 -29.29882,6.20703 -4.02248,1.54737 -6.893345,1.94543 -9.880864,1.64453 -2.987519,-0.3009 -6.141112,-1.34265 -10.535157,-2.77734 l -0.621093,1.90234 c 4.3881,1.43275 7.657081,2.53287 10.957031,2.86523 3.29995,0.33237 6.580303,-0.14478 10.798833,-1.76757 8.95238,-3.44381 21.13708,-3.59459 29.18945,-6.16993 z"
         id="path38" /><g
         id="g37"
         style="fill:#f9f9f9;stroke-width:0.5;stroke-dasharray:none"><path
           style="color:#000000;fill:#f9f9f9;stroke-width:0.5;stroke-linecap:round;stroke-dasharray:none"
           d="m 131.21484,101.74023 a 0.5,0.5 0 0 0 -0.29101,0.24805 0.5,0.5 0 0 0 0.21484,0.67383 l 3.32813,1.71484 -1.71485,3.32618 a 0.5,0.5 0 0 0 0.21485,0.67382 0.5,0.5 0 0 0 0.67382,-0.21484 l 2.17188,-4.2168 -4.21484,-2.17187 a 0.5,0.5 0 0 0 -0.38282,-0.0332 z"
           id="path37" /></g></g><g
       id="path12"
       style="opacity:0.992718;fill:#f9f9f9;stroke-width:0.5;stroke-dasharray:none"><path
         style="color:#000000;fill:#f9f9f9;stroke-width:0.5;stroke-dasharray:none"
         d="m 159.68945,107.81836 -0.90429,2.85937 c 25.21856,7.98707 50.06152,10.88192 69.46875,12.22657 9.70361,0.67232 18.05082,0.95807 24.3789,1.29101 3.16404,0.16647 5.82471,0.34615 7.8711,0.58594 2.04638,0.23979 3.51776,0.59406 4.03906,0.85156 l 1.32812,-2.68945 c -1.24586,-0.61543 -2.84621,-0.88814 -5.01757,-1.14258 -2.17136,-0.25444 -4.87422,-0.43381 -8.0625,-0.60156 -6.37658,-0.3355 -14.68672,-0.61896 -24.33008,-1.28711 -19.28672,-1.33629 -43.89494,-4.215 -68.77149,-12.09375 z"
         id="path44" /><g
         id="g43"
         style="fill:#f9f9f9;stroke-width:0.5;stroke-dasharray:none"><path
           style="color:#000000;fill:#f9f9f9;stroke-width:0.5;stroke-linecap:round;stroke-dasharray:none"
           d="m 164.75586,105.48828 a 0.75,0.75 0 0 0 -0.57227,0.0488 l -6.31445,3.27734 3.27539,6.31446 a 0.75,0.75 0 0 0 1.01172,0.32031 0.75,0.75 0 0 0 0.32031,-1.01172 l -2.58594,-4.98242 4.98243,-2.58594 a 0.75,0.75 0 0 0 0.32031,-1.01172 0.75,0.75 0 0 0 -0.4375,-0.36914 z"
           id="path43" /></g></g><g
       id="path13"
       style="opacity:0.992718;fill:#f9f9f9;stroke-width:0.5;stroke-dasharray:none"><path
         style="color:#000000;fill:#f9f9f9;stroke-width:0.5;stroke-dasharray:none"
         d="m 85.539062,116.16797 -1.544921,4.75391 c 57.572379,18.72175 139.998499,27.49405 189.187499,20.36718 l -0.7168,-4.94726 c -47.8121,6.92737 -130.26101,-1.74722 -186.925778,-20.17383 z"
         id="path42" /><g
         id="g41"
         style="fill:#f9f9f9;stroke-width:0.5;stroke-dasharray:none"><path
           style="color:#000000;fill:#f9f9f9;stroke-width:0.5;stroke-linecap:round;stroke-dasharray:none"
           d="m 265.69141,131.37695 a 1.25,1.25 0 0 0 -1.74805,0.25391 1.25,1.25 0 0 0 0.25195,1.75 l 7.49805,5.59961 -5.59961,7.49609 a 1.25,1.25 0 0 0 0.25391,1.74805 1.25,1.25 0 0 0 1.74804,-0.25195 l 7.09571,-9.5 z"
           id="path41" /></g></g><g
       id="path14"
       style="opacity:0.992718;stroke-width:0.5;stroke-dasharray:none"><path
         style="color:#000000;fill:#f9f9f9;stroke-width:0.5;stroke-dasharray:none"
         d="m 101.20611,115.29979 -0.80856,1.21694 c 4.19881,-2.69152 -4.436597,0.26006 1.37784,0.79382 5.81444,0.53375 13.16863,1.01495 21.52734,1.45703 16.71743,0.88416 37.45497,1.61326 57.87696,2.28906 20.42198,0.6758 40.52813,1.29774 55.96484,1.96875 7.71836,0.33551 14.26992,0.68352 19.09961,1.05469 2.41484,0.18558 4.40132,0.37803 5.87305,0.57422 1.47172,0.19618 2.51276,0.46603 2.65039,0.5332 l 0.8789,-1.79687 c -0.75416,-0.36811 -1.73018,-0.51408 -3.26562,-0.71875 -1.53545,-0.20468 -3.54631,-0.39872 -5.98242,-0.58594 -4.87223,-0.37444 -11.4388,-0.72262 -19.16797,-1.0586 -15.45834,-0.67195 -35.56517,-1.29499 -55.98438,-1.9707 -20.41921,-0.67571 -41.1497,-1.40449 -57.83789,-2.28711 -8.34409,-0.44131 -14.47385,-0.72976 -20.24425,-1.25947 -5.770388,-0.52971 -2.7e-4,0.3798 -1.95784,-0.2103 z"
         id="path40"
         sodipodi:nodetypes="ccssssssccsssssscc" /><g
         id="g39"
         style="stroke-width:0.5;stroke-dasharray:none"><path
           style="color:#000000;fill:#f9f9f9;stroke-width:0.5;stroke-linecap:round;stroke-dasharray:none"
           d="m 103.48359,113.58237 -4.17969,2.24219 2.24414,4.17969 a 0.5,0.5 0 0 0 0.67578,0.20312 0.5,0.5 0 0 0 0.20508,-0.67578 l -1.76953,-3.29883 3.29687,-1.76953 a 0.5,0.5 0 0 0 0.20508,-0.67578 0.5,0.5 0 0 0 -0.67773,-0.20508 z"
           id="path39" /></g></g></g><g
     inkscape:groupmode="layer"
     id="g28"
     inkscape:label="Sprachbund"
     style="display:inline"><path
       id="rect1"
       style="display:inline;opacity:0.852;fill-rule:evenodd;stroke-width:0.188;stroke-linecap:square;stroke-linejoin:round;stroke-miterlimit:3.6;paint-order:stroke fill markers;stop-color:#000000"
       d="M -1.1603962,0.01094356 206.379,0.23002955 206.18584,47.552603 c -2.7e-4,0.06712 5.31635,17.345696 15.79097,28.649749 15.78591,17.035918 41.33237,30.807048 62.50738,33.655308 l 67.69757,9.10603 c -11.64531,80.62357 -0.21909,63.70299 -0.21909,97.74534 0,0.16827 -0.13546,0.30373 -0.30373,0.30373 H -1.1603962 c -0.1682637,0 -0.3037251,-0.13546 -0.3037251,-0.30373 V 0.31466865 c 0,-0.1682637 0.1354614,-0.30372509 0.3037251,-0.30372509 z"
       sodipodi:nodetypes="scssscssssss" /><circle
       style="opacity:0.898662;fill:#8686de;fill-opacity:1;stroke:none;stroke-width:0.499999;stroke-linecap:square;stroke-linejoin:round;stroke-miterlimit:3.6;paint-order:stroke fill markers"
       id="circle29"
       cx="-22.250191"
       cy="202.73445"
       r="47.322571"
       inkscape:label="Persian"
       transform="rotate(-50.570853)" /><circle
       style="opacity:0.898662;fill:#d74644;fill-opacity:1;stroke:none;stroke-width:0.499999;stroke-linecap:square;stroke-linejoin:round;stroke-miterlimit:3.6;paint-order:stroke fill markers"
       id="circle28"
       cx="-19.565487"
       cy="-171.48003"
       r="47.322571"
       inkscape:label="Persian"
       transform="rotate(154.19582)" /><rect
       style="font-variation-settings:normal;opacity:1;vector-effect:none;fill:#000000;fill-opacity:1;fill-rule:evenodd;stroke:none;stroke-width:0.212407;stroke-linecap:square;stroke-linejoin:round;stroke-miterlimit:3.6;stroke-dasharray:none;stroke-dashoffset:0;stroke-opacity:1;-inkscape-stroke:none;paint-order:stroke fill markers;stop-color:#000000;stop-opacity:1"
       id="rect36"
       width="115.89648"
       height="51.485207"
       x="5.4771495"
       y="8.9825258"
       ry="0.42953843" /><text
       xml:space="preserve"
       style="font-weight:600;font-size:31.8735px;line-height:0;font-family:Signika;-inkscape-font-specification:'Signika Semi-Bold';letter-spacing:0.796838px;display:inline;fill:#bc9f25;fill-opacity:0.901961;stroke:none;stroke-width:60.2333;stroke-linecap:round;stroke-linejoin:round;stroke-miterlimit:3.6;stroke-dasharray:none;stroke-opacity:1;paint-order:stroke markers fill"
       id="text29"
       transform="translate(0,-1.0583333)"><textPath
         xlink:href="#path28"
         id="textPath29"><tspan
           style="font-style:normal;font-variant:normal;font-weight:normal;font-stretch:normal;font-size:15.8303px;line-height:1;font-family:Signika;-inkscape-font-specification:Signika;fill:#bc9f25;fill-opacity:0.901961;stroke-width:60.2333"
           id="tspan29">arabiska</tspan></textPath></text><text
       xml:space="preserve"
       style="font-weight:600;font-size:15.5222px;line-height:0;font-family:Signika;-inkscape-font-specification:'Signika Semi-Bold';letter-spacing:0.796838px;display:inline;fill:#8686de;fill-opacity:0.901961;stroke:none;stroke-width:60.2333;stroke-linecap:round;stroke-linejoin:round;stroke-miterlimit:3.6;stroke-dasharray:none;stroke-opacity:1;paint-order:stroke markers fill"
       id="text30"
       transform="translate(1.5875)"><textPath
         xlink:href="#circle29"
         id="textPath30">turkiska</textPath></text><circle
       style="opacity:0.898662;fill:#bc9f25;fill-opacity:0.901961;stroke:none;stroke-width:0.499999;stroke-linecap:square;stroke-linejoin:round;stroke-miterlimit:3.6;paint-order:stroke fill markers"
       id="path28"
       cx="-157.70769"
       cy="27.646656"
       r="47.322571"
       inkscape:label="Arabic"
       transform="rotate(-126.80992)" /><text
       xml:space="preserve"
       style="font-weight:600;font-size:15.5222px;line-height:0;font-family:Signika;-inkscape-font-specification:'Signika Semi-Bold';letter-spacing:0.796838px;display:inline;fill:#d74644;fill-opacity:0.901961;stroke:none;stroke-width:60.2333;stroke-linecap:round;stroke-linejoin:round;stroke-miterlimit:3.6;stroke-dasharray:none;stroke-opacity:1;paint-order:stroke markers fill"
       id="text31"
       transform="translate(-3.7041668)"><textPath
         xlink:href="#circle28"
         id="textPath31">persiska</textPath></text><text
       xml:space="preserve"
       style="font-weight:600;font-size:14.9163px;line-height:0;font-family:Signika;-inkscape-font-specification:'Signika Semi-Bold';letter-spacing:0.372908px;display:inline;opacity:1;fill:#f5efb8;fill-opacity:1;stroke:none;stroke-width:28.1883;stroke-linecap:round;stroke-linejoin:round;stroke-miterlimit:3.6;stroke-dasharray:none;stroke-opacity:1;paint-order:stroke markers fill"
       x="11.747797"
       y="20.348864"
       id="text33"><tspan
         sodipodi:role="line"
         style="font-style:normal;font-variant:normal;font-weight:normal;font-stretch:normal;font-size:14.9163px;line-height:1;font-family:Signika;-inkscape-font-specification:Signika;fill:#f5efb8;fill-opacity:1;stroke-width:28.1883"
         x="11.747797"
         y="20.348864"
         id="tspan33">Sprachbund</tspan><tspan
         sodipodi:role="line"
         style="font-style:normal;font-variant:normal;font-weight:normal;font-stretch:normal;font-size:4.23333px;line-height:1;font-family:Signika;-inkscape-font-specification:Signika;fill:#f5efb8;fill-opacity:1;stroke-width:28.1883"
         x="11.747797"
         y="27.807014"
         id="tspan36">språk som delar liknande lingvistiska drag </tspan><tspan
         sodipodi:role="line"
         style="font-style:normal;font-variant:normal;font-weight:normal;font-stretch:normal;font-size:4.23333px;line-height:1;font-family:Signika;-inkscape-font-specification:Signika;fill:#f5efb8;fill-opacity:1;stroke-width:28.1883"
         x="11.747797"
         y="32.733162"
         id="tspan43">på grund av långvarig kontakt utan att </tspan><tspan
         sodipodi:role="line"
         style="font-style:normal;font-variant:normal;font-weight:normal;font-stretch:normal;font-size:4.23333px;line-height:1;font-family:Signika;-inkscape-font-specification:Signika;fill:#f5efb8;fill-opacity:1;stroke-width:28.1883"
         x="11.747797"
         y="37.659309"
         id="tspan44">nödvändigtvis vara genetiskt besläktade.</tspan><tspan
         sodipodi:role="line"
         style="font-style:normal;font-variant:normal;font-weight:normal;font-stretch:normal;font-size:14.9163px;line-height:1;font-family:Signika;-inkscape-font-specification:Signika;fill:#f5efb8;fill-opacity:1;stroke-width:28.1883"
         x="11.747797"
         y="50.043606"
         id="tspan37" /><tspan
         sodipodi:role="line"
         style="font-style:normal;font-variant:normal;font-weight:normal;font-stretch:normal;font-size:14.9163px;line-height:1;font-family:Signika;-inkscape-font-specification:Signika;fill:#f5efb8;fill-opacity:1;stroke-width:28.1883"
         x="11.747797"
         y="64.959908"
         id="tspan38" /><tspan
         sodipodi:role="line"
         style="font-style:normal;font-variant:normal;font-weight:normal;font-stretch:normal;font-size:14.9163px;line-height:1;font-family:Signika;-inkscape-font-specification:Signika;fill:#f5efb8;fill-opacity:1;stroke-width:28.1883"
         x="11.747797"
         y="79.876205"
         id="tspan39" /><tspan
         sodipodi:role="line"
         style="font-style:normal;font-variant:normal;font-weight:normal;font-stretch:normal;font-size:14.9163px;line-height:1;font-family:Signika;-inkscape-font-specification:Signika;fill:#f5efb8;fill-opacity:1;stroke-width:28.1883"
         x="11.747797"
         y="94.792503"
         id="tspan40" /><tspan
         sodipodi:role="line"
         style="font-style:normal;font-variant:normal;font-weight:normal;font-stretch:normal;font-size:14.9163px;line-height:1;font-family:Signika;-inkscape-font-specification:Signika;fill:#f5efb8;fill-opacity:1;stroke-width:28.1883"
         x="11.747797"
         y="109.7088"
         id="tspan41" /><tspan
         sodipodi:role="line"
         style="font-style:normal;font-variant:normal;font-weight:normal;font-stretch:normal;font-size:14.9163px;line-height:1;font-family:Signika;-inkscape-font-specification:Signika;fill:#f5efb8;fill-opacity:1;stroke-width:28.1883"
         x="11.747797"
         y="117.16695"
         id="tspan42" /></text></g></svg>
