<?xml version="1.0" encoding="UTF-8" standalone="no"?>
<!-- Created with Inkscape (http://www.inkscape.org/) -->

<svg
   width="297mm"
   height="210mm"
   viewBox="0 0 297 210"
   version="1.1"
   id="svg1"
   xml:space="preserve"
   inkscape:version="1.3.2 (091e20e, 2023-11-25)"
   sodipodi:docname="master_presentation.svg"
   inkscape:export-filename="../Presentation/images/map06.png"
   inkscape:export-xdpi="200"
   inkscape:export-ydpi="200"
   xmlns:inkscape="http://www.inkscape.org/namespaces/inkscape"
   xmlns:sodipodi="http://sodipodi.sourceforge.net/DTD/sodipodi-0.dtd"
   xmlns:xlink="http://www.w3.org/1999/xlink"
   xmlns="http://www.w3.org/2000/svg"
   xmlns:svg="http://www.w3.org/2000/svg"><sodipodi:namedview
     id="namedview1"
     pagecolor="#000000"
     bordercolor="#666666"
     borderopacity="1.0"
     inkscape:showpageshadow="2"
     inkscape:pageopacity="0.0"
     inkscape:pagecheckerboard="0"
     inkscape:deskcolor="#d1d1d1"
     inkscape:document-units="mm"
     inkscape:zoom="0.34387909"
     inkscape:cx="-210.82992"
     inkscape:cy="353.32186"
     inkscape:window-width="2560"
     inkscape:window-height="1258"
     inkscape:window-x="0"
     inkscape:window-y="25"
     inkscape:window-maximized="0"
     inkscape:current-layer="svg1"
     inkscape:export-bgcolor="#00000000"
     showgrid="false"
     showguides="true" /><defs
     id="defs1"><rect
       x="27.747311"
       y="258.97491"
       width="78.196968"
       height="23.122759"
       id="rect6" /><rect
       x="27.747311"
       y="258.97491"
       width="78.196968"
       height="23.122759"
       id="rect8" /><rect
       x="27.747311"
       y="258.97491"
       width="78.196968"
       height="23.122759"
       id="rect10" /><rect
       x="27.747311"
       y="258.97491"
       width="78.196968"
       height="23.122759"
       id="rect12" /><rect
       x="27.747311"
       y="258.97491"
       width="78.196968"
       height="23.122759"
       id="rect14" /><rect
       x="27.747311"
       y="258.97491"
       width="78.196968"
       height="23.122759"
       id="rect17" /><rect
       x="27.747311"
       y="258.97491"
       width="78.196968"
       height="23.122759"
       id="rect17-0" /><rect
       x="27.747311"
       y="258.97491"
       width="78.196968"
       height="23.122759"
       id="rect7" /><rect
       x="27.747311"
       y="258.97491"
       width="78.196968"
       height="23.122759"
       id="rect9" /><rect
       x="27.747311"
       y="258.97491"
       width="78.196968"
       height="23.122759"
       id="rect11" /><rect
       x="27.747311"
       y="258.97491"
       width="78.196968"
       height="23.122759"
       id="rect13" /><rect
       x="27.747311"
       y="258.97491"
       width="78.196968"
       height="23.122759"
       id="rect18" /><rect
       x="27.747311"
       y="258.97491"
       width="78.196968"
       height="23.122759"
       id="rect9-5" /><rect
       x="27.747311"
       y="258.97491"
       width="78.196968"
       height="23.122759"
       id="rect17-4" /><rect
       x="27.747311"
       y="258.97491"
       width="78.196968"
       height="23.122759"
       id="rect7-2" /><rect
       x="27.747311"
       y="258.97491"
       width="78.196968"
       height="23.122759"
       id="rect9-8" /><rect
       x="27.747311"
       y="258.97491"
       width="78.196968"
       height="23.122759"
       id="rect11-4" /><rect
       x="27.747311"
       y="258.97491"
       width="78.196968"
       height="23.122759"
       id="rect13-4" /><rect
       x="27.747311"
       y="258.97491"
       width="78.196968"
       height="23.122759"
       id="rect18-9" /><linearGradient
       id="swatch27"><stop
         style="stop-color:#7c3b2e;stop-opacity:1;"
         offset="0"
         id="stop27" /></linearGradient><filter
       style="color-interpolation-filters:sRGB"
       inkscape:label="Color Blindness"
       id="filter3"
       x="0"
       y="0"
       width="1"
       height="1"><feColorMatrix
         values="-4.33735 -4.6988 -4.21687 -4.93976 0 -4.33735 -4.6988 -4.21687 -4.93976 0 -4.33735 -4.6988 -4.21687 -4.93976 0 0 0 0 1 0 "
         id="feColorMatrix3"
         result="fbSourceGraphic" /><feColorMatrix
         result="fbSourceGraphicAlpha"
         in="fbSourceGraphic"
         values="0 0 0 -1 0 0 0 0 -1 0 0 0 0 -1 0 0 0 0 1 0"
         id="feColorMatrix8" /><feColorMatrix
         id="feColorMatrix9"
         values="-6.08434 -7.10843 -7.6506 -7.53012 0 -6.08434 -7.10843 -7.6506 -7.53012 0 -6.08434 -7.10843 -7.6506 -7.53012 0 0 0 0 1 0 "
         in="fbSourceGraphic"
         result="fbSourceGraphic" /><feColorMatrix
         result="fbSourceGraphicAlpha"
         in="fbSourceGraphic"
         values="0 0 0 -1 0 0 0 0 -1 0 0 0 0 -1 0 0 0 0 1 0"
         id="feColorMatrix10" /><feColorMatrix
         id="feColorMatrix11"
         values="0.618 0.32 0.062 0 0 0.163 0.775 0.062 0 0 0.163 0.32 0.516 0 0 0 0 0 1 0 "
         type="matrix"
         result="colormatrix1"
         in="fbSourceGraphic" /></filter><rect
       id="SVGID_1_"
       y="0.5"
       width="271"
       height="640" /></defs><g
     inkscape:label="backgorund"
     id="layer1-4"
     style="display:inline"
     transform="matrix(1.4846148,0,0,1.4846148,-6.5868068,-11.562895)"><image
       width="290.74533"
       height="203.2"
       preserveAspectRatio="none"
       xlink:href="../../Spra%CC%8Aken_i_Mellano%CC%88stern/Satellite_relief_map_of_Middle_East_saturated.png"
       id="image1-1"
       x="-50.240326"
       y="-14.289444"
       style="display:inline" /></g><g
     id="layer3"
     inkscape:label="Semitic"
     style="display:none"
     transform="matrix(1.4846148,0,0,1.4846148,-6.5868068,-11.562895)"><path
       id="path3"
       style="fill:#d1b029;fill-opacity:0.46;stroke:none;stroke-width:0.264583px;stroke-linecap:butt;stroke-linejoin:miter;stroke-opacity:1"
       d="m 87.171423,46.26436 -0.667142,0.889868 -4.338237,0.444934 -3.003434,3.114538 -3.893303,-2.113049 -1.55701,1.000973 -4.449341,1.000972 -1.557528,2.5585 1.112594,1.779737 -1.00149,3.781681 -3.781681,8.899198 c 0,0 -0.399929,0.755861 -0.515731,0.990637 0.394981,-0.128417 0.769986,-0.266431 0.816488,-0.551904 0.01317,-0.08039 0.02143,-0.161656 0.03669,-0.241846 0.01089,-0.05866 0.02222,-0.117456 0.03152,-0.176216 0.0016,-0.01349 0.0054,-0.0268 0.01189,-0.03772 0.03258,-0.05674 0.03694,-0.121131 0.04703,-0.183451 0.01772,-0.112569 0.03311,-0.225051 0.06305,-0.33538 0.0091,-0.0349 0.02218,-0.06778 0.04341,-0.09767 0.04444,-0.0632 0.107921,-0.06871 0.161231,-0.0124 0.06527,0.07034 0.117602,0.07211 0.188102,0.0062 0.07691,-0.07102 0.12717,-0.155509 0.14211,-0.261483 0.0051,-0.03839 0.0107,-0.07596 0.0155,-0.113688 0.0022,-0.01664 -0.0011,-0.03031 -0.0093,-0.04444 -0.04572,-0.07389 -0.04611,-0.146719 -0.0078,-0.225309 0.04495,-0.09028 0.07176,-0.18742 0.102319,-0.28267 0.0341,-0.107524 0.06649,-0.215121 0.0832,-0.327112 0.0043,-0.02805 0.0062,-0.05481 0.0016,-0.08217 -0.003,-0.02018 -0.0107,-0.04479 10e-4,-0.06046 0.0084,-0.01058 0.02182,-4.16e-4 0.03152,0.0026 0.07289,0.01967 0.146045,0.03639 0.219625,0.04961 0.07558,0.01329 0.149979,0.0035 0.225309,-0.0041 8e-4,-1.35e-4 0.0026,-7.93e-4 0.0036,-5.16e-4 0.09583,7.9e-4 0.188047,-0.02653 0.281637,-0.04496 0.05271,-0.01051 0.09847,0.0016 0.139526,0.04031 0.04434,0.0405 0.08864,0.08169 0.130742,0.125057 0.01202,0.0133 0.02468,0.02105 0.04134,0.02635 0.02723,0.0086 0.05398,0.01575 0.08165,0.02015 0.06029,0.01057 0.117239,6.19e-4 0.171049,-0.02687 0.09032,-0.04738 0.180481,-0.0947 0.269751,-0.14211 0.06219,-0.03235 0.107396,-0.07834 0.136426,-0.144178 0.02925,-0.0667 0.06198,-0.132138 0.0801,-0.203088 0.0085,-0.03303 0.01194,-0.0657 0.01033,-0.09974 -0.0023,-0.06029 0.0093,-0.11998 0.02067,-0.1788 0.01623,-0.08728 0.03293,-0.174392 0.06098,-0.258382 0.0099,-0.02998 0.02137,-0.05811 0.04031,-0.08372 0.0303,-0.0406 0.0669,-0.04285 0.101286,-0.0057 0.0087,0.0096 0.01619,0.02002 0.02429,0.031 0.02055,0.02638 0.01844,0.05163 0.05064,0.05633 0.05579,0.01072 0.161437,-0.05671 0.216007,-0.0739 0.02844,-0.0092 0.08913,-0.01922 0.115239,-0.03462 0.01686,-0.0087 0.04161,-0.04306 0.05839,-0.05323 0.02125,-0.01292 0.0725,-0.02474 0.09043,-0.04341 0.02156,-0.02108 0.02973,-0.09393 0.05323,-0.111104 0.03175,-0.02279 0.113865,-0.01457 0.152445,-0.01447 0.03222,6.3e-4 0.09843,0.0019 0.128675,0.0155 0.03801,0.01751 0.122191,0.06919 0.129191,0.113689 0.0045,0.03483 -0.05465,0.0883 -0.07131,0.118339 -0.01307,0.02434 -0.05476,0.07375 -0.04806,0.101285 0.0088,0.0337 0.09161,0.04683 0.109037,0.07648 0.03179,0.05548 -0.0033,0.201582 0.02739,0.256831 0.0136,0.02461 0.07455,0.04109 0.0863,0.06666 0.02027,0.0465 0.0034,0.157126 -0.01085,0.206706 -0.01525,0.05049 -0.111236,0.130028 -0.102836,0.182418 0.0054,0.03158 0.07496,0.05308 0.09302,0.07906 0.02942,0.04271 0.06408,0.14528 0.07338,0.19792 0.01442,0.08027 -0.01699,0.246852 0,0.327112 0.01461,0.06983 0.100699,0.187416 0.115239,0.257865 l 0.001,-0.001 c 0.01168,0.05862 0.03355,0.195652 -0.0041,0.239262 -0.01586,0.01767 -0.07509,-0.01049 -0.09095,0.0072 -0.0092,0.01131 0.0039,0.04636 -5.17e-4,0.06046 -0.0084,0.02576 -0.05373,0.06067 -0.06253,0.0863 -0.01965,0.06073 0.01416,0.195295 -0.0041,0.256315 -0.02643,0.08732 -0.14224,0.22882 -0.19482,0.30024 -0.02377,0.03231 -0.07163,0.09651 -0.101286,0.122473 -0.04057,0.0357 -0.136401,0.08603 -0.181901,0.113688 -0.02955,0.01802 -0.08738,0.05907 -0.119372,0.07235 -0.03948,0.0172 -0.104591,0.03172 -0.164331,0.04393 0.01551,0.02154 0.01204,0.04638 -0.01137,0.06615 -0.01543,0.0132 -0.03339,0.02204 -0.05219,0.02894 -0.04306,0.01619 -0.08684,0.03029 -0.132809,0.03359 -0.04085,0.0039 -0.07086,0.02026 -0.09095,0.05788 -0.02371,0.04334 -0.05518,0.07948 -0.09147,0.112138 -0.0112,0.0088 -0.01962,0.02153 -0.02842,0.03204 -0.005,-0.01346 -0.03724,0.121374 -0.03514,0.108004 0.0107,0.102245 0.0089,0.301393 -0.04703,0.424263 -0.07327,0.161053 0.02207,0.506013 -0.03721,0.693498 -0.0051,0.01601 0.0011,0.02321 -0.0072,0.03772 -0.0017,0.0037 -0.0036,0.0073 -0.0052,0.01033 6e-4,-0.0045 9.68e-4,-0.0084 0.0015,-0.0124 -0.07787,-0.01751 -0.154157,-0.04147 -0.228927,-0.06925 -0.07701,-0.02912 -0.153737,-0.02984 -0.230477,10e-4 -0.0503,0.0195 -0.08054,0.0058 -0.103352,-0.04289 -0.01484,-0.03015 -0.01964,-0.06378 -0.02584,-0.09664 -0.0088,-0.04942 -0.0018,-0.09852 -0.0026,-0.147278 -0.0015,-0.07188 -0.01386,-0.140859 -0.03876,-0.207739 -0.02099,-0.05488 -0.06166,-0.08653 -0.119372,-0.09353 -0.0221,-0.0019 -0.04436,-0.0033 -0.06666,-0.0021 -0.05866,0.004 -0.11683,0.01562 -0.17415,0.02532 -0.107626,0.01829 -0.203933,-0.0023 -0.282153,-0.08423 -0.02294,-0.02475 -0.04806,-0.04675 -0.07131,-0.06976 -0.01632,-0.01572 -0.03215,-0.03142 -0.04858,-0.04703 -0.02122,-0.02018 -0.03006,-0.02082 -0.05064,-10e-4 -0.02281,0.02095 -0.04394,0.04318 -0.06615,0.06459 -0.01851,0.01739 -0.03486,0.03647 -0.05478,0.05116 -0.126845,0.0909 -0.246556,0.192951 -0.382922,0.269751 -0.02659,0.01463 -0.05157,0.03351 -0.077,0.05064 -0.03098,0.02091 -0.05502,0.0489 -0.07906,0.077 -0.0077,0.0088 -0.01033,0.01712 -0.0098,0.02894 4e-4,0.03374 -0.0091,0.06435 -0.02377,0.09405 -0.0092,0.01743 -0.01555,0.03685 -0.02015,0.05684 -0.01829,0.07543 -0.0318,0.152996 -0.05374,0.227376 -0.0083,0.02877 -0.01831,0.05732 -0.04651,0.07286 -0.0066,0.0046 -0.01104,0.01229 -0.01654,0.01809 -0.03474,0.04917 -0.06259,0.102066 -0.0832,0.158646 -0.0068,0.01899 -0.007,0.03721 -0.0036,0.05684 0.0096,0.04803 0.01609,0.09702 0.02635,0.144694 0.01781,0.08777 3.03e-4,0.169244 -0.03566,0.248564 -0.01804,0.0383 -0.04277,0.07113 -0.077,0.09663 -0.02902,0.0224 -0.05637,0.04762 -0.08113,0.07493 -0.01424,0.01639 -0.02602,0.03378 -0.03462,0.05374 -0.0095,0.02329 -0.01168,0.04705 5.17e-4,0.06976 0.03313,0.05638 0.04956,0.119091 0.06408,0.181901 0.01991,0.08679 0.03882,0.173657 0.03979,0.262517 2.8e-4,0.07221 0.0083,0.14323 0.01602,0.21549 0.0067,0.05939 0.0135,0.119551 0.0186,0.178801 0.0016,0.02039 0.005,0.04081 -0.0062,0.05943 -0.03462,0.05704 -0.04817,0.122185 -0.06356,0.186035 -0.0094,0.0418 -0.0055,0.07749 0.02739,0.111621 0.04654,0.04813 0.083,0.104235 0.108521,0.166915 0.01579,0.0372 0.02432,0.07549 0.01602,0.115755 -0.0081,0.04015 -0.02721,0.06965 -0.0708,0.07855 -0.05289,0.01072 -0.10473,0.027 -0.155029,0.04806 -0.01623,0.0073 -0.03208,0.01431 -0.04651,0.02532 -0.0096,0.0069 -0.01465,0.01415 -0.01085,0.02739 0.0075,0.02687 0.0044,0.0552 0.0041,0.08268 -2e-4,0.02013 4.67e-4,0.04085 0.0052,0.06098 0.0041,0.01925 0.01451,0.03259 0.03566,0.03359 0.04303,0.0036 0.0866,0.0072 0.130225,0.0078 0.08431,8.09e-4 0.149183,-0.035 0.192753,-0.110588 0.0038,-0.0075 0.0082,-0.01435 0.01344,-0.02015 0.03124,-0.042 0.07403,-0.05105 0.118856,-0.02636 0.01075,0.007 0.02222,0.01374 0.03152,0.02274 0.01252,0.01262 0.02599,0.01995 0.04134,0.02635 0.09315,0.03923 0.188411,0.074 0.287321,0.09922 0.04484,0.01103 0.07935,0.0087 0.12299,-0.01499 0.02858,-0.01603 0.05154,-0.02814 0.08061,-0.03876 l -0.0062,-0.05788 c 0,0 0.002,-0.05419 -0.0026,-0.07183 -0.004,-0.01553 -0.02991,-0.04061 -0.02997,-0.05788 -0.001,-0.016 0.01773,-0.04724 0.0279,-0.05994 0.01154,-0.01394 0.04123,-0.04119 0.05891,-0.04186 0.01053,-8e-5 0.02917,0.01487 0.03617,0.02377 0.01052,0.01452 0.01562,0.05367 0.01912,0.07183 0.003,0.01522 0.0066,0.04428 0.0083,0.05943 0.0022,0.01632 0.0098,0.06821 0.0098,0.06821 0,0 0.02239,0.0033 0.03049,0.0047 0.0098,8e-4 0.0291,0.0019 0.03927,0.0036 0.0087,0.0027 0.02691,0.0085 0.03411,0.0155 0.0047,0.0039 0.0099,0.01444 0.01292,0.01964 0.0038,0.008 0.0155,0.03204 0.0155,0.03204 l -0.01705,0.07338 c 0,0 -0.02052,0.0078 -0.01912,0.0217 0.0018,0.0095 0.01874,0.0028 0.02274,0.01137 0.0077,0.0168 0.01592,0.07108 0.0098,0.0894 -0.0042,0.01226 -0.02816,0.03643 -0.03256,0.04858 -0.0039,0.01056 0.0071,0.03032 0.0052,0.04134 -0.0028,0.0082 -0.02137,0.02962 -0.02377,0.03772 -0.0033,0.01452 -0.0022,0.02356 0.0016,0.03824 0.0035,0.01632 0.03701,0.06152 0.03411,0.07855 -0.0026,0.01663 -0.04116,0.03548 -0.04806,0.05064 -0.0058,0.01347 0.0072,0.04247 10e-4,0.05529 -0.0083,0.01731 -0.05101,0.02607 -0.05891,0.04393 -0.0068,0.01527 0.0016,0.0397 0.0026,0.05633 0,0 -0.01089,0.03322 -0.04393,0.0047 -0.0056,-0.0046 -0.0023,-0.0049 -0.0093,-0.0047 -0.01,-9.2e-4 -0.01767,0.01465 -0.02687,0.01705 -0.0079,0.0026 -0.03302,0.0028 -0.04082,0 -0.01486,-0.0049 -0.0298,-0.03426 -0.04548,-0.03256 -0.01165,0.001 -0.0117,0.02571 -0.02222,0.03101 -0.0096,0.0045 -0.0687,-0.0026 -0.09405,-0.0057 9.09e-4,-0.0115 6.84e-4,-0.02253 -5.16e-4,-0.03462 -0.0015,-0.01984 -0.0056,-0.03823 -0.02635,-0.04703 -0.0209,-0.0077 -0.03729,-0.02088 -0.04599,-0.04237 -0.0029,-0.0082 -0.0082,-0.01129 -0.0155,-0.0088 -0.05051,0.0196 -0.103902,0.03161 -0.149862,0.06201 -0.116525,0.0768 -0.233682,0.152924 -0.350883,0.229444 -0.06722,0.0442 -0.135044,0.08786 -0.198954,0.135909 -0.01491,0.01076 -0.02922,0.02116 -0.03772,0.03772 -0.06521,0.116282 -0.127964,0.235013 -0.178284,0.358635 -0.0062,0.01511 -0.0106,0.02957 -0.01085,0.04547 -0.0031,0.08089 -0.01263,0.160856 -0.02687,0.240295 -0.0097,0.05476 -0.02058,0.110491 -0.04961,0.159681 -0.06211,0.105209 -0.118336,0.212684 -0.176216,0.319877 -0.0081,0.01525 -0.01507,0.03043 -0.02067,0.04599 -0.01457,0.04382 -0.01087,0.08438 0.0186,0.121439 0.04814,0.06132 0.09411,0.124102 0.140559,0.185002 0.007,0.0091 0.01462,0.01625 0.02222,0.02325 0.01282,0.0114 0.02596,0.01319 0.04134,0.0031 0.02686,-0.01723 0.056,-0.03171 0.08217,-0.05013 0.02893,-0.01826 0.05945,-0.02764 0.0925,-0.03204 0.107002,-0.0123 0.213466,-0.01032 0.320394,-0.0036 0.05383,0.0029 0.10755,0.0078 0.16123,0.0124 0.08995,0.0078 0.177957,-0.01055 0.265617,-0.02635 0.06843,-0.01264 0.135695,-0.02931 0.205155,-0.03411 0.141852,-0.0094 0.260276,-0.06949 0.348816,-0.185002 0.0076,-0.0095 0.01614,-0.01737 0.02584,-0.02377 0.119025,-0.07763 0.234045,-0.162513 0.349849,-0.243912 0.02904,-0.02044 0.05819,-0.04029 0.08785,-0.06046 0.0076,-0.09786 0.02845,-0.193811 0.06511,-0.285771 0.02321,-0.05948 0.03429,-0.122038 0.03411,-0.185518 -2.7e-4,-0.06559 -0.0077,-0.131227 -0.02429,-0.195337 -0.0049,-0.01921 -0.0032,-0.03388 0.0052,-0.05168 0.04547,-0.09317 0.0901,-0.18688 0.134359,-0.28112 0.04495,-0.09424 0.08888,-0.188877 0.133325,-0.283187 -0.09363,0.681059 -0.13244,1.457022 -0.15813,2.032951 -0.0071,0.160196 -0.145993,0.363992 -0.141593,0.494027 0.0016,0.04716 0.09488,0.01214 0.108004,0.07493 0.04435,0.211834 0.132569,0.486489 0.119889,0.645956 -0.0084,0.103159 -0.06544,0.194625 -0.103353,0.289905 -0.04303,0.108678 -0.06556,0.219383 -0.07286,0.33538 -0.0023,0.04803 -0.01269,0.0954 -0.02894,0.141076 -0.02015,0.0568 -0.05242,0.103323 -0.09974,0.140043 -0.03617,0.02782 -0.07028,0.05658 -0.105937,0.08423 -0.07806,0.06104 -0.113173,0.144103 -0.122473,0.242362 -0.0076,0.07702 -0.01135,0.155494 -0.03204,0.230994 -0.01513,0.05278 -0.03826,0.100879 -0.07958,0.137459 -0.0076,0.0063 -0.01275,0.01222 -0.01705,0.02222 -0.0595,0.152644 -0.123168,0.304017 -0.164848,0.463021 -0.0098,0.03749 -0.02301,0.07292 -0.03876,0.107487 -0.07874,0.171982 -0.160497,0.342143 -0.230477,0.517798 -0.09464,0.236534 -0.171499,0.479067 -0.223759,0.729671 -0.0045,0.02226 -0.0075,0.04508 -0.01033,0.0677 -0.0053,0.04551 -0.0019,0.09028 0.01602,0.134359 0.01656,0.04209 0.03155,0.08459 0.04341,0.129191 0.02197,0.08279 0.01543,0.162639 -0.02429,0.239779 -0.0373,0.07237 -0.07072,0.147052 -0.09457,0.224792 -0.0432,0.143932 -0.04816,0.287474 -0.0098,0.433049 0.02237,0.08548 0.04595,0.171429 0.05891,0.258899 0.007,0.04541 0.01239,0.09028 0.0016,0.136425 -0.0063,0.02624 -0.01582,0.05025 -0.03359,0.07028 -0.03379,0.03536 -0.05932,0.0771 -0.0832,0.120406 -0.09075,0.162539 -0.170356,0.330443 -0.241846,0.502812 -0.02934,0.07035 -0.04147,0.145165 -0.05478,0.219625 -0.02777,0.158521 -0.04601,0.317928 -0.07235,0.47594 -0.01567,0.09536 -0.04223,0.186765 -0.0801,0.275435 -0.06591,0.155371 -0.125604,0.312944 -0.162264,0.478524 -0.005,0.02111 -0.0089,0.04233 -0.0098,0.06408 -0.0055,0.139356 -0.04695,0.269004 -0.100252,0.394291 -0.04465,0.106355 -0.0887,0.212331 -0.128158,0.319877 -0.0046,0.01046 -0.0067,0.02149 -0.02222,0.02429 -0.03023,0.0053 -0.0528,0.0246 -0.07286,0.04703 -0.02206,0.02516 -0.03811,0.05495 -0.05168,0.08578 -0.02182,0.05127 -0.04028,0.138241 -0.0956,0.133841 -0.112038,-0.0091 -0.141038,-0.184554 -0.185518,-0.292488 -0.01998,-0.04907 -0.02722,-0.09869 -0.02222,-0.151412 0.0064,-0.07207 0.0123,-0.143478 0.01137,-0.216008 -3e-4,-0.07583 -0.0094,-0.149978 -0.03411,-0.222208 -0.03812,-0.116419 -0.0597,-0.237296 -0.07131,-0.359151 -0.0018,-0.01536 -0.0041,-0.03104 -0.0088,-0.04548 -0.225629,-0.726549 -0.439559,-1.456767 -0.656808,-2.18643 -0.0902,-0.302582 -0.182477,-0.603932 -0.286804,-0.90227 -0.01353,-0.03915 -0.03038,-0.07809 -0.04599,-0.116789 -0.0065,-0.01872 -0.01887,-0.0326 -0.03359,-0.04548 -0.06268,-0.05176 -0.123016,-0.107112 -0.176216,-0.170532 -0.02873,-0.03511 -0.05588,-0.0712 -0.07597,-0.112138 -0.02295,-0.04778 -0.02844,-0.09516 0,-0.143661 0.0061,-0.0099 0.0093,-0.02205 0.01499,-0.03256 0.03566,-0.08226 0.03331,-0.163472 -0.0093,-0.242362 -0.05584,-0.104508 -0.07857,-0.217431 -0.08217,-0.334863 -0.0022,-0.06321 -0.01253,-0.123782 -0.03049,-0.183452 -0.113088,-0.368439 -0.224915,-0.73716 -0.353467,-1.100191 -0.02606,-0.07481 -0.05732,-0.149332 -0.08733,-0.223242 -0.02254,-0.0559 -0.03631,-0.113629 -0.05323,-0.171049 -0.163952,-0.559107 -0.328043,-1.118469 -0.492476,-1.677417 -0.06206,-0.211096 0.182252,-0.183728 0.119373,-0.394291 -0.0074,-0.02253 -0.17519,0.100692 -0.15658,0.08423 0.292033,-0.260543 1.151095,-1.080992 1.424202,-1.362707 0.07817,-0.08005 0.04419,-1.566727 -0.561722,-1.240235 l 0.186552,-1.555977 c -1.052614,1.916739 -2.30982,3.976037 -3.204973,4.542358 0,0 -2.58732,0.519172 -3.981152,0.553972 -0.626951,0.01565 -0.496232,-0.393071 -0.675928,-0.424781 -0.681404,0.03407 -1.569549,0.459549 -2.182812,0.59583 C 51.789743,75.82616 50.312976,74.824535 49.018309,74.517903 48.21663,73.851599 47.483179,74.07852 46.6815,73.964965 45.925897,73.857936 45.101846,73.398987 44.346242,73.183101 l -5.784143,1.890841 -4.115511,1.891357 -2.89233,-0.66766 -3.892785,-1.112076 h -2.002462 l -8.453748,-1.891358 -3.448368,0.66766 -0.222209,-1.557528 -2.447395,-1.000972 -4.6720667,-0.444935 -3.1145386,-1.445906 0.1116211,-1.223698 -3.4483683,-0.889868 -4.5609619,3.782198 -0.1111043,78.864954 c 0,0 -0.463541,16.99513 -0.018604,17.21755 0.4449377,0.22247 25.7912847,1.85503 26.1586107,3.13831 0.702163,2.45305 4.356337,5.92202 10.460343,5.84202 5.499717,-0.0721 13.46822,-5.30208 16.570048,-6.17585 9.954174,-2.80404 17.352429,-9.45472 17.352429,-9.45472 l 14.237891,-18.13119 11.791012,6.22908 9.232508,13.23691 7.78609,10.45621 22.46943,-2.5585 c 0,0 25.25598,-14.22252 43.42939,-26.65212 10.62355,-7.2659 18.24133,-15.34691 18.52858,-15.83934 0.77864,-1.33481 0.77851,-6.7855 0.55604,-7.7866 -0.22247,-1.00111 -9.90017,-7.45278 -9.90017,-7.45278 l -10.01076,-12.235427 -1.264,0.965827 -2.70888,3.33985 -3.06028,3.05356 -1.82366,1.08159 -1.51464,2.30684 -1.67741,0.10852 -3.85817,0.1266 -2.89181,0.5855 -1.97042,0.42219 -2.41019,0.44132 -0.42426,-1.37356 -0.66198,0.0987 -0.88212,-1.89652 0.53951,-1.11466 0.0527,-2.37143 -0.52659,-0.96635 0.74259,-1.90325 -1.6893,-1.45882 -0.8692,-0.0656 -1.21698,1.00459 -0.38137,1.60197 -0.71158,-0.0155 -0.3111,-0.57413 0.14315,-2.0066 -0.81856,-0.52348 -0.93379,0.86352 -0.79633,-2.620516 -9.34362,-10.567313 -1.45831,-3.326412 -1.56941,-0.164331 1.02578,-0.736389 1.47587,-0.09405 0.76688,-0.880049 3.20601,0.02842 1.36426,-2.242241 0.77979,0.183452 0.26872,0.661975 1.81591,-1.050065 -0.33383,-1.278992 c 0,0 -0.7785,-2.225056 -1.00097,-2.781225 -0.22247,-0.55617 -0.55643,-0.778633 -1.11259,-1.334803 -0.55617,-0.556168 -2.66961,-2.891813 -2.66961,-2.891813 l -1.44591,-3.114538 -3.00343,-1.112594 -4.44934,-0.444934 h -1.3348 l -1.33481,-0.889868 -1.55752,-2.5585 -3.00292,-1.223182 -1.00149,-0.778763 -1.11208,-2.89233 -2.00246,-1.000973 -1.3348,-1.334802 -1.2237,-3.225643 -1.89084,-2.002462 -4.78317,-2.22467 -2.55798,0.111104 -1.55753,0.889868 -1.890839,1.112594 -3.114539,-1.000973 -1.385445,0.07183 -2.113049,-1.134298 -1.184941,-0.667143 -1.657263,-0.82889 -1.223181,-1.001489 -0.556555,-0.889868 z M 62.345549,70.865442 c 0.632443,-1.151638 0.910165,-1.719061 1.173571,-2.253093 -0.434279,0.141195 -0.892817,0.270701 -0.971517,0.568958 z" /><path
       fill="#fef2db"
       stroke="#231f20"
       d="m 68.582993,66.413255 c -0.01454,-0.07045 -0.100553,-0.188448 -0.115166,-0.25828 -0.01699,-0.08026 0.01431,-0.246636 -1.1e-4,-0.326902 -0.0093,-0.05264 -0.04419,-0.155156 -0.07361,-0.197871 -0.01806,-0.02598 -0.08752,-0.04764 -0.09296,-0.07922 -0.0084,-0.05239 0.08783,-0.131652 0.103085,-0.182138 0.01422,-0.04958 0.03097,-0.160385 0.0107,-0.206881 -0.01175,-0.02557 -0.07283,-0.04198 -0.08643,-0.06659 -0.03072,-0.05525 0.0043,-0.201706 -0.02749,-0.257181 -0.01743,-0.02965 -0.100139,-0.04281 -0.108979,-0.07651 -0.0067,-0.02754 0.03499,-0.07691 0.04806,-0.101248 0.01666,-0.03004 0.07617,-0.08332 0.07166,-0.118147 -0.007,-0.0445 -0.09141,-0.09614 -0.129417,-0.113653 -0.03025,-0.01356 -0.09647,-0.01511 -0.128686,-0.01574 -0.03858,-9.7e-5 -0.120816,-0.0079 -0.152562,0.01489 -0.0235,0.01717 -0.0313,0.08972 -0.05286,0.110803 -0.01793,0.01867 -0.06918,0.03055 -0.09043,0.04347 -0.01678,0.01017 -0.04163,0.04441 -0.05849,0.05316 -0.02611,0.0154 -0.08707,0.02547 -0.115509,0.03469 -0.05457,0.01719 -0.160223,0.08465 -0.216009,0.07393 -0.0322,-0.0047 -0.0299,-0.02998 -0.05045,-0.05636 -0.0081,-0.01099 -0.01568,-0.02123 -0.02437,-0.03086 -0.03439,-0.03717 -0.07073,-0.0351 -0.101031,0.0055 -0.01894,0.02561 -0.03049,0.05392 -0.04037,0.0839 -0.02805,0.08399 -0.04491,0.171164 -0.06114,0.258445 -0.01136,0.05882 -0.02269,0.118163 -0.02041,0.17845 0.0016,0.03404 -0.0021,0.06679 -0.01062,0.09982 -0.01812,0.07095 -0.05057,0.136356 -0.07982,0.203058 -0.02903,0.06584 -0.07469,0.111901 -0.136882,0.144253 -0.08927,0.04741 -0.179009,0.09477 -0.269327,0.142153 -0.05381,0.02749 -0.110852,0.03756 -0.171144,0.02699 -0.02767,-0.0044 -0.05451,-0.01164 -0.08174,-0.0202 -0.01666,-0.0053 -0.02937,-0.01329 -0.04139,-0.02659 -0.0421,-0.04337 -0.08623,-0.08456 -0.130571,-0.125063 -0.04106,-0.03874 -0.08707,-0.05039 -0.139779,-0.03988 -0.09359,0.01843 -0.185701,0.04564 -0.281529,0.04485 -9.88e-4,-2.77e-4 -0.0027,1.83e-4 -0.0035,3.18e-4 -0.07533,0.0076 -0.14972,0.01759 -0.225302,0.0043 -0.07358,-0.01322 -0.147043,-0.03015 -0.219933,-0.04982 -0.0097,-0.003 -0.02312,-0.01328 -0.03155,-0.0027 -0.01173,0.01567 -0.0036,0.04033 -6.33e-4,0.06051 0.0046,0.02736 0.0026,0.05408 -0.0017,0.08213 -0.01671,0.111991 -0.0492,0.219814 -0.0833,0.327338 -0.03056,0.09525 -0.05727,0.192272 -0.102223,0.282557 -0.03836,0.07859 -0.03782,0.151603 0.0079,0.225494 0.0082,0.01413 0.01164,0.02752 0.0094,0.04416 -0.0048,0.03773 -0.0107,0.07531 -0.01578,0.113699 -0.01494,0.105974 -0.06506,0.190831 -0.141974,0.261854 -0.0705,0.06591 -0.123028,0.06404 -0.188302,-0.0063 -0.05331,-0.05631 -0.116741,-0.0511 -0.161186,0.0121 -0.02123,0.02989 -0.03447,0.0629 -0.04359,0.0978 -0.02993,0.110329 -0.04521,0.222778 -0.06293,0.335347 -0.01009,0.06232 -0.01422,0.126884 -0.0468,0.183628 -0.0065,0.01092 -0.01041,0.02406 -0.01205,0.03755 -0.0093,0.05876 -0.0207,0.11749 -0.03159,0.176152 -0.01526,0.08019 -0.02329,0.161826 -0.03646,0.242211 -0.09763,0.599349 -1.637872,0.551303 -1.788149,1.120828 l -0.388448,3.239807 c 0.605914,-0.326493 0.63996,1.160258 0.561793,1.240304 -0.273108,0.281716 -1.132122,1.102015 -1.424155,1.362558 -0.01861,0.01646 0.149091,-0.10663 0.156451,-0.0841 0.06288,0.210564 -0.181595,0.183549 -0.119531,0.394645 0.164433,0.558949 0.328563,1.117936 0.492516,1.677043 0.01692,0.05742 0.03063,0.115511 0.05317,0.17141 0.03001,0.07391 0.06136,0.14814 0.08742,0.22295 0.128552,0.363031 0.240105,0.731882 0.353193,1.100322 0.01796,0.05967 0.02847,0.119923 0.03067,0.183138 0.0036,0.117433 0.0262,0.230602 0.08204,0.33511 0.04261,0.07889 0.04496,0.159902 0.0093,0.242157 -0.0057,0.01051 -0.0088,0.02285 -0.01495,0.03277 -0.02844,0.0485 -0.02268,0.09601 2.75e-4,0.143794 0.02009,0.04094 0.04735,0.07699 0.07608,0.112101 0.0532,0.06342 0.113509,0.118826 0.17619,0.170583 0.01472,0.01288 0.02685,0.02672 0.03338,0.04544 0.01561,0.0387 0.03228,0.07761 0.04581,0.116755 0.104327,0.298338 0.196678,0.599841 0.286874,0.902424 0.217249,0.729663 0.431206,1.45965 0.656835,2.1862 0.0047,0.01444 0.0071,0.03004 0.0089,0.0454 0.01161,0.121856 0.03338,0.242723 0.0715,0.359142 0.02473,0.07223 0.03385,0.146344 0.03415,0.222174 9.32e-4,0.07253 -0.0052,0.143812 -0.01156,0.215879 -0.005,0.05272 0.002,0.102711 0.02198,0.151778 0.04448,0.107934 0.07371,0.283444 0.185748,0.29258 0.05532,0.0044 0.07399,-0.08266 0.09581,-0.133931 0.01357,-0.03083 0.02958,-0.06061 0.05164,-0.08577 0.02006,-0.02243 0.0423,-0.04209 0.07253,-0.04735 0.01551,-0.0028 0.01796,-0.01372 0.02253,-0.02418 0.03946,-0.107546 0.08355,-0.213604 0.128198,-0.319959 0.0533,-0.125287 0.09443,-0.255003 0.09995,-0.394359 9.28e-4,-0.02175 0.0047,-0.04281 0.0097,-0.06392 0.03666,-0.16558 0.09669,-0.323006 0.162601,-0.478377 0.03787,-0.08867 0.06406,-0.180029 0.07973,-0.27539 0.02634,-0.158012 0.04501,-0.317656 0.07278,-0.476177 0.01331,-0.07446 0.02506,-0.149133 0.0544,-0.219485 0.07149,-0.172369 0.151103,-0.340454 0.241851,-0.502993 0.02388,-0.04331 0.04933,-0.0849 0.08312,-0.120257 0.01777,-0.02003 0.02769,-0.04412 0.03402,-0.07036 0.01084,-0.04615 0.005,-0.09075 -0.002,-0.13616 -0.01296,-0.08747 -0.0361,-0.173424 -0.05847,-0.258905 -0.03834,-0.145575 -0.0334,-0.289343 0.0098,-0.433275 0.02385,-0.07774 0.05684,-0.152222 0.09414,-0.224594 0.03972,-0.07714 0.0466,-0.1571 0.02463,-0.239894 -0.01186,-0.0446 -0.02672,-0.08738 -0.04328,-0.129466 -0.01796,-0.04408 -0.02183,-0.08883 -0.01648,-0.134342 0.0028,-0.02262 0.006,-0.04499 0.01052,-0.06725 0.05226,-0.250604 0.129314,-0.493448 0.223953,-0.729982 0.06998,-0.175655 0.151687,-0.345937 0.230428,-0.517919 0.01575,-0.03457 0.02907,-0.06955 0.03883,-0.107043 0.04168,-0.159004 0.105358,-0.310392 0.164862,-0.463036 0.0043,-0.01 0.0094,-0.01639 0.01699,-0.02267 0.04132,-0.03658 0.0643,-0.08462 0.07943,-0.137402 0.02069,-0.0755 0.02422,-0.153895 0.03186,-0.23091 0.0093,-0.09826 0.0447,-0.181064 0.122763,-0.242099 0.03566,-0.02765 0.06971,-0.05668 0.105879,-0.0845 0.04732,-0.03672 0.07953,-0.08335 0.09968,-0.140153 0.01625,-0.04568 0.02657,-0.0928 0.02885,-0.140829 0.0073,-0.115997 0.02986,-0.226641 0.07289,-0.33532 0.03791,-0.09528 0.09518,-0.186781 0.103573,-0.28994 0.01268,-0.159467 -0.0757,-0.434109 -0.120049,-0.645943 -0.01312,-0.06279 -0.106496,-0.02763 -0.108124,-0.07479 -0.0044,-0.130035 0.134752,-0.334012 0.141895,-0.494208 0.02569,-0.575929 0.06459,-1.351773 0.158216,-2.032833 -0.04445,0.09431 -0.08875,0.188748 -0.133697,0.282984 -0.04426,0.09424 -0.08889,0.187764 -0.134363,0.280933 -0.0084,0.0178 -0.0097,0.0327 -0.0048,0.05191 0.01655,0.06411 0.02389,0.129527 0.02416,0.195115 1.87e-4,0.06348 -0.01094,0.126411 -0.03415,0.185893 -0.03666,0.09196 -0.05751,0.187568 -0.06512,0.285427 -0.02966,0.02017 -0.05902,0.0403 -0.08806,0.06074 -0.115804,0.0814 -0.230815,0.166083 -0.349841,0.243713 -0.0097,0.0064 -0.01818,0.01442 -0.02579,0.02392 -0.08854,0.115511 -0.206811,0.175727 -0.348663,0.18514 -0.06946,0.0048 -0.13674,0.02125 -0.205174,0.03389 -0.08766,0.0158 -0.175846,0.03436 -0.265796,0.02652 -0.05368,-0.0046 -0.107118,-0.0097 -0.160943,-0.0126 -0.106928,-0.0067 -0.213702,-0.0084 -0.320704,0.0039 -0.03305,0.0044 -0.06361,0.01346 -0.09254,0.03172 -0.02617,0.01842 -0.05505,0.03275 -0.08191,0.04998 -0.01538,0.01009 -0.02861,0.0086 -0.04143,-0.0028 -0.0076,-0.007 -0.0151,-0.01418 -0.02208,-0.02333 -0.04645,-0.0609 -0.09225,-0.123455 -0.140388,-0.184772 -0.02947,-0.03706 -0.03352,-0.07761 -0.01895,-0.121429 0.0056,-0.01556 0.01247,-0.03092 0.02053,-0.04617 0.05788,-0.107193 0.114548,-0.214517 0.176658,-0.319726 0.02903,-0.04919 0.03947,-0.105252 0.04922,-0.160016 0.01424,-0.07944 0.02418,-0.159147 0.02729,-0.240033 2.48e-4,-0.01591 0.0043,-0.03044 0.01051,-0.04555 0.05032,-0.123622 0.113329,-0.242309 0.178536,-0.358591 0.0085,-0.01656 0.02293,-0.02694 0.03784,-0.0377 0.06391,-0.04805 0.131738,-0.09166 0.198953,-0.135855 0.117201,-0.07652 0.233921,-0.152874 0.350446,-0.229676 0.04596,-0.0304 0.0994,-0.04212 0.149905,-0.06172 0.0073,-0.0025 0.01277,2.18e-4 0.01566,0.0084 0.0087,0.02149 0.02492,0.03484 0.04582,0.04256 0.02074,0.0088 0.02525,0.0269 0.02671,0.04674 0.0012,0.01209 0.0011,0.02356 1.91e-4,0.03506 0.02535,0.0031 0.08439,0.01009 0.09396,0.0056 0.01052,-0.0053 0.01088,-0.0299 0.02253,-0.0309 0.01568,-0.0017 0.03072,0.02745 0.04558,0.03231 0.0078,0.0028 0.03267,0.0029 0.04061,2.66e-4 0.0092,-0.0024 0.01711,-0.01833 0.02706,-0.01741 0.007,-2.12e-4 0.0037,1.12e-4 0.0093,0.0047 0.03303,0.02857 0.04387,-0.0046 0.04387,-0.0046 -0.001,-0.01663 -0.0093,-0.04117 -0.0025,-0.05644 0.0079,-0.01785 0.05031,-0.02663 0.05863,-0.04394 0.0062,-0.01282 -0.0067,-0.04159 -8.82e-4,-0.05506 0.0069,-0.01516 0.04522,-0.03389 0.04783,-0.05052 0.0029,-0.01703 -0.03041,-0.06235 -0.03389,-0.07867 -0.0038,-0.01468 -0.0049,-0.02376 -0.0016,-0.03828 0.0024,-0.0081 0.02124,-0.02957 0.024,-0.03781 0.0019,-0.01102 -0.0094,-0.03084 -0.0055,-0.0414 0.0044,-0.01215 0.02872,-0.03629 0.0329,-0.04855 0.0061,-0.01832 -0.0025,-0.07264 -0.01017,-0.08944 -0.004,-0.0086 -0.02074,-0.0016 -0.02251,-0.01113 -0.0014,-0.01387 0.01922,-0.02188 0.01922,-0.02188 l 0.01675,-0.07356 c 0,0 -0.01157,-0.02369 -0.01535,-0.03165 -0.003,-0.0052 -0.0083,-0.01589 -0.01302,-0.01978 -0.0072,-0.007 -0.02535,-0.01265 -0.03409,-0.01532 -0.01017,-0.0017 -0.02933,-0.0031 -0.03912,-0.0039 -0.0081,-0.0014 -0.03061,-0.0046 -0.03061,-0.0046 0,0 -0.0075,-0.05176 -0.0097,-0.06808 -0.0017,-0.01515 -0.0052,-0.04437 -0.0082,-0.05959 -0.0035,-0.01816 -0.0086,-0.05704 -0.01912,-0.07156 -0.007,-0.0089 -0.02606,-0.02387 -0.03659,-0.02379 -0.01768,6.7e-4 -0.04739,0.02781 -0.05893,0.04175 -0.01017,0.0127 -0.0287,0.04383 -0.02766,0.05983 6.5e-5,0.01727 0.02588,0.04224 0.02984,0.05777 0.0046,0.01764 0.0027,0.07217 0.0027,0.07217 l 0.0063,0.05769 c -0.02908,0.01062 -0.05231,0.02287 -0.08089,0.0389 -0.04364,0.02367 -0.07814,0.02609 -0.122977,0.01506 -0.09891,-0.02522 -0.193781,-0.06005 -0.28693,-0.09928 -0.01535,-0.0064 -0.02917,-0.01399 -0.04169,-0.02661 -0.0093,-0.009 -0.02041,-0.01564 -0.03116,-0.02263 -0.04483,-0.02469 -0.08804,-0.01559 -0.119284,0.02641 -0.0052,0.0058 -0.0092,0.01269 -0.013,0.02021 -0.04357,0.07559 -0.108889,0.111341 -0.193197,0.110532 -0.04363,-5.17e-4 -0.08709,-0.0041 -0.13012,-0.0077 -0.02115,-0.001 -0.03165,-0.01471 -0.03578,-0.03396 -0.0047,-0.02013 -0.0053,-0.04057 -0.0051,-0.0607 2.47e-4,-0.02748 0.0037,-0.05562 -0.0038,-0.08249 -0.0038,-0.01324 0.001,-0.02059 0.01062,-0.02745 0.01443,-0.01101 0.03021,-0.01828 0.04644,-0.02561 0.0503,-0.02106 0.102078,-0.03734 0.154969,-0.04806 0.04359,-0.0089 0.06281,-0.03813 0.07095,-0.07828 0.0083,-0.04026 -2.99e-4,-0.0789 -0.01609,-0.116097 -0.02552,-0.06268 -0.06177,-0.118652 -0.10831,-0.166781 -0.0329,-0.03413 -0.037,-0.06972 -0.02762,-0.11152 0.01539,-0.06385 0.02887,-0.128867 0.06349,-0.185905 0.01124,-0.01862 0.0082,-0.03943 0.0066,-0.05982 -0.0051,-0.05925 -0.01199,-0.119201 -0.01873,-0.178593 -0.0077,-0.07226 -0.01559,-0.143192 -0.01587,-0.215405 -9.68e-4,-0.08886 -0.01994,-0.175714 -0.03985,-0.262504 -0.01452,-0.06281 -0.03093,-0.125808 -0.06406,-0.182193 -0.0122,-0.02271 -0.0104,-0.04603 -8.78e-4,-0.06932 0.0086,-0.01996 0.02074,-0.03777 0.03498,-0.05416 0.02476,-0.02731 0.05184,-0.05216 0.08086,-0.07456 0.03423,-0.0255 0.05881,-0.05861 0.07685,-0.09691 0.03596,-0.07932 0.0537,-0.160751 0.03589,-0.248524 -0.01027,-0.04767 -0.01651,-0.09667 -0.02612,-0.144699 -0.0034,-0.01963 -0.0033,-0.03789 0.0035,-0.05688 0.02061,-0.05658 0.04834,-0.109149 0.08308,-0.158323 0.0055,-0.0058 0.01017,-0.01362 0.01678,-0.01826 0.0282,-0.01554 0.03787,-0.04421 0.04619,-0.07298 0.02194,-0.07438 0.03562,-0.151857 0.05391,-0.227289 0.0046,-0.01999 0.01105,-0.03961 0.02025,-0.05704 0.01468,-0.0297 0.02378,-0.06015 0.02338,-0.09389 -5.14e-4,-0.01182 0.0024,-0.02039 0.01009,-0.02914 0.02404,-0.0281 0.04782,-0.0561 0.0788,-0.07701 0.02543,-0.01713 0.05053,-0.03564 0.07712,-0.05027 0.136366,-0.0768 0.256377,-0.178823 0.383222,-0.26972 0.01992,-0.01469 0.036,-0.03403 0.05451,-0.05142 0.02221,-0.02142 0.04342,-0.04364 0.06623,-0.06459 0.02058,-0.01979 0.02957,-0.01918 0.05079,0.001 0.01643,0.01561 0.03198,0.0316 0.0483,0.04732 0.02325,0.02301 0.04855,0.04463 0.07149,0.06938 0.07822,0.08191 0.174284,0.102576 0.281911,0.08429 0.05732,-0.0097 0.115745,-0.02144 0.174404,-0.02539 0.0223,-0.0012 0.04466,6e-4 0.06676,0.0025 0.05771,0.007 0.09794,0.03827 0.118926,0.09315 0.0249,0.06688 0.03772,0.136141 0.03918,0.208017 7.64e-4,0.04876 -0.0063,0.09768 0.0025,0.1471 0.0062,0.03286 0.01099,0.06676 0.02583,0.09691 0.02281,0.04871 0.05281,0.06235 0.103106,0.04285 0.07674,-0.03087 0.153561,-0.03022 0.230573,-0.0011 0.07477,0.02778 0.151066,0.05154 0.228931,0.06905 -5.82e-4,0.004 -0.0011,0.0082 -0.0017,0.01268 0.0016,-0.003 0.0035,-0.0069 0.0052,-0.01062 0.0083,-0.01451 0.0021,-0.02163 0.0072,-0.03764 0.05928,-0.187485 -0.03569,-0.532195 0.03758,-0.693248 0.05591,-0.122871 0.05768,-0.322396 0.04698,-0.424641 -0.0021,0.01337 0.03012,-0.121529 0.03516,-0.108068 0.0088,-0.01051 0.01716,-0.02287 0.02836,-0.03166 0.03629,-0.03266 0.06793,-0.06911 0.09164,-0.112455 0.02009,-0.03762 0.04987,-0.05376 0.09072,-0.05763 0.04597,-0.0033 0.08961,-0.01751 0.132672,-0.0337 0.0188,-0.0069 0.037,-0.01565 0.05243,-0.02885 0.02341,-0.01977 0.02694,-0.04449 0.01143,-0.06603 0.05974,-0.0122 0.124901,-0.02669 0.16438,-0.04389 0.03199,-0.01328 0.08984,-0.0548 0.119393,-0.07282 0.0455,-0.02766 0.141033,-0.07765 0.181607,-0.113351 0.02966,-0.02596 0.07762,-0.09023 0.101394,-0.122543 0.05258,-0.07142 0.168374,-0.213021 0.1948,-0.300342 0.01829,-0.06102 -0.01535,-0.195722 0.0043,-0.256454 0.0088,-0.02563 0.05392,-0.06025 0.06237,-0.08601 0.0044,-0.0141 -0.0086,-0.0492 6.31e-4,-0.06051 0.01586,-0.01772 0.07472,0.01017 0.09058,-0.0075 0.03768,-0.04361 0.01618,-0.180358 0.0045,-0.238983 z"
       id="path5-3"
       style="display:inline;fill:#e5dd49;fill-opacity:0.860759;stroke:none;stroke-width:0.0331829"
       inkscape:label="hebrew"
       sodipodi:nodetypes="ccccccccccccccccccccccccccccccccccccccccccccccccccccccccccccccccccccccccccccccccccccccccccccccccccccccccccccccccccccccccsccccccccccccccccccscccsccccccccccccccccccccccccccccccccccccccccccccccccccccccccccccccccccccccccccccccccccccccccccscccccccccccccccsccccccccccccccccccc" /></g><g
     id="layer2-7"
     inkscape:label="Turkic"
     style="display:none"
     transform="matrix(1.4846148,0,0,1.4846148,-6.5868068,-11.562895)"><path
       id="path1-8"
       style="display:inline;opacity:1;fill:#8787de;fill-opacity:0.469027;stroke:none;stroke-width:0.264583px;stroke-linecap:butt;stroke-linejoin:miter;stroke-opacity:0.867089"
       d="m 27.374459,13.771864 c -1.070501,-0.01573 -2.284877,0.215006 -3.328996,0.505396 -0.959201,0.820546 -2.368578,1.126786 -3.140893,2.094446 -1.137342,1.179898 -0.792492,2.860159 -0.304374,4.264855 0.240357,1.372461 0.410918,3.077756 -0.52865,4.232817 -0.442687,0.902963 -2.380775,1.437108 -1.606621,2.532662 0.914253,0.652892 2.300673,-0.08927 3.405477,0.0047 0.612914,0.06646 -1.796543,0.684974 -2.259837,1.247549 l 2.37766,-0.470229 2.057755,-0.690504 1.362708,-1.195792 0.333829,-0.556039 0.444934,-0.250114 1.028878,-0.08372 0.583944,0.222726 0.583944,-0.13901 0.556038,-0.444934 1.473812,0.13901 0.973584,0.500228 1.418001,-0.111105 1.306897,0.111105 1.307414,1.001489 -0.47284,0.361218 -1.362707,0.166915 -0.750859,0.222725 -0.500744,0.250114 0.02791,0.194821 0.611849,0.305924 1.000972,0.111104 -1.084171,0.33383 -0.584461,-0.111621 -0.305407,0.111621 -0.889868,-0.222725 -1.946652,0.111104 -0.778763,-0.528133 -1.306897,-0.222726 -0.47284,0.222726 0.500228,0.305924 c 0,0 0.473098,0.305694 0.250631,0.389124 -0.222469,0.08342 -0.47284,0.13901 -0.47284,0.13901 h -1.112593 l -0.389124,-0.13901 -0.611849,-0.639238 -0.333829,0.0832 -1.084172,0.333829 -0.79042,-0.08143 -3.239668,0.502611 -0.678152,2.62308 c -0.22564,1.151171 -0.464923,2.473402 1.168921,2.006596 1.092673,0.428257 2.138728,1.57128 1.920296,2.797762 0.402109,1.87526 -1.000634,0.918128 -2.062923,0.495577 -0.321859,0.543208 0.04971,2.173578 -0.329179,3.116605 1.314205,0.22764 2.698058,0.23312 3.841626,1.00563 2.041432,0.33327 -0.706713,1.3758 0.763778,2.23139 0.150267,1.27906 2.041214,1.41546 0.478524,2.4262 -0.248768,0.74137 1.969661,0.47965 2.740401,0.66405 1.687335,-0.58663 1.104231,1.28453 1.598869,1.71204 1.071187,-0.1262 2.205503,-0.98775 3.233911,-0.61754 1.308718,0.36767 2.10182,1.37369 2.83807,2.44947 1.479529,0.21253 2.97041,0.62174 4.397664,-0.0455 1.121883,-0.33061 2.230639,0.587 2.165759,-1.21181 0.231717,-1.19297 0.391394,-2.49183 1.904794,-1.79783 2.068696,0.0961 4.036426,1.01478 5.859073,1.84692 0.592409,1.41509 2.098036,1.71414 3.357935,2.31355 1.276148,0.0414 2.57991,-0.71533 3.913456,-0.42891 1.192985,0.55761 1.82992,-2.11804 2.626713,-0.47956 1.039952,-0.79419 1.638842,-2.4434 3.070614,-2.4784 1.837746,-0.62818 3.654704,1.26956 5.406905,0.21963 0.916203,-0.58731 1.583401,-1.99435 2.685624,-0.81701 0.245823,0.98802 -1.256694,1.76642 -1.975073,2.44688 0.110918,0.79308 0.73767,1.527812 2.537903,0.929435 0.955475,-0.45978 2.327551,-0.258135 3.074674,-0.942875 0.880905,-1.65992 1.162488,-3.771 2.907316,-4.78058 1.160111,-1.2975 2.785948,-1.78962 4.378028,-2.33939 2.213194,-1.64496 4.3371,-3.475642 6.192903,-5.539204 1.240963,-1.16083 2.351327,-2.414106 2.942973,-4.033862 0.963961,-0.386187 2.130717,-0.694122 2.910417,-1.599903 0.81309,-1.168541 2.195078,-0.380508 3.326929,-0.593762 1.622916,-0.02227 1.109931,-1.143639 1.779219,-2.079459 1.346948,-1.544649 2.089173,-3.418842 2.782253,-5.320089 0.14678,-0.826407 1.459,-2.717703 0.80977,-2.816882 -0.97835,0.115668 -2.171175,0.430415 -2.912995,0.991154 -0.562783,0.425404 -0.699086,1.050645 -1.248502,1.5012 -2.054424,1.129349 -4.351838,1.855962 -6.499345,2.830835 -1.748594,0.230093 -3.370939,-0.381261 -5.030184,-0.713135 -2.173212,0.513814 -4.479618,0.642455 -6.681246,0.641821 -0.36778,-0.466702 -1.002956,-0.817054 -1.46606,-0.799434 -0.598979,0.02279 -1.01622,0.476032 -1.295012,0.162781 -1.137807,-0.09292 -2.127447,-0.483975 -2.9099,-1.337386 -1.155282,-0.285959 -1.907388,0.945833 -2.91455,0.0093 -0.610019,-0.638865 -0.638851,-2.508873 -2.016932,-1.872754 -1.133962,0.540746 -2.228502,0.618108 -3.246313,-0.205155 -0.232179,-0.314117 -0.186688,-0.948601 -0.453719,-1.282609 -0.433483,-0.542209 -1.240863,-0.61421 -2.043286,0.364319 -2.385664,-0.161211 -4.777823,-0.190851 -7.166488,-0.292489 -1.800301,0.274835 -3.686332,0.586992 -5.354712,1.368909 -1.602461,0.814587 -3.499058,1.395434 -4.917529,2.356445 -0.21329,1.014565 -1.959186,1.122348 -2.87321,0.893486 -1.069339,-0.0037 -2.376622,-1.020922 -3.242179,-0.15503 -2.222496,-0.333367 -4.536307,-0.227493 -6.692098,-0.882116 -1.32371,-0.595101 -3.561286,-0.545147 -3.840076,-2.299085 0.03767,-1.421992 -1.09291,-2.548768 -2.18643,-3.203939 -1.63706,-0.645241 -0.798636,-0.788435 0.09457,-1.481046 1.461046,0.01255 0.885287,-1.739987 1.222665,-2.701127 z"
       sodipodi:nodetypes="ccccccccccccccccccccccccccccccccccccccsccccccccccccccccccccccccccccccccccccccccccsccccscccccscccccccccccc" /><path
       style="fill:#6a70c8;fill-opacity:0.525316;stroke:none;stroke-width:0.264583px;stroke-linecap:butt;stroke-linejoin:miter;stroke-opacity:1"
       d="m 134.72615,21.719566 3.38215,3.932732 1.80906,1.33713 4.56197,1.258475 -0.0787,1.573094 -2.91022,0.235963 -1.41578,-0.07865 -0.7079,0.314618 -1.10116,2.595605 0.31462,1.494438 -1.10117,0.314619 -2.04502,2.438294 -1.7304,1.809057 0.39327,0.943846 -1.57309,1.96637 -0.31462,1.41579 0.15731,1.41578 4.40466,2.5956 2.51695,1.88771 0.15731,1.49445 -0.70789,0.62923 -4.01139,0.62924 -1.41578,0.55058 -1.36414,-0.05082 -2.01801,-1.443617 -2.51695,-0.94385 -2.91023,-0.55059 -1.41578,-1.49442 -1.17344,-1.264856 -2.49852,-2.565133 0.0907,-1.585145 -1.67018,-0.581048 -0.57467,-0.562625 0.60515,-0.683809 -0.44145,-1.040215 -0.90135,-1.149358 -0.47831,-0.460598 0.2721,-2.709677 -4.9337,-4.318707 3.07541,0.591575 1.1643,0.408431 0.35935,0.063 0.40768,0.247984 0.33478,0.359687 0.10714,0.82084 1.51992,1.480555 3.48156,2.185443 1.33219,-0.719938 3.06753,-2.280984 1.33713,-2.123678 -1.96637,-1.573091 -0.94386,-2.988879 h -2.5956 l -3.27542,0.985913 -3.25292,-1.457839 -0.39327,-3.224842 -0.55058,-1.573094 -2.04502,-2.280983 -3.22485,-0.07866 0.62924,-2.831568 4.09004,0.865201 1.25848,0.943856 1.7304,0.707893 3.61812,0.471926 1.7304,1.33713 1.96637,1.573094 -0.0787,-0.550582 1.49444,-1.573094 c 0,0 3.06753,1.258475 3.22484,1.573094 0.15731,0.314619 4.01139,0.629237 4.01139,0.629237 z"
       id="path11"
       sodipodi:nodetypes="ccccccccccccccccccccccccccccccccccccccccccccccccccccccccccccccccccccscc" /><path
       style="opacity:1;fill:#9f9ec6;fill-opacity:0.420886;stroke:none;stroke-width:0.264583px;stroke-linecap:butt;stroke-linejoin:miter;stroke-opacity:1"
       d="m 57.544609,53.626535 5.212744,-1.465022 -0.30663,1.465022 -2.112354,1.49909 -1.839794,0.476982 h -0.579191 -0.408845 l -0.306631,0.06814 h -0.408842 l -0.408845,-0.102211 -0.23849,-0.306631 -0.306633,-0.204422 -0.442913,0.136281 -0.545124,0.06814 -0.374771,0.20442 -0.545124,0.136281 -0.408842,-0.03407 -0.374772,-0.170352 -0.647335,-1.328737 c 0,0 -0.204422,-0.817687 0.340702,-0.988037 0.545123,-0.170352 4.70169,0.545124 4.70169,0.545124 z"
       id="path4-8" /></g><g
     id="layer4"
     inkscape:label="IndoEuropean"
     style="display:none"
     transform="matrix(1.4846148,0,0,1.4846148,-6.5868068,-11.562895)"><path
       id="path12"
       style="fill:#d25646;fill-opacity:0.389241;stroke:none;stroke-width:0.262629;stroke-linecap:butt;stroke-linejoin:miter;stroke-dasharray:none;stroke-opacity:1"
       d="m 101.69447,22.724873 c -0.0182,0.09821 -0.26409,-0.386764 -0.40263,-0.115188 -0.0608,0.119144 -0.16746,0.528727 -0.24588,0.671835 -0.33004,0.602298 -0.72253,1.822678 -1.16867,2.601597 -0.806567,1.408182 -1.639848,2.715308 -1.639848,2.715308 l -0.762211,1.805744 c 0,0 -1.859786,-0.03132 -2.929794,0.03028 -0.501428,0.02887 -0.615909,0.252638 -0.871388,0.247203 l -0.946512,0.9176 -1.875103,0.962118 -0.540188,0.172729 -0.09917,0.561114 -3.778271,4.916725 -5.134195,3.935601 -3.182695,1.346948 c -0.357737,0.0511 -2.471279,2.099495 -2.471279,2.099495 l -1.807225,3.83168 0.943151,-0.376299 0.500528,-0.4412 c 0,0 2.72896,1.51145 3.874997,2.060593 l 3.198023,-3.086678 4.299427,-0.44095 0.661175,-0.881909 1.322862,0.110106 0.551576,0.881909 1.064742,0.871157 5.006183,2.656471 h 1.42529 l 3.08668,0.992531 1.873925,-1.102637 1.54359,-0.88191 2.53561,-0.110106 4.73987,2.204769 1.87444,1.984031 1.21224,3.197299 1.32286,1.32286 1.98455,0.992025 1.10213,2.866456 0.99253,0.771278 2.97656,1.212753 1.54308,2.535612 1.32286,0.88191 0.43133,0.104887 2.43482,0.210267 2.84878,0.265645 1.57784,0.528666 0.87167,-4.908459 -1.99108,-2.705206 -0.61969,-1.357821 -0.15814,-0.916064 -0.23037,-0.284427 0.9355,-1.320948 0.3524,-0.617683 0.7945,-3.202519 -0.63324,-1.119612 -0.88141,-1.019676 -0.83991,-0.371299 -2.49464,-0.935168 -2.88437,-0.545942 -0.72645,-0.948369 -0.67631,-0.532237 -1.09138,-1.325426 -2.41679,-2.494632 0.0784,-1.558968 -1.71517,-0.623274 -0.54542,-0.545942 0.62327,-0.701637 -0.38974,-0.935168 -0.85732,-1.091371 -0.54543,-0.623788 0.23353,-2.494129 0.0642,-0.191499 -0.76592,-0.655356 -4.0629,-3.514671 -1.49273,-0.939138 c 0,0 -3.39379,-4.324395 -4.1888,-5.071225 -0.57819,-0.409552 -2.76965,-1.804115 -4.14285,-2.478671 z"
       sodipodi:nodetypes="csssccscccccccccccccccccccccccccccccccccccccccccccccccccccccccccccccccccccccc" /><path
       style="fill:#d84341;fill-opacity:0.469027;stroke:none;stroke-width:0.264583px;stroke-linecap:butt;stroke-linejoin:miter;stroke-opacity:1"
       d="m 132.09463,53.522115 c 0.0412,-0.111765 -0.0726,-0.240223 -0.11199,-0.359447 -0.099,-0.29996 -0.27135,-0.586866 -0.32114,-0.736146 -0.0215,-0.06438 -0.19502,-0.158759 -0.16236,-0.240211 0.049,-0.122158 0.23759,0.153877 0.47307,0.198932 0.4771,0.09128 1.14662,0.107137 1.23713,0.0524 0.25521,-0.154339 1.22169,-0.447491 1.60755,-0.551111 1.67105,-0.448747 4.06449,-0.297147 4.28067,-0.950537 0.0525,-0.158599 0.26747,-0.130243 0.33821,-0.288301 0.0315,-0.07038 -0.1532,-1.38601 -0.17522,-1.473064 -0.0214,-0.0845 -0.26651,-0.291248 -0.60883,-0.550816 -1.17519,-0.891084 -3.86325,-2.58837 -5.76838,-3.695249 -0.18459,-0.107245 -0.30151,-0.103849 -0.43573,-0.246836 -0.13423,-0.142999 -0.0863,-0.51132 -0.1418,-0.683615 -0.1986,-0.616865 0.0927,-1.699093 0.14295,-1.957327 0.11893,-0.610947 1.05054,-1.285415 1.58305,-2.140076 0.20955,-0.336321 -0.31489,-0.552712 -0.25331,-0.91549 0.0446,-0.262588 0.68747,-0.693417 0.74151,-0.863049 4.50211,2.07856 7.723,4.212958 12.33987,5.953985 l 11.45665,0.916533 c 2.22266,1.307302 3.87629,4.69976 6.77617,3.525399 l 8.7427,-1.359975 c 0.94137,-1.872291 -4.28498,-1.036188 -1.00161,-1.741377 3.73531,-0.676471 7.67841,-2.514963 10.93884,0.406949 3.85654,1.694113 7.2716,4.117136 10.44385,6.860297 4.11391,1.932823 0.15039,6.609467 0.81233,10.060657 -0.72125,3.394521 1.95684,6.004092 2.52478,9.142812 0.13834,3.161544 0.1055,6.551912 -0.54939,9.525644 l -8.73264,4.602339 c -1.70169,1.919928 -1.84298,7.369531 -4.75855,6.593656 -3.44123,-0.417107 -5.69176,3.87357 -8.71925,5.26336 -3.01321,1.862626 -5.97603,4.949739 -9.07119,5.975769 -8.68424,-4.460546 -17.36849,-8.921089 -26.05274,-13.381636 l 0.78195,-9.65418 -0.68869,-2.030054 c 0,0 -1.04004,-2.679625 -2.12275,-3.581885 l -2.2721,-2.588976 -1.67306,-3.298044 -1.60514,-0.496822 0.91195,-5.034939 -0.26894,-0.413811 c -0.59234,-0.560189 -1.31886,-1.413618 -1.63151,-2.067036 -0.39914,-0.823568 -0.48787,-0.429069 -0.91772,-2.225968 0.0283,-0.0472 0.0282,-0.223517 -0.0703,-0.327611 -0.15863,-0.167612 -0.14121,-0.119844 0.18079,-0.609259 0.3349,-0.509028 0.54807,-0.759465 0.69256,-0.956927 0.0873,-0.119248 0.14949,-0.219176 0.19835,-0.345069 0.29443,-0.75856 0.40644,-1.498478 0.55873,-2.019704 0.1662,-0.568842 0.22293,-0.766097 0.22293,-0.766097 z"
       id="path2"
       sodipodi:nodetypes="cssssssssssssssssccccccccccccccccccccccccccssssscc" /><path
       style="display:inline;fill:#ed4f71;fill-opacity:0.512658;stroke:none;stroke-width:0.264583px;stroke-linecap:butt;stroke-linejoin:miter;stroke-opacity:1"
       d="m 118.97323,28.618989 2.79375,1.49909 2.1805,2.589337 0.27256,1.294669 0.35774,1.49909 -2.06125,1.362808 -0.6814,0.340704 -2.38492,-1.430952 -1.27885,-0.945699 -1.34285,-1.23066 c 0,0 0.0323,-0.685539 -0.17206,-0.958099 -0.11732,-0.156424 -0.2062,-0.187233 -0.34296,-0.28009 -0.10154,-0.06894 -0.24569,-0.215333 -0.36183,-0.244368 -0.10189,-0.02547 -0.36556,0.03338 -0.51396,-0.05674 -0.53307,-0.32374 -1.05163,-0.425868 -1.64315,-0.577187 l -2.49118,-0.408608 -1.0611,-0.669947 -0.94499,-0.965659 -2.8854,-3.593561 -0.59047,-0.667637 -4.49656,-2.689127 1.0046,-2.702527 1.5941,-0.195138 1.51808,0.224922 0.78019,1.63364 2.93918,-1.482093 2.1805,-0.06814 1.25194,0.112774 0.48393,0.568631 0.99887,1.052442 0.46909,0.544349 0.54389,1.196967 0.47698,3.679585 z"
       id="path6-5"
       sodipodi:nodetypes="cccccccccccssscccccccccccccccccccc" /></g><image
     width="429.28796"
     height="300.02658"
     preserveAspectRatio="none"
     xlink:href="../../Spra%CC%8Aken_i_Mellano%CC%88stern/Satellite_relief_map_of_Middle_East_mask.png"
     id="seas"
     x="-80.184151"
     y="-32.417713"
     style="display:inline;stroke:none"
     inkscape:svg-dpi="1" /><g
     id="layer5"
     inkscape:label="LanguageText"
     style="display:none"
     transform="matrix(1.4846148,0,0,1.4846148,-6.5868068,-11.562895)"><g
       inkscape:groupmode="layer"
       id="layer7"
       inkscape:label="Text_IE"
       transform="matrix(0.6735754,0,0,0.6735754,4.4367111,7.7884816)"
       style="display:inline"><text
         xml:space="preserve"
         style="font-weight:500;font-stretch:condensed;font-size:7.39697px;line-height:0.75;font-family:'Univers 57 Condensed';-inkscape-font-specification:'Univers 57 Condensed,  Medium Condensed';display:inline;opacity:0.566092;fill:#ffffff;fill-opacity:0.996835;stroke:none;stroke-width:0.555646;stroke-linecap:square;stroke-linejoin:bevel;stroke-miterlimit:3.6;stroke-dasharray:none;stroke-opacity:1;paint-order:stroke markers fill"
         x="83.514046"
         y="47.638073"
         id="text30"
         inkscape:label="kurdiska"
         transform="matrix(1.4846148,0,0,1.4846148,-6.5868069,-11.562895)"><tspan
           sodipodi:role="line"
           id="tspan30"
           style="font-style:normal;font-variant:normal;font-weight:normal;font-stretch:normal;font-family:Signika;-inkscape-font-specification:Signika;fill:#ffffff;fill-opacity:0.996835;stroke:none;stroke-width:0.555646"
           x="83.514046"
           y="47.638073">kurdiska</tspan></text><text
         xml:space="preserve"
         style="font-weight:500;font-stretch:condensed;font-size:4.41004px;line-height:0.75;font-family:'Univers 57 Condensed';-inkscape-font-specification:'Univers 57 Condensed,  Medium Condensed';display:inline;opacity:0.683908;fill:#ffffff;fill-opacity:0.996835;stroke:none;stroke-width:0.331274;stroke-linecap:square;stroke-linejoin:bevel;stroke-miterlimit:3.6;stroke-dasharray:none;stroke-opacity:1;paint-order:stroke markers fill"
         x="98.883018"
         y="-43.281136"
         id="text7"
         inkscape:label="armeniska"
         transform="matrix(1.1956581,0.880047,-0.880047,1.1956581,-6.5868069,-11.562895)"><tspan
           sodipodi:role="line"
           id="tspan7"
           style="font-style:normal;font-variant:normal;font-weight:normal;font-stretch:normal;font-family:Signika;-inkscape-font-specification:Signika;fill:#ffffff;fill-opacity:0.996835;stroke:none;stroke-width:0.331274"
           x="98.883018"
           y="-43.281136">armeniska</tspan></text><text
         xml:space="preserve"
         style="font-weight:500;font-stretch:condensed;font-size:22.1638px;line-height:0.75;font-family:'Univers 57 Condensed';-inkscape-font-specification:'Univers 57 Condensed,  Medium Condensed';display:inline;opacity:0.566092;fill:#ffffff;fill-opacity:0.996835;stroke:none;stroke-width:5.28828;stroke-linecap:square;stroke-linejoin:bevel;stroke-miterlimit:3.6;stroke-dasharray:none;stroke-opacity:1;paint-order:stroke markers fill"
         x="200.73386"
         y="83.466797"
         id="text2-3"
         inkscape:label="farsi"><tspan
           sodipodi:role="line"
           style="font-style:normal;font-variant:normal;font-weight:normal;font-stretch:normal;font-size:22.1638px;font-family:Signika;-inkscape-font-specification:Signika;fill:#ffffff;fill-opacity:0.996835;stroke:none;stroke-width:5.28828"
           x="200.73386"
           y="83.466797"
           id="tspan4">persiska</tspan><tspan
           sodipodi:role="line"
           style="font-style:normal;font-variant:normal;font-weight:normal;font-stretch:normal;font-size:15.0883px;font-family:Signika;-inkscape-font-specification:Signika;fill:#ffffff;fill-opacity:0.996835;stroke:none;stroke-width:5.28828"
           x="200.73386"
           y="100.70608"
           id="tspan10">(farsi)</tspan></text></g><g
       inkscape:groupmode="layer"
       id="layer8"
       inkscape:label="Text_semitic"
       transform="matrix(0.6735754,0,0,0.6735754,4.4367111,7.7884816)"
       style="display:inline"><text
         xml:space="preserve"
         style="font-weight:500;font-stretch:condensed;font-size:5.29167px;line-height:0.75;font-family:'Univers 57 Condensed';-inkscape-font-specification:'Univers 57 Condensed,  Medium Condensed';display:inline;opacity:0.566092;fill:#ffffff;fill-opacity:0.996835;stroke:none;stroke-width:4.16421;stroke-linecap:square;stroke-linejoin:bevel;stroke-miterlimit:3.6;stroke-dasharray:none;stroke-opacity:1;paint-order:stroke markers fill"
         x="63.692291"
         y="70.457687"
         id="text6"
         inkscape:label="hebreiska"
         transform="matrix(1.4846148,0,0,1.4846148,-6.5868069,-11.562895)"><tspan
           sodipodi:role="line"
           id="tspan6-1"
           style="font-style:normal;font-variant:normal;font-weight:normal;font-stretch:normal;font-size:5.29167px;font-family:Signika;-inkscape-font-specification:Signika;text-align:end;text-anchor:end;fill:#ffffff;fill-opacity:0.996835;stroke:none;stroke-width:4.16421"
           x="63.692291"
           y="70.457687">hebreiska</tspan></text><text
         xml:space="preserve"
         style="font-weight:500;font-stretch:condensed;font-size:17.4527px;line-height:0.75;font-family:'Univers 57 Condensed';-inkscape-font-specification:'Univers 57 Condensed,  Medium Condensed';display:inline;opacity:0.566092;fill:#ffffff;fill-opacity:0.996835;stroke:none;stroke-width:4.16421;stroke-linecap:square;stroke-linejoin:bevel;stroke-miterlimit:3.6;stroke-dasharray:none;stroke-opacity:1;paint-order:stroke markers fill"
         x="48.458576"
         y="103.64036"
         id="text29"
         inkscape:label="arabiska"
         transform="matrix(1.4846148,0,0,1.4846148,-6.5868069,-11.562895)"><tspan
           sodipodi:role="line"
           id="tspan29"
           style="font-style:normal;font-variant:normal;font-weight:normal;font-stretch:normal;font-size:17.4527px;font-family:Signika;-inkscape-font-specification:Signika;fill:#ffffff;fill-opacity:0.996835;stroke:none;stroke-width:4.16421"
           x="48.458576"
           y="103.64036">arabiska</tspan></text></g><g
       inkscape:groupmode="layer"
       id="layer9"
       inkscape:label="Text_Turkic"
       style="display:inline"
       transform="matrix(0.6735754,0,0,0.6735754,4.4367111,7.7884816)"><text
         xml:space="preserve"
         style="font-weight:500;font-stretch:condensed;font-size:5.68454px;line-height:0.75;font-family:'Univers 57 Condensed';-inkscape-font-specification:'Univers 57 Condensed,  Medium Condensed';display:inline;opacity:0.566092;fill:#ffffff;fill-opacity:0.996835;stroke:none;stroke-width:0.427012;stroke-linecap:square;stroke-linejoin:bevel;stroke-miterlimit:3.6;stroke-dasharray:none;stroke-opacity:1;paint-order:stroke markers fill"
         x="107.45888"
         y="-45.307976"
         id="text3"
         inkscape:label="azer"
         transform="matrix(1.2378727,0.81960492,-0.81960492,1.2378727,-6.5868069,-11.562895)"><tspan
           sodipodi:role="line"
           id="tspan3-8"
           style="font-style:normal;font-variant:normal;font-weight:normal;font-stretch:normal;font-family:Signika;-inkscape-font-specification:Signika;fill:#ffffff;fill-opacity:0.996835;stroke:none;stroke-width:0.427012"
           x="107.45888"
           y="-45.307976">azerbajdzjanska</tspan></text><text
         xml:space="preserve"
         style="font-weight:500;font-stretch:condensed;font-size:14.8477px;line-height:0.75;font-family:'Univers 57 Condensed';-inkscape-font-specification:'Univers 57 Condensed,  Medium Condensed';display:inline;opacity:0.566092;fill:#ffffff;fill-opacity:0.996835;stroke:none;stroke-width:1.11533;stroke-linecap:square;stroke-linejoin:bevel;stroke-miterlimit:3.6;stroke-dasharray:none;stroke-opacity:1;paint-order:stroke markers fill"
         x="27.399137"
         y="39.59766"
         id="text28"
         inkscape:label="turkiska"
         transform="matrix(1.4846148,0,0,1.4846148,-6.5868069,-11.562895)"><tspan
           sodipodi:role="line"
           id="tspan28"
           style="font-style:normal;font-variant:normal;font-weight:normal;font-stretch:normal;font-family:Signika;-inkscape-font-specification:Signika;fill:#ffffff;fill-opacity:0.996835;stroke:none;stroke-width:1.11533"
           x="27.399137"
           y="39.59766">turkiska</tspan></text></g></g><g
     id="cities"
     inkscape:label="cities"
     style="display:none"
     transform="matrix(1.4846148,0,0,1.4846148,-6.5868068,-11.562895)"><text
       xml:space="preserve"
       style="font-style:normal;font-variant:normal;font-weight:300;font-stretch:normal;font-size:5.64444px;line-height:0.75;font-family:Signika;-inkscape-font-specification:'Signika Light';letter-spacing:0.198437px;opacity:0.724138;fill:#ffffff;fill-opacity:0.996835;stroke:#000000;stroke-width:1;stroke-linecap:round;stroke-linejoin:round;stroke-miterlimit:3.6;stroke-dasharray:none;stroke-opacity:1;paint-order:stroke markers fill"
       x="88.731079"
       y="120.67103"
       id="text32"
       inkscape:label="Mecca"><tspan
         sodipodi:role="line"
         id="tspan32"
         style="font-style:normal;font-variant:normal;font-weight:bold;font-stretch:normal;font-size:5.64444px;font-family:Frutiger;-inkscape-font-specification:'Frutiger Bold';letter-spacing:0.198437px;fill:#ffffff;stroke:#000000;stroke-width:1;stroke-linecap:round;stroke-linejoin:round;stroke-opacity:1"
         x="88.731079"
         y="120.67103">Mecka</tspan></text><text
       xml:space="preserve"
       style="font-style:normal;font-variant:normal;font-weight:300;font-stretch:normal;font-size:5.64444px;line-height:0.75;font-family:Signika;-inkscape-font-specification:'Signika Light';letter-spacing:0.198437px;opacity:0.724138;fill:#ffffff;fill-opacity:0.996835;stroke:#000000;stroke-width:1;stroke-linecap:round;stroke-linejoin:round;stroke-miterlimit:3.6;stroke-dasharray:none;stroke-opacity:1;paint-order:stroke markers fill"
       x="92.223274"
       y="62.152439"
       id="text34"
       inkscape:label="Baghdad"><tspan
         sodipodi:role="line"
         id="tspan34"
         style="font-style:normal;font-variant:normal;font-weight:bold;font-stretch:normal;font-size:5.64444px;font-family:Frutiger;-inkscape-font-specification:'Frutiger Bold';letter-spacing:0.198437px;fill:#ffffff;stroke:#000000;stroke-width:1;stroke-linecap:round;stroke-linejoin:round;stroke-opacity:1"
         x="92.223274"
         y="62.152439">Bagdad</tspan></text><text
       xml:space="preserve"
       style="font-style:normal;font-variant:normal;font-weight:300;font-stretch:normal;font-size:5.64444px;line-height:0.75;font-family:Signika;-inkscape-font-specification:'Signika Light';letter-spacing:0.198437px;opacity:0.724138;fill:#ffffff;fill-opacity:0.996835;stroke:#000000;stroke-width:1;stroke-linecap:round;stroke-linejoin:round;stroke-miterlimit:3.6;stroke-dasharray:none;stroke-opacity:1;paint-order:stroke markers fill"
       x="150.57524"
       y="60.836205"
       id="text33"
       inkscape:label="Tehran"><tspan
         sodipodi:role="line"
         id="tspan33"
         style="font-style:normal;font-variant:normal;font-weight:bold;font-stretch:normal;font-size:5.64444px;font-family:Frutiger;-inkscape-font-specification:'Frutiger Bold';letter-spacing:0.198437px;fill:#ffffff;stroke:#000000;stroke-width:1;stroke-linecap:round;stroke-linejoin:round;stroke-opacity:1"
         x="150.57524"
         y="60.836205">Tehran</tspan></text><text
       xml:space="preserve"
       style="font-style:normal;font-variant:normal;font-weight:300;font-stretch:normal;font-size:5.64444px;line-height:0.75;font-family:Signika;-inkscape-font-specification:'Signika Light';letter-spacing:0.198437px;opacity:0.724138;fill:#ffffff;fill-opacity:0.996835;stroke:#000000;stroke-width:1;stroke-linecap:round;stroke-linejoin:round;stroke-miterlimit:3.6;stroke-dasharray:none;stroke-opacity:1;paint-order:stroke markers fill"
       x="32.958302"
       y="21.791845"
       id="text35"
       inkscape:label="Istanbul"><tspan
         sodipodi:role="line"
         id="tspan35"
         style="font-style:normal;font-variant:normal;font-weight:bold;font-stretch:normal;font-size:5.64444px;font-family:Frutiger;-inkscape-font-specification:'Frutiger Bold';letter-spacing:0.198437px;fill:#ffffff;stroke:#000000;stroke-width:1;stroke-linecap:round;stroke-linejoin:round;stroke-opacity:1"
         x="32.958302"
         y="21.791845">Istanbul</tspan></text><text
       xml:space="preserve"
       style="font-style:normal;font-variant:normal;font-weight:300;font-stretch:normal;font-size:5.64444px;line-height:0.75;font-family:Signika;-inkscape-font-specification:'Signika Light';letter-spacing:0.198437px;opacity:0.724138;fill:#ffffff;fill-opacity:0.996835;stroke:#000000;stroke-width:1;stroke-linecap:round;stroke-linejoin:round;stroke-miterlimit:3.6;stroke-dasharray:none;stroke-opacity:1;paint-order:stroke markers fill"
       x="28.337727"
       y="94.173691"
       id="text36"
       inkscape:label="Kairo"><tspan
         sodipodi:role="line"
         id="tspan36"
         style="font-style:normal;font-variant:normal;font-weight:bold;font-stretch:normal;font-size:5.64444px;font-family:Frutiger;-inkscape-font-specification:'Frutiger Bold';letter-spacing:0.198437px;fill:#ffffff;stroke:#000000;stroke-width:1;stroke-linecap:round;stroke-linejoin:round;stroke-opacity:1"
         x="28.337727"
         y="94.173691">Kairo</tspan></text><text
       xml:space="preserve"
       style="font-style:normal;font-variant:normal;font-weight:300;font-stretch:normal;font-size:5.64444px;line-height:0.75;font-family:Signika;-inkscape-font-specification:'Signika Light';letter-spacing:0.198437px;opacity:0.724138;fill:#ffffff;fill-opacity:0.996835;stroke:#000000;stroke-width:1;stroke-linecap:round;stroke-linejoin:round;stroke-miterlimit:3.6;stroke-dasharray:none;stroke-opacity:1;paint-order:stroke markers fill"
       x="66.972969"
       y="75.537254"
       id="text37"
       inkscape:label="Jerusalem"><tspan
         sodipodi:role="line"
         id="tspan37"
         style="font-style:normal;font-variant:normal;font-weight:bold;font-stretch:normal;font-size:5.64444px;font-family:Frutiger;-inkscape-font-specification:'Frutiger Bold';letter-spacing:0.198437px;fill:#ffffff;stroke:#000000;stroke-width:1;stroke-linecap:round;stroke-linejoin:round;stroke-opacity:1"
         x="66.972969"
         y="75.537254">Jerusalem</tspan></text><rect
       style="opacity:0.99115;fill:#800000;fill-opacity:0.996835;stroke:#1a1a1a;stroke-width:1;stroke-linecap:round;stroke-linejoin:round;stroke-miterlimit:3.6;stroke-dasharray:none;stroke-opacity:1;paint-order:stroke fill markers"
       id="rect34"
       width="2.0458984"
       height="2.0458984"
       x="149.11952"
       y="52.945007"
       ry="0"
       inkscape:label="Tehran_path" /><rect
       style="display:inline;opacity:0.99115;fill:#800000;fill-opacity:0.996835;stroke:#1a1a1a;stroke-width:1;stroke-linecap:round;stroke-linejoin:round;stroke-miterlimit:3.6;stroke-dasharray:none;stroke-opacity:1;paint-order:stroke fill markers"
       id="rect35"
       width="2.0458984"
       height="2.0458984"
       x="112.52337"
       y="63.401054"
       ry="0"
       inkscape:label="Baghdad_path" /><rect
       style="opacity:0.99115;fill:#800000;fill-opacity:0.996835;stroke:#1a1a1a;stroke-width:1;stroke-linecap:round;stroke-linejoin:round;stroke-miterlimit:3.6;stroke-dasharray:none;stroke-opacity:1;paint-order:stroke fill markers"
       id="rect36"
       width="2.0458984"
       height="2.0458984"
       x="41.615055"
       y="87.742699"
       ry="0"
       inkscape:label="Kairo_path" /><g
       id="g38"
       inkscape:label="Jerusalem_group"
       transform="translate(-0.37899458,-57.361121)"><circle
         style="opacity:0.724138;fill:#a02c2c;fill-opacity:0.996835;stroke:#1a1a1a;stroke-width:1.26836;stroke-linecap:square;stroke-linejoin:bevel;stroke-miterlimit:3.6;stroke-dasharray:none;stroke-opacity:1;paint-order:stroke markers fill"
         id="circle37"
         cx="65.767639"
         cy="130.19698"
         r="0.94300121"
         inkscape:label="Jerusalem_path1" /><circle
         style="opacity:0.724138;fill:#000000;fill-opacity:0.996835;stroke:none;stroke-width:0.657065;stroke-linecap:square;stroke-linejoin:bevel;stroke-miterlimit:3.6;stroke-dasharray:none;stroke-opacity:1;paint-order:stroke markers fill"
         id="circle38"
         cx="65.763565"
         cy="130.17325"
         r="0.48851547"
         inkscape:label="Jerusalem_path2" /></g><g
       id="g40"
       inkscape:label="Mecca_group"
       transform="translate(21.69941,-7.6186206)"><circle
         style="opacity:0.724138;fill:#800000;fill-opacity:0.996835;stroke:#1a1a1a;stroke-width:1.26836;stroke-linecap:square;stroke-linejoin:bevel;stroke-miterlimit:3.6;stroke-dasharray:none;stroke-opacity:1;paint-order:stroke markers fill"
         id="circle39"
         cx="65.767639"
         cy="130.19698"
         r="0.94300121"
         inkscape:label="Mecca_path1" /><circle
         style="opacity:0.724138;fill:#000000;fill-opacity:0.996835;stroke:none;stroke-width:0.657065;stroke-linecap:square;stroke-linejoin:bevel;stroke-miterlimit:3.6;stroke-dasharray:none;stroke-opacity:1;paint-order:stroke markers fill"
         id="circle40"
         cx="65.763565"
         cy="130.17325"
         r="0.48851547"
         inkscape:label="Mecca_path2" /></g><g
       id="g42"
       inkscape:label="Istanbul_group"
       transform="translate(-41.06701,-105.62233)"><circle
         style="opacity:0.724138;fill:#800000;fill-opacity:0.996835;stroke:#1a1a1a;stroke-width:1.26836;stroke-linecap:square;stroke-linejoin:bevel;stroke-miterlimit:3.6;stroke-dasharray:none;stroke-opacity:1;paint-order:stroke markers fill"
         id="circle41"
         cx="75.055717"
         cy="130.41945"
         r="0.94300121"
         inkscape:label="Istanbul_path1" /><circle
         style="opacity:0.724138;fill:#000000;fill-opacity:0.996835;stroke:none;stroke-width:0.657065;stroke-linecap:square;stroke-linejoin:bevel;stroke-miterlimit:3.6;stroke-dasharray:none;stroke-opacity:1;paint-order:stroke markers fill"
         id="circle42"
         cx="75.051643"
         cy="130.39572"
         r="0.48851547"
         inkscape:label="Istanbul_path2" /></g></g><rect
     style="display:none;fill:#1a1a1a;fill-opacity:0.867612;stroke:#ffffff;stroke-width:1;stroke-linecap:round;stroke-linejoin:round;stroke-miterlimit:3.6;paint-order:stroke markers fill"
     id="rect16"
     width="336.7692"
     height="245.91223"
     x="-17.95377"
     y="-13.057287"
     ry="0.35118216"
     inkscape:label="rideu" /><image
     preserveAspectRatio="none"
     inkscape:svg-dpi="300"
     width="240"
     height="169.69696"
     xlink:href="../../Spra%CC%8Aken_i_Mellano%CC%88stern/tree_Indoeuropean.svg"
     id="image1"
     x="-78.439049"
     y="42.893692"
     inkscape:label="image_IE"
     style="display:inline" /><image
     preserveAspectRatio="none"
     inkscape:svg-dpi="300"
     width="240"
     height="169.69695"
     xlink:href="../../Spra%CC%8Aken_i_Mellano%CC%88stern/tree_Semitic.svg"
     id="image1-6"
     x="53.386181"
     y="39.610428"
     inkscape:label="image_Semitic"
     style="display:inline" /><image
     preserveAspectRatio="none"
     inkscape:svg-dpi="300"
     width="240"
     height="169.69695"
     xlink:href="../../Spra%CC%8Aken_i_Mellano%CC%88stern/tree_Turkic.svg"
     id="image1-64"
     x="146.24101"
     y="40.504547"
     inkscape:label="image_Oghuz"
     style="display:inline" /></svg>
