<?xml version="1.0" encoding="UTF-8" standalone="no"?>
<!-- Created with Inkscape (http://www.inkscape.org/) -->

<svg
   width="232"
   height="102"
   viewBox="0 0 61.383335 26.987501"
   version="1.1"
   id="svg5"
   inkscape:version="1.1 (c68e22c387, 2021-05-23)"
   sodipodi:docname="Ge'ez.svg"
   xmlns:inkscape="http://www.inkscape.org/namespaces/inkscape"
   xmlns:sodipodi="http://sodipodi.sourceforge.net/DTD/sodipodi-0.dtd"
   xmlns="http://www.w3.org/2000/svg"
   xmlns:svg="http://www.w3.org/2000/svg">
  <sodipodi:namedview
     id="namedview7"
     pagecolor="#ffffff"
     bordercolor="#999999"
     borderopacity="1"
     inkscape:pageshadow="0"
     inkscape:pageopacity="0"
     inkscape:pagecheckerboard="0"
     inkscape:document-units="mm"
     showgrid="false"
     fit-margin-top="0"
     fit-margin-left="0"
     fit-margin-right="0"
     fit-margin-bottom="0"
     units="px"
     width="234px"
     inkscape:zoom="2.2155172"
     inkscape:cx="116"
     inkscape:cy="50.77821"
     inkscape:window-width="1366"
     inkscape:window-height="705"
     inkscape:window-x="-8"
     inkscape:window-y="-8"
     inkscape:window-maximized="1"
     inkscape:current-layer="layer1" />
  <defs
     id="defs2" />
  <g
     inkscape:label="Layer 1"
     inkscape:groupmode="layer"
     id="layer1"
     transform="translate(-43.965019,-144.69163)">
    <g
       aria-label="ግዕዝ"
       id="text1508"
       style="font-size:5.55625px;line-height:1.25;font-family:Arial;-inkscape-font-specification:Arial;stroke-width:0.264583"
       transform="matrix(6.1486792,0,0,6.1486792,-213.48959,-730.5373)">
      <path
         d="m 41.914577,144.04504 q 0,-0.37982 0.225181,-0.58329 0.227893,-0.20348 0.70267,-0.20348 0.19805,0 0.355405,0.038 0.314709,-0.10852 0.618566,-0.18177 0.306571,-0.0732 0.561594,-0.0732 0.374396,0 0.561594,0.16007 0.187198,0.16006 0.187198,0.43408 0,0.0597 -0.0081,0.10852 -0.0054,0.0461 -0.01899,0.11123 l -0.605001,2.78084 H 44.03344 l 0.588724,-2.70759 q 0.01085,-0.0461 0.01628,-0.0841 0.0054,-0.0407 0.0054,-0.0895 0,-0.13565 -0.0841,-0.21704 -0.08139,-0.0841 -0.284866,-0.0841 -0.141077,0 -0.303858,0.0407 -0.162781,0.038 -0.328274,0.0977 0.05426,0.0922 0.07868,0.20076 0.02713,0.10852 0.02713,0.23061 0,0.37711 -0.227893,0.58058 -0.227893,0.20348 -0.70267,0.20348 -0.25231,0 -0.425943,-0.057 -0.17092,-0.057 -0.279441,-0.15736 -0.105807,-0.10309 -0.151928,-0.24146 -0.04612,-0.14107 -0.04612,-0.30657 z m 0.914286,-0.37982 q -0.255023,0 -0.358118,0.095 -0.100381,0.0922 -0.100381,0.2713 0,0.1872 0.103094,0.27944 0.105808,0.0895 0.355405,0.0895 0.255023,0 0.358117,-0.0922 0.105808,-0.0923 0.105808,-0.27402 0,-0.18991 -0.108521,-0.27944 -0.105807,-0.0895 -0.355404,-0.0895 z"
         id="path8688" />
      <path
         d="m 47.118136,142.37654 v 1.15303 q 0.482916,0.0543 0.724374,0.40153 0.241458,0.34455 0.241458,1.04179 v 0.21162 q 0,0.39881 -0.07868,0.68639 -0.07596,0.28487 -0.227893,0.47207 -0.151929,0.18448 -0.382535,0.2713 -0.227893,0.0868 -0.53175,0.0868 -0.293006,0 -0.51276,-0.0814 -0.217041,-0.0841 -0.363543,-0.26045 -0.14379,-0.17906 -0.217042,-0.45307 -0.07325,-0.27673 -0.07325,-0.65926 v -0.21162 q 0,-0.35269 0.05969,-0.61856 0.0624,-0.26588 0.181772,-0.45036 0.122086,-0.18449 0.301145,-0.2903 0.181772,-0.1058 0.42323,-0.13836 v -1.16117 z m 0.515472,2.62077 q 0,-0.28758 -0.04883,-0.49105 -0.04612,-0.20619 -0.141077,-0.3337 -0.09495,-0.13023 -0.236032,-0.18992 -0.141076,-0.0597 -0.328274,-0.0597 -0.184485,0 -0.322849,0.057 -0.13565,0.057 -0.227893,0.18177 -0.08953,0.1248 -0.135651,0.32285 -0.04612,0.19534 -0.04612,0.47207 v 0.26587 q 0,0.29029 0.04612,0.49377 0.04883,0.20348 0.141077,0.3337 0.09496,0.12751 0.236032,0.1872 0.14379,0.0597 0.330988,0.0597 0.181772,0 0.320135,-0.057 0.138364,-0.057 0.227893,-0.18177 0.09224,-0.1248 0.138364,-0.32014 0.04612,-0.19805 0.04612,-0.47477 z"
         id="path8690" />
      <path
         d="m 51.355862,146.63597 v -2.12971 h -1.147605 v 2.12971 h -0.455786 v -2.98431 h -0.629419 q -0.0217,0.14107 -0.05969,0.26859 -0.03527,0.12751 -0.09767,0.24959 l -0.412378,-0.1682 q 0.07054,-0.14108 0.100382,-0.30115 0.03256,-0.16007 0.03256,-0.32285 0,-0.0488 -0.0054,-0.11666 h 1.527426 v 0.8546 h 1.147605 v -1.37007 h 0.455786 v 3.89046 z"
         id="path8692" />
    </g>
  </g>
</svg>
