<?xml version="1.0" encoding="UTF-8" standalone="no"?>
<svg
   xmlns:dc="http://purl.org/dc/elements/1.1/"
   xmlns:cc="http://web.resource.org/cc/"
   xmlns:rdf="http://www.w3.org/1999/02/22-rdf-syntax-ns#"
   xmlns:svg="http://www.w3.org/2000/svg"
   xmlns="http://www.w3.org/2000/svg"
   version="1.0"
   width="200"
   height="365">
  <g
     transform="matrix(2.753646,0,0,2.753646,-3.487005,-3.342176)">
    <path
       d="M 29.75,133.26496 C 26.447256,133.00454 25,132.45008 25,131.44521 C 25,130.65034 25.64935,130 26.443,130 C 27.23665,130 30.634795,127.4551 33.994434,124.34467 C 38.877991,119.82336 40.042423,118.16905 39.801433,116.09467 C 39.523451,113.70186 39.044558,113.45952 33.645895,112.97963 C 28.835202,112.55201 27.364755,111.9628 25.395895,109.67387 C 22.523033,106.33397 22.418546,104.93963 24.818983,101.97522 C 26.233422,100.22846 28.068228,99.59222 33.068983,99.114435 L 39.5,98.5 L 39.804357,94.314275 C 40.151632,89.538311 39.001849,88.50365 32.125244,87.404037 C 26.2123,86.458519 26.891792,84.371859 33.563662,82.986784 C 42.512709,81.128969 41.833778,76.847416 32.364975,75.427481 C 25.418893,74.385852 27.099361,72.536059 37.25,70.050241 C 48.060368,67.402859 51.622124,65.765944 52.48453,63.04874 C 53.126695,61.02546 51.562523,57.075527 49.600296,55.765313 C 47.216789,54.173803 41.384601,55.054136 37.692997,57.562646 C 33.990794,60.078357 28.436514,60.648121 28.555295,58.5 C 28.585708,57.95 31.173208,56.231495 34.305295,54.681101 C 42.723204,50.514205 41.889249,46.965364 32.125244,45.404037 C 26.235286,44.462194 26.887525,42.372745 33.5,41 C 40.02455,39.645509 40.906605,37.384113 35.25,36.513382 C 28.859566,35.529691 26.776277,34.596685 24.678469,31.778893 C 22.972673,29.487655 22.836113,28.655109 23.81403,26.508815 C 25.219092,23.425039 28.626954,22 34.596484,22 C 37.818564,22 39.238578,21.54185 39.693865,20.355392 C 40.619467,17.943311 37.324393,16 32.30887,16 C 29.257409,16 28,15.586453 28,14.582864 C 28,12.827654 35.94782,11 43.580606,11 C 49.853842,11 50.96807,9.7513401 48.979279,4.9499748 C 46.977699,0.11773253 48.687987,0.2678624 53.87817,5.3800016 C 58.663164,10.093045 58.767248,10.136309 64.559206,9.8197123 C 70.29377,9.5062527 70.426026,9.5586719 71.321708,12.5 C 71.824159,14.15 72.632323,16.281394 73.117628,17.236431 C 74.404621,19.769121 74.263986,20 71.434259,20 C 67.893712,20 65,18.275183 65,16.164816 C 65,12.168339 60.150212,10.649097 56.869697,13.617923 C 55.886415,14.507781 53.600982,15.538345 51.790956,15.908066 L 48.5,16.580286 L 48.227282,34.202686 L 47.954563,51.825087 L 52.221675,54.17896 C 54.568587,55.47359 57.103116,57.814588 57.853963,59.381177 C 59.068213,61.914625 59.007455,62.513049 57.30439,64.79412 C 56.251278,66.204649 53.839472,67.880405 51.94482,68.518021 L 48.5,69.677324 L 48.231338,93.577467 L 47.962675,117.47761 L 43.805108,121.05837 C 37.807552,126.22384 38.840889,128 47.843615,128 C 51.642127,128 56.155751,128.28115 57.873891,128.62478 C 60.75045,129.20009 61.119964,128.95713 62.540979,125.55617 C 63.627792,122.95506 65.145733,121.41923 67.673684,120.36298 C 72.286152,118.43577 73.834773,119.86714 70.513244,122.98756 C 68.765308,124.62966 68,126.40537 68,128.81892 L 68,132.28921 L 61.429582,131.67565 C 57.03381,131.26517 52.992569,131.54829 49.219483,132.53105 C 43.805477,133.94122 40.098532,134.08095 29.75,133.26496 z M 39.5,106 C 39.5,101.54982 39.459863,101.49665 35.874379,101.19705 C 31.886523,100.86383 29,102.88057 29,106 C 29,109.11943 31.886523,111.13617 35.874379,110.80295 C 39.459863,110.50335 39.5,110.45018 39.5,106 z M 39.5,29 C 39.5,24.549817 39.459863,24.496646 35.874379,24.19705 C 31.886523,23.863832 29,25.880571 29,29 C 29,32.119429 31.886523,34.136168 35.874379,33.80295 C 39.459863,33.503354 39.5,33.450183 39.5,29 z M 2.5184541,85.020392 C 1.0886205,83.440443 0.92351633,82.676484 1.8184809,81.781519 C 3.583429,80.016571 8.5,82.034675 8.5,84.524082 C 8.5,87.278328 4.8369189,87.582266 2.5184541,85.020392 z M 13.518454,81.020392 C 12.08862,79.440443 11.923516,78.676484 12.818481,77.781519 C 14.583429,76.016571 19.5,78.034675 19.5,80.524082 C 19.5,83.278328 15.836919,83.582266 13.518454,81.020392 z "
       style="fill:#000000" />
  </g>
</svg>
