<?xml version="1.0" encoding="UTF-8"?><svg xmlns="http://www.w3.org/2000/svg" xmlns:xlink="http://www.w3.org/1999/xlink" width="227.03999pt" height="153.119995pt" viewBox="0 0 227.03999 153.119995" version="1.1"><defs><g><symbol overflow="visible" id="1"><path style="stroke:none;" d="M 60.28125 -30.40625 C 57.082031 -30.40625 53.769531 -30.976563 50.34375 -32.125 C 46.914063 -33.269531 44.035156 -35.367188 41.703125 -38.421875 C 39.378906 -41.484375 38.082031 -45.800781 37.8125 -51.375 L 47.40625 -53.4375 C 48.863281 -44.570313 53.65625 -40.140625 61.78125 -40.140625 C 65.988281 -40.140625 69.53125 -41.03125 72.40625 -42.8125 C 75.28125 -44.59375 76.945313 -47.765625 77.40625 -52.328125 L 85.90625 -52.328125 C 87.09375 -47.304688 88.09375 -42.144531 88.90625 -36.84375 C 89.726563 -31.550781 90.140625 -26.941406 90.140625 -23.015625 C 90.140625 -15.523438 88.3125 -9.816406 84.65625 -5.890625 C 81.007813 -1.960938 74.847656 0 66.171875 0 L 6.84375 0 L 6.84375 -10.40625 L 66.578125 -10.40625 C 70.328125 -10.40625 73.113281 -10.976563 74.9375 -12.125 C 76.757813 -13.269531 77.945313 -14.957031 78.5 -17.1875 C 79.050781 -19.425781 79.328125 -22.191406 79.328125 -25.484375 C 79.328125 -26.210938 79.28125 -27.285156 79.1875 -28.703125 C 79.09375 -30.117188 78.953125 -31.578125 78.765625 -33.078125 C 78.585938 -34.585938 78.410156 -35.800781 78.234375 -36.71875 C 76.304688 -34.4375 73.8125 -32.8125 70.75 -31.84375 C 67.695313 -30.882813 64.207031 -30.40625 60.28125 -30.40625 Z M 60.28125 -30.40625"/></symbol></g></defs><g style="fill:rgb(0%,0%,0%);fill-opacity:1;"><use xlink:href="#1" x="63.309578" y="108.31913"/></g></svg>