<?xml version="1.0" encoding="UTF-8"?><svg xmlns="http://www.w3.org/2000/svg" xmlns:xlink="http://www.w3.org/1999/xlink" width="227.03999pt" height="153.119995pt" viewBox="0 0 227.03999 153.119995" version="1.1"><defs><g><symbol overflow="visible" id="1"><path style="stroke:none;" d="M 97.265625 -46.03125 C 93.984375 -44.113281 90.332031 -41.578125 86.3125 -38.421875 C 82.289063 -35.273438 78.410156 -32.015625 74.671875 -28.640625 C 77.222656 -25.890625 79.890625 -23.144531 82.671875 -20.40625 C 85.460938 -17.664063 88.132813 -15.269531 90.6875 -13.21875 C 93.25 -11.164063 95.351563 -9.726563 97 -8.90625 L 97 0 L 6.84375 0 L 6.84375 -10.40625 L 60 -10.40625 C 60.550781 -10.40625 61.648438 -10.382813 63.296875 -10.34375 C 64.941406 -10.300781 66.765625 -10.253906 68.765625 -10.203125 C 70.773438 -10.160156 72.691406 -10.113281 74.515625 -10.0625 C 76.347656 -10.019531 77.8125 -9.953125 78.90625 -9.859375 L 78.90625 -10.40625 C 75.800781 -12.238281 72.628906 -14.707031 69.390625 -17.8125 C 66.148438 -20.914063 63.046875 -24.316406 60.078125 -28.015625 C 57.109375 -31.710938 54.410156 -35.34375 51.984375 -38.90625 C 49.566406 -42.46875 47.675781 -45.53125 46.3125 -48.09375 L 55.484375 -53.5625 C 57.128906 -50.644531 59.066406 -47.5625 61.296875 -44.3125 C 63.535156 -41.070313 65.800781 -38.128906 68.09375 -35.484375 C 71.925781 -39.222656 75.941406 -42.757813 80.140625 -46.09375 C 84.347656 -49.425781 88.1875 -52.054688 91.65625 -53.984375 Z M 97.265625 -46.03125"/></symbol></g></defs><g style="fill:rgb(0%,0%,0%);fill-opacity:1;"><use xlink:href="#1" x="59.613136" y="108.319124"/></g></svg>