<?xml version="1.0" encoding="UTF-8"?><svg xmlns="http://www.w3.org/2000/svg" xmlns:xlink="http://www.w3.org/1999/xlink" width="227.03999pt" height="153.119995pt" viewBox="0 0 227.03999 153.119995" version="1.1"><defs><g><symbol overflow="visible" id="1"><path style="stroke:none;" d="M 9.59375 0 L 9.59375 -10.40625 L 19.3125 -10.40625 C 22.695313 -10.40625 25.734375 -10.609375 28.421875 -11.015625 C 31.117188 -11.429688 33.289063 -12.394531 34.9375 -13.90625 C 36.582031 -15.414063 37.40625 -17.769531 37.40625 -20.96875 C 37.40625 -23.0625 36.648438 -25.59375 35.140625 -28.5625 C 33.628906 -31.53125 31.773438 -34.546875 29.578125 -37.609375 C 27.390625 -40.671875 25.15625 -43.390625 22.875 -45.765625 L 23.15625 -52.328125 C 24.4375 -53.515625 26.375 -55.160156 28.96875 -57.265625 C 31.570313 -59.367188 33.878906 -61.242188 35.890625 -62.890625 L 42.203125 -55.765625 C 41.097656 -54.847656 39.835938 -53.75 38.421875 -52.46875 C 37.015625 -51.1875 35.757813 -50 34.65625 -48.90625 C 37.675781 -45.070313 40.164063 -41.671875 42.125 -38.703125 C 44.09375 -35.734375 45.941406 -32.101563 47.671875 -27.8125 C 48.316406 -26.164063 48.707031 -24.722656 48.84375 -23.484375 C 48.976563 -22.253906 49.046875 -20.863281 49.046875 -19.3125 C 49.046875 -17.300781 48.632813 -15.175781 47.8125 -12.9375 C 46.988281 -10.707031 45.710938 -8.769531 43.984375 -7.125 C 42.609375 -5.84375 40.9375 -4.65625 38.96875 -3.5625 C 37.007813 -2.46875 34.40625 -1.597656 31.15625 -0.953125 C 27.914063 -0.316406 23.738281 0 18.625 0 Z M 9.59375 0"/></symbol></g></defs><g style="fill:rgb(0%,0%,0%);fill-opacity:1;"><use xlink:href="#1" x="84.911327" y="108.319194"/></g></svg>