<?xml version="1.0" encoding="UTF-8"?><svg xmlns="http://www.w3.org/2000/svg" xmlns:xlink="http://www.w3.org/1999/xlink" width="227.03999pt" height="153.119995pt" viewBox="0 0 227.03999 153.119995" version="1.1"><defs><g><symbol overflow="visible" id="1"><path style="stroke:none;" d="M 98.78125 -5.34375 C 98.78125 -0.863281 97.863281 3.40625 96.03125 7.46875 C 94.207031 11.53125 91.71875 15.160156 88.5625 18.359375 C 85.414063 21.554688 81.8125 24.066406 77.75 25.890625 C 73.6875 27.722656 69.367188 28.640625 64.796875 28.640625 C 62.515625 28.640625 60.023438 28.410156 57.328125 27.953125 C 54.640625 27.492188 52.0625 26.460938 49.59375 24.859375 C 47.125 23.265625 45.113281 20.800781 43.5625 17.46875 C 42.007813 14.132813 41.234375 9.59375 41.234375 3.84375 L 41.234375 -0.953125 C 39.503906 -0.585938 37.882813 -0.335938 36.375 -0.203125 C 34.863281 -0.0664063 33.46875 0 32.1875 0 C 24.332031 0 18.625 -2.875 15.0625 -8.625 C 13.695313 -10.914063 12.671875 -13.863281 11.984375 -17.46875 C 11.296875 -21.070313 10.953125 -26.347656 10.953125 -33.296875 C 10.953125 -37.671875 11 -42.460938 11.09375 -47.671875 C 11.1875 -52.878906 11.28125 -58.195313 11.375 -63.625 C 11.46875 -69.0625 11.601563 -74.269531 11.78125 -79.25 C 11.96875 -84.226563 12.101563 -88.59375 12.1875 -92.34375 L 22.1875 -92.34375 C 22.1875 -88.414063 22.1875 -83.914063 22.1875 -78.84375 C 22.1875 -73.769531 22.1875 -68.582031 22.1875 -63.28125 C 22.1875 -57.988281 22.207031 -52.96875 22.25 -48.21875 C 22.300781 -43.46875 22.328125 -39.378906 22.328125 -35.953125 C 22.328125 -32.535156 22.375 -30.1875 22.46875 -28.90625 C 22.644531 -24.789063 23.03125 -21.363281 23.625 -18.625 C 24.21875 -15.882813 25.359375 -13.828125 27.046875 -12.453125 C 28.742188 -11.085938 31.238281 -10.40625 34.53125 -10.40625 C 35.34375 -10.40625 36.363281 -10.453125 37.59375 -10.546875 C 38.832031 -10.640625 40.179688 -10.820313 41.640625 -11.09375 C 41.640625 -12.101563 41.6875 -13.769531 41.78125 -16.09375 C 41.875 -18.425781 41.96875 -21.117188 42.0625 -24.171875 C 42.15625 -27.234375 42.289063 -30.296875 42.46875 -33.359375 C 42.65625 -36.421875 42.789063 -39.179688 42.875 -41.640625 L 52.609375 -41.640625 L 52.609375 -13.28125 C 57.992188 -14.75 63.128906 -16.394531 68.015625 -18.21875 C 72.898438 -20.050781 77.21875 -20.96875 80.96875 -20.96875 C 83.976563 -20.96875 86.832031 -20.460938 89.53125 -19.453125 C 92.226563 -18.453125 94.441406 -16.804688 96.171875 -14.515625 C 97.910156 -12.234375 98.78125 -9.175781 98.78125 -5.34375 Z M 79.734375 -10.828125 C 77.910156 -10.828125 75.582031 -10.390625 72.75 -9.515625 C 69.914063 -8.648438 66.738281 -7.597656 63.21875 -6.359375 C 59.707031 -5.128906 56.035156 -4.015625 52.203125 -3.015625 L 52.203125 2.875 C 52.203125 7.445313 52.835938 10.847656 54.109375 13.078125 C 55.390625 15.316406 57.007813 16.753906 58.96875 17.390625 C 60.9375 18.035156 62.878906 18.359375 64.796875 18.359375 C 68.816406 18.359375 72.5625 17.21875 76.03125 14.9375 C 79.5 12.65625 82.304688 9.753906 84.453125 6.234375 C 86.609375 2.710938 87.6875 -0.78125 87.6875 -4.25 C 87.6875 -6.257813 86.929688 -7.859375 85.421875 -9.046875 C 83.910156 -10.234375 82.015625 -10.828125 79.734375 -10.828125 Z M 79.734375 -10.828125"/></symbol></g></defs><g style="fill:rgb(0%,0%,0%);fill-opacity:1;"><use xlink:href="#1" x="61.397257" y="108.319335"/></g></svg>