<?xml version="1.0" encoding="UTF-8" standalone="no"?>
<svg
   xmlns:dc="http://purl.org/dc/elements/1.1/"
   xmlns:cc="http://creativecommons.org/ns#"
   xmlns:rdf="http://www.w3.org/1999/02/22-rdf-syntax-ns#"
   xmlns:svg="http://www.w3.org/2000/svg"
   xmlns="http://www.w3.org/2000/svg"
   xmlns:sodipodi="http://sodipodi.sourceforge.net/DTD/sodipodi-0.dtd"
   xmlns:inkscape="http://www.inkscape.org/namespaces/inkscape"
   width="500"
   height="750"
   viewBox="0 0 132.29167 198.43752"
   version="1.1"
   id="svg8"
   inkscape:version="1.0.2-2 (e86c870879, 2021-01-15)"
   sodipodi:docname="Old Uyghur name.svg">
  <defs
     id="defs2" />
  <sodipodi:namedview
     id="base"
     pagecolor="#ffffff"
     bordercolor="#666666"
     borderopacity="1.0"
     inkscape:pageopacity="0.0"
     inkscape:pageshadow="2"
     inkscape:zoom="0.49497475"
     inkscape:cx="529.005"
     inkscape:cy="364.25047"
     inkscape:document-units="px"
     inkscape:current-layer="layer1"
     showgrid="false"
     units="px"
     showguides="true"
     inkscape:guide-bbox="true"
     inkscape:snap-center="true"
     inkscape:snap-object-midpoints="false"
     inkscape:window-width="1366"
     inkscape:window-height="705"
     inkscape:window-x="-8"
     inkscape:window-y="-8"
     inkscape:window-maximized="1"
     inkscape:document-rotation="0" />
  <metadata
     id="metadata5">
    <rdf:RDF>
      <cc:Work
         rdf:about="">
        <dc:format>image/svg+xml</dc:format>
        <dc:type
           rdf:resource="http://purl.org/dc/dcmitype/StillImage" />
        <dc:title />
      </cc:Work>
    </rdf:RDF>
  </metadata>
  <g
     inkscape:label="Layer 1"
     inkscape:groupmode="layer"
     id="layer1"
     transform="translate(0,-185.87499)">
    <g
       id="g23">
      <path
         d="m 72.441829,363.25016 -1.062874,0.30988 -6.982852,-4.22222 c -1.268839,-0.7747 -2.129529,-1.77903 -2.583025,-3.011 -0.461048,-1.2405 -0.693465,-3.06013 -0.693465,-5.46272 v -20.1058 c -2.045445,1.26979 -4.053096,2.91557 -6.022958,4.93078 -1.978364,2.00765 -3.742263,4.14097 -5.300204,6.39237 H 49.16156 l -9.211582,-13.00579 c 2.68695,-1.34726 5.410744,-2.48007 8.163825,-3.39556 2.745525,-0.91546 5.491046,-1.65333 8.237517,-2.21453 L 43.34551,318.4913 v -0.95987 c 2.67939,-0.98164 5.550567,-1.75638 8.621096,-2.31758 3.070528,-0.56874 6.052245,-0.85594 8.946099,-0.85594 0.13983,0 0.206908,0 0.206908,0 0,-0.5612 0.279654,-0.8418 0.840853,-0.8418 h 8.370729 c 0.560253,0 0.840852,0.2806 0.840852,0.8418 v 37.673 c 0,2.33267 0.103925,4.38093 0.309888,6.14105 0.214464,1.76392 0.535689,3.45412 0.959894,5.0782 z"
         style="fill:#000000;fill-opacity:1;fill-rule:nonzero;stroke:none;stroke-width:0.352778"
         id="path3048" />
      <path
         d="m 61.960466,315.19875 c -0.561199,0 -0.840853,-0.27964 -0.840853,-0.84084 -3.455053,-1.69023 -6.643678,-3.69785 -9.565874,-6.02298 -2.930701,-2.33263 -5.277531,-4.53587 -7.042372,-6.61342 -1.77146,-2.08512 -2.656717,-3.66102 -2.656717,-4.7239 0,-0.9155 0.834239,-1.95284 2.495159,-3.11492 1.65336,-1.15927 3.926494,-2.1626 6.819406,-3.01195 2.893854,-0.84466 6.211913,-1.26884 9.950398,-1.26884 0,-0.56878 0.279654,-0.85693 0.840853,-0.85693 h 8.370729 c 0.560253,0 0.840852,0.28815 0.840852,0.85693 v 24.75601 c 0,0.5612 -0.280599,0.84084 -0.840852,0.84084 z m -0.840853,-5.91904 v -13.86177 c -1.199868,0.2069 -2.46965,0.68591 -3.809344,1.43228 -1.335917,0.73787 -2.464926,1.53148 -3.380416,2.37613 -0.922101,0.84935 -1.387877,1.5173 -1.387877,2.00766 0,0.70855 0.867308,1.9122 2.598138,3.60243 1.734612,1.69396 3.728092,3.17351 5.979499,4.44327 z"
         style="fill:#000000;fill-opacity:1;fill-rule:nonzero;stroke:none;stroke-width:0.352778"
         id="path3050" />
      <path
         d="m 71.172047,289.59809 c 0,0.5612 -0.280599,0.84088 -0.840852,0.84088 h -8.370729 c -0.561199,0 -0.840853,-0.27968 -0.840853,-0.84088 -2.959989,-1.55412 -5.904862,-2.91179 -8.828004,-4.07479 -2.930701,-1.15831 -5.879352,-2.09554 -8.843119,-2.80413 v -1.26975 l 15.663471,-6.03807 c -2.686949,-1.61276 -5.314375,-3.10741 -7.883225,-4.48772 -2.57641,-1.37654 -5.17077,-2.5575 -7.780246,-3.54292 v -0.95895 c 2.402572,-1.19987 5.281309,-2.34777 8.636215,-3.43994 3.347346,-1.09216 6.359296,-1.77899 9.034908,-2.06717 0,-0.56025 0.279654,-0.84085 0.840853,-0.84085 h 8.370729 c 0.560253,0 0.840852,0.2806 0.840852,0.84085 v 13.75879 c 0,2.40259 -0.368462,4.29214 -1.107277,5.66868 -0.74543,1.38032 -1.579669,2.56131 -2.494213,3.54291 l 2.642542,2.74553 c 0.424204,0.42422 0.689687,0.84935 0.796448,1.26979 0.11054,0.42422 0.1625,0.98919 0.1625,1.69774 z"
         style="fill:#000000;fill-opacity:1;fill-rule:nonzero;stroke:none;stroke-width:0.352778"
         id="path3052" />
      <path
         d="m 61.960466,261.76403 c -0.561199,0 -0.840853,-0.2806 -0.840853,-0.8418 V 245.1567 c -2.251407,1.97743 -3.978459,4.17026 -5.182105,6.56904 -1.198922,2.39123 -2.011433,4.82311 -2.435638,7.29276 l -0.959894,0.20596 -10.894233,-10.15637 c 1.912232,-3.94445 4.55761,-7.43257 7.941804,-10.46625 3.387972,-3.04123 7.230382,-5.33231 11.530066,-6.87892 0,-0.56875 0.279654,-0.85598 0.840853,-0.85598 h 8.370729 c 0.560253,0 0.840852,0.28723 0.840852,0.85598 v 29.19931 c 0,0.5612 -0.280599,0.8418 -0.840852,0.8418 z"
         style="fill:#000000;fill-opacity:1;fill-rule:nonzero;stroke:none;stroke-width:0.352778"
         id="path3054" />
      <path
         d="m 61.960466,232.55717 c -0.561199,0 -0.840853,-0.2806 -0.840853,-0.8418 -3.455053,-1.69023 -6.643678,-3.69789 -9.565874,-6.02297 -2.930701,-2.33264 -5.277531,-4.55383 -7.042372,-6.67202 -1.77146,-2.11536 -2.656717,-3.7054 -2.656717,-4.76828 0,-0.9155 0.764325,-1.97083 2.288251,-3.17448 1.51637,-1.19891 3.365299,-2.25802 5.550571,-3.17348 2.184326,-0.91549 4.302516,-1.33593 6.347961,-1.26979 l 14.067741,0.32498 c 0.708582,0 1.062873,0.35052 1.062873,1.04779 v 23.70825 c 0,0.5612 -0.280599,0.8418 -0.840852,0.8418 z m -0.840853,-6.02297 v -13.96475 c -1.269782,0.20595 -2.55468,0.70101 -3.853748,1.47574 -1.305684,0.77848 -2.420522,1.59099 -3.336012,2.43561 -0.922101,0.84939 -1.387877,1.51734 -1.387877,2.00766 0,0.64245 0.867308,1.80831 2.598138,3.49854 1.734612,1.69396 3.728092,3.2113 5.979499,4.5472 z"
         style="fill:#000000;fill-opacity:1;fill-rule:nonzero;stroke:none;stroke-width:0.352778"
         id="path3056" />
    </g>
  </g>
</svg>
